<svg width="235.642" height="127.234" viewBox="593 331.001 235.642 127.234" fill="none" xmlns="http://www.w3.org/2000/svg">
<foreignObject x="593" y="331.001" width="235.642" height="127.234"><div xmlns="http://www.w3.org/1999/xhtml" style="backdrop-filter:blur(2.15px);clip-path:url(#bgblur_11_517_5148_clip_path);height:100%;width:100%"></div></foreignObject><g filter="url(#filter10_d_517_5148)" data-figma-bg-blur-radius="4.3">
<path d="M640 413.305C640 404.3 647.299 397.001 656.304 397.001H765.024C774.202 397.001 781.642 404.441 781.642 413.618C781.642 422.796 774.202 430.235 765.024 430.235H656.931C647.58 430.235 640 422.655 640 413.305Z" fill="#262525" fill-opacity="0.67"/>
<path d="M656.304 397.501H765.024C773.926 397.501 781.142 404.717 781.142 413.618C781.142 422.519 773.926 429.735 765.024 429.735H656.931C647.856 429.735 640.5 422.379 640.5 413.305C640.5 404.577 647.576 397.501 656.304 397.501Z" stroke="url(#paint15_linear_517_5148)"/>
</g>
<defs>
<filter id="filter10_d_517_5148" x="593" y="331.001" width="235.642" height="127.234" filterUnits="userSpaceOnUse" color-interpolation-filters="sRGB">
<feFlood flood-opacity="0" result="BackgroundImageFix"/>
<feColorMatrix in="SourceAlpha" type="matrix" values="0 0 0 0 0 0 0 0 0 0 0 0 0 0 0 0 0 0 127 0" result="hardAlpha"/>
<feOffset dy="-19"/>
<feGaussianBlur stdDeviation="23.5"/>
<feColorMatrix type="matrix" values="0 0 0 0 0 0 0 0 0 0 0 0 0 0 0 0 0 0 0.06 0"/>
<feBlend mode="normal" in2="BackgroundImageFix" result="effect1_dropShadow_517_5148"/>
<feBlend mode="normal" in="SourceGraphic" in2="effect1_dropShadow_517_5148" result="shape"/>
</filter>
<clipPath id="bgblur_11_517_5148_clip_path" transform="translate(-593 -331.001)"><path d="M640 413.305C640 404.3 647.299 397.001 656.304 397.001H765.024C774.202 397.001 781.642 404.441 781.642 413.618C781.642 422.796 774.202 430.235 765.024 430.235H656.931C647.58 430.235 640 422.655 640 413.305Z"/>
</clipPath>
<linearGradient id="paint15_linear_517_5148" x1="670.749" y1="379.871" x2="763.385" y2="438.095" gradientUnits="userSpaceOnUse">
<stop stop-color="white" stop-opacity="0.5"/>
<stop offset="0.34611" stop-color="white" stop-opacity="0.65389"/>
<stop offset="0.636075" stop-color="white" stop-opacity="0.363925"/>
<stop offset="1" stop-color="white" stop-opacity="0.5"/>
</linearGradient>
</defs>
</svg>
