<svg width="390" height="844" viewBox="0 0 390 844" fill="none" xmlns="http://www.w3.org/2000/svg">
<defs>
<linearGradient id="paint0_linear_40_6336" x1="248.067" y1="497.727" x2="275.76" y2="420.898" gradientUnits="userSpaceOnUse">
<stop stop-color="#D9D9D9" stop-opacity="0.03"/>
<stop offset="0.643634" stop-color="#E5A1D1"/>
<stop offset="1" stop-color="#E6A1D2"/>
</linearGradient>
<linearGradient id="paint1_linear_40_6336" x1="248.483" y1="431.727" x2="276.177" y2="354.898" gradientUnits="userSpaceOnUse">
<stop stop-color="#D9D9D9" stop-opacity="0.03"/>
<stop offset="0.643634" stop-color="#E5A1D1"/>
<stop offset="1" stop-color="#E6A1D2"/>
</linearGradient>
<linearGradient id="paint2_linear_40_6336" x1="50.3782" y1="626.847" x2="71.6153" y2="567.93" gradientUnits="userSpaceOnUse">
<stop stop-color="#D9D9D9" stop-opacity="0.03"/>
<stop offset="0.643634" stop-color="#E5A1D1"/>
<stop offset="1" stop-color="#E6A1D2"/>
</linearGradient>
<linearGradient id="paint3_linear_40_6336" x1="270.635" y1="542.863" x2="298.328" y2="466.035" gradientUnits="userSpaceOnUse">
<stop stop-color="#D9D9D9" stop-opacity="0.03"/>
<stop offset="0.643634" stop-color="#E5A1D1"/>
<stop offset="1" stop-color="#E6A1D2"/>
</linearGradient>
<linearGradient id="paint4_linear_40_6336" x1="214.458" y1="642.74" x2="258.693" y2="520.018" gradientUnits="userSpaceOnUse">
<stop stop-color="#D9D9D9" stop-opacity="0.03"/>
<stop offset="0.643634" stop-color="#E5A1D1"/>
<stop offset="1" stop-color="#E6A1D2"/>
</linearGradient>
<linearGradient id="paint5_linear_40_6336" x1="270.734" y1="344.121" x2="284.983" y2="304.589" gradientUnits="userSpaceOnUse">
<stop stop-color="#D9D9D9" stop-opacity="0.03"/>
<stop offset="0.643634" stop-color="#29E3E1"/>
<stop offset="1" stop-color="#E6A1D2"/>
</linearGradient>
<linearGradient id="paint6_linear_40_6336" x1="325.494" y1="362.201" x2="339.744" y2="322.669" gradientUnits="userSpaceOnUse">
<stop stop-color="#D9D9D9" stop-opacity="0.03"/>
<stop offset="0.643634" stop-color="#E5A1D1"/>
<stop offset="1" stop-color="#E6A1D2"/>
</linearGradient>
<linearGradient id="paint7_linear_40_6336" x1="150.949" y1="312.457" x2="161.877" y2="282.141" gradientUnits="userSpaceOnUse">
<stop stop-color="#D9D9D9" stop-opacity="0.03"/>
<stop offset="0.643634" stop-color="#E5A1D1"/>
<stop offset="1" stop-color="#E6A1D2"/>
</linearGradient>
<linearGradient id="paint8_linear_40_6336" x1="261.586" y1="368.422" x2="275.835" y2="328.89" gradientUnits="userSpaceOnUse">
<stop stop-color="#D9D9D9" stop-opacity="0.03"/>
<stop offset="0.643634" stop-color="#E5A1D1"/>
<stop offset="1" stop-color="#E6A1D2"/>
</linearGradient>
<linearGradient id="paint9_linear_40_6336" x1="195.9" y1="374.081" x2="218.661" y2="310.936" gradientUnits="userSpaceOnUse">
<stop stop-color="#D9D9D9" stop-opacity="0.03"/>
<stop offset="0.643634" stop-color="#E5A1D1"/>
<stop offset="1" stop-color="#E6A1D2"/>
</linearGradient>
<linearGradient id="paint10_linear_40_6336" x1="259.875" y1="557.587" x2="295.46" y2="458.864" gradientUnits="userSpaceOnUse">
<stop stop-color="#D9D9D9" stop-opacity="0.03"/>
<stop offset="0.643634" stop-color="#29E3E1"/>
<stop offset="1" stop-color="#29E3E1"/>
</linearGradient>
<linearGradient id="paint11_linear_40_6336" x1="203.63" y1="775.087" x2="221.246" y2="726.217" gradientUnits="userSpaceOnUse">
<stop stop-color="#D9D9D9" stop-opacity="0.03"/>
<stop offset="0.643634" stop-color="#29E3E1"/>
<stop offset="1" stop-color="#29E3E1"/>
</linearGradient>
<linearGradient id="paint12_linear_40_6336" x1="80.8751" y1="515.588" x2="116.46" y2="416.865" gradientUnits="userSpaceOnUse">
<stop stop-color="#D9D9D9" stop-opacity="0.03"/>
<stop offset="0.643634" stop-color="#29E3E1"/>
<stop offset="1" stop-color="#29E3E1"/>
</linearGradient>
<linearGradient id="paint13_linear_40_6336" x1="261.341" y1="724.379" x2="289.581" y2="646.034" gradientUnits="userSpaceOnUse">
<stop stop-color="#D9D9D9" stop-opacity="0.03"/>
<stop offset="0.643634" stop-color="#29E3E1"/>
<stop offset="1" stop-color="#29E3E1"/>
</linearGradient>
<linearGradient id="paint14_linear_40_6336" x1="138.875" y1="460.587" x2="174.46" y2="361.864" gradientUnits="userSpaceOnUse">
<stop stop-color="#D9D9D9" stop-opacity="0.03"/>
<stop offset="0.643634" stop-color="#29E3E1"/>
<stop offset="1" stop-color="#29E3E1"/>
</linearGradient>
<linearGradient id="paint15_linear_40_6336" x1="95.8751" y1="591.587" x2="131.46" y2="492.864" gradientUnits="userSpaceOnUse">
<stop stop-color="#D9D9D9" stop-opacity="0.03"/>
<stop offset="0.643634" stop-color="#29E3E1"/>
<stop offset="1" stop-color="#29E3E1"/>
</linearGradient>
<linearGradient id="paint16_linear_40_6336" x1="162.875" y1="684.587" x2="198.46" y2="585.864" gradientUnits="userSpaceOnUse">
<stop stop-color="#D9D9D9" stop-opacity="0.03"/>
<stop offset="0.643634" stop-color="#29E3E1"/>
<stop offset="1" stop-color="#29E3E1"/>
</linearGradient>
<linearGradient id="paint17_linear_40_6336" x1="-20.0551" y1="604.566" x2="-7.98962" y2="571.094" gradientUnits="userSpaceOnUse">
<stop stop-color="#D9D9D9" stop-opacity="0.03"/>
<stop offset="0.643634" stop-color="#E5A1D1"/>
<stop offset="1" stop-color="#E6A1D2"/>
</linearGradient>
<linearGradient id="paint18_linear_40_6336" x1="280.136" y1="267.968" x2="309.104" y2="229.613" gradientUnits="userSpaceOnUse">
<stop stop-color="#D9D9D9" stop-opacity="0.03"/>
<stop offset="0.447115" stop-color="#7E82EB" stop-opacity="0.74"/>
<stop offset="1" stop-color="#7E82EB"/>
</linearGradient>
<linearGradient id="paint19_linear_40_6336" x1="143.505" y1="257.337" x2="172.473" y2="218.981" gradientUnits="userSpaceOnUse">
<stop stop-color="#D9D9D9" stop-opacity="0.03"/>
<stop offset="0.447115" stop-color="#7E82EB" stop-opacity="0.74"/>
<stop offset="1" stop-color="#7E82EB"/>
</linearGradient>
<linearGradient id="paint20_linear_40_6336" x1="291.021" y1="200.709" x2="272.619" y2="109.244" gradientUnits="userSpaceOnUse">
<stop stop-color="#D9D9D9" stop-opacity="0.03"/>
<stop offset="0.643634" stop-color="#29E3E1"/>
<stop offset="1" stop-color="#29E3E1"/>
</linearGradient>
<linearGradient id="paint21_linear_40_6336" x1="74.8516" y1="190.289" x2="149.699" y2="174.255" gradientUnits="userSpaceOnUse">
<stop stop-color="#29E3E1"/>
<stop offset="1" stop-color="#2D5761"/>
</linearGradient>
<linearGradient id="paint22_linear_40_6336" x1="117.433" y1="305.801" x2="96.8626" y2="212.035" gradientUnits="userSpaceOnUse">
<stop stop-color="#D9D9D9" stop-opacity="0.03"/>
<stop offset="0.643634" stop-color="#E5A1D1"/>
<stop offset="1" stop-color="#E6A1D2"/>
</linearGradient>
<radialGradient id="paint23_radial_40_6336" cx="0" cy="0" r="1" gradientUnits="userSpaceOnUse" gradientTransform="translate(82.6023 262.576) rotate(19.3532) scale(12.4226)">
<stop offset="0.240385"/>
<stop offset="0.541667" stop-color="#0E0E0E"/>
<stop offset="0.567708" stop-color="#0A0A0A"/>
<stop offset="0.604167" stop-color="#111111"/>
<stop offset="0.630208" stop-color="#030303"/>
<stop offset="0.692708" stop-color="#0A0A0A"/>
<stop offset="0.739583" stop-color="#0C0C0C"/>
<stop offset="0.776042" stop-color="#090909"/>
<stop offset="0.802083" stop-color="#070707"/>
<stop offset="0.838484" stop-color="#050505"/>
<stop offset="0.894232" stop-color="#0D0D0D"/>
<stop offset="0.921875" stop-color="#0C0C0C"/>
<stop offset="0.96875" stop-color="#0C0C0C"/>
<stop offset="1" stop-color="#F8F8F8"/>
</radialGradient>
<radialGradient id="paint24_radial_40_6336" cx="0" cy="0" r="1" gradientUnits="userSpaceOnUse" gradientTransform="translate(82.6023 262.576) rotate(19.3532) scale(12.4226)">
<stop offset="0.240385"/>
<stop offset="0.541667" stop-color="#0E0E0E"/>
<stop offset="0.567708" stop-color="#0A0A0A"/>
<stop offset="0.604167" stop-color="#111111"/>
<stop offset="0.630208" stop-color="#030303"/>
<stop offset="0.692708" stop-color="#0A0A0A"/>
<stop offset="0.739583" stop-color="#0C0C0C"/>
<stop offset="0.776042" stop-color="#090909"/>
<stop offset="0.802083" stop-color="#070707"/>
<stop offset="0.838484" stop-color="#050505"/>
<stop offset="0.894232" stop-color="#0D0D0D"/>
<stop offset="0.921875" stop-color="#0C0C0C"/>
<stop offset="0.96875" stop-color="#0C0C0C"/>
<stop offset="1" stop-color="#F8F8F8"/>
</radialGradient>
<linearGradient id="paint25_linear_40_6336" x1="185.592" y1="171.235" x2="220.399" y2="74.6703" gradientUnits="userSpaceOnUse">
<stop stop-color="#D9D9D9" stop-opacity="0.03"/>
<stop offset="0.643634" stop-color="#E5A1D1"/>
<stop offset="1" stop-color="#E6A1D2"/>
</linearGradient>
<radialGradient id="paint26_radial_40_6336" cx="0" cy="0" r="1" gradientUnits="userSpaceOnUse" gradientTransform="translate(201.889 137.965) rotate(-0.490819) scale(20.6644)">
<stop offset="0.240385"/>
<stop offset="0.541667" stop-color="#0E0E0E"/>
<stop offset="0.567708" stop-color="#0A0A0A"/>
<stop offset="0.604167" stop-color="#111111"/>
<stop offset="0.630208" stop-color="#030303"/>
<stop offset="0.692708" stop-color="#0A0A0A"/>
<stop offset="0.739583" stop-color="#0C0C0C"/>
<stop offset="0.776042" stop-color="#090909"/>
<stop offset="0.802083" stop-color="#070707"/>
<stop offset="0.838484" stop-color="#050505"/>
<stop offset="0.894232" stop-color="#0D0D0D"/>
<stop offset="0.921875" stop-color="#0C0C0C"/>
<stop offset="0.96875" stop-color="#0C0C0C"/>
<stop offset="1" stop-color="#F8F8F8"/>
</radialGradient>
<radialGradient id="paint27_radial_40_6336" cx="0" cy="0" r="1" gradientUnits="userSpaceOnUse" gradientTransform="translate(201.889 137.965) rotate(-0.490819) scale(20.6644)">
<stop offset="0.240385"/>
<stop offset="0.541667" stop-color="#0E0E0E"/>
<stop offset="0.567708" stop-color="#0A0A0A"/>
<stop offset="0.604167" stop-color="#111111"/>
<stop offset="0.630208" stop-color="#030303"/>
<stop offset="0.692708" stop-color="#0A0A0A"/>
<stop offset="0.739583" stop-color="#0C0C0C"/>
<stop offset="0.776042" stop-color="#090909"/>
<stop offset="0.802083" stop-color="#070707"/>
<stop offset="0.838484" stop-color="#050505"/>
<stop offset="0.894232" stop-color="#0D0D0D"/>
<stop offset="0.921875" stop-color="#0C0C0C"/>
<stop offset="0.96875" stop-color="#0C0C0C"/>
<stop offset="1" stop-color="#F8F8F8"/>
</radialGradient>
<linearGradient id="paint28_linear_40_6336" x1="225.091" y1="203.843" x2="205.936" y2="287.806" gradientUnits="userSpaceOnUse">
<stop stop-color="#D9D9D9" stop-opacity="0.03"/>
<stop offset="0.370809" stop-color="#BE8BFF" stop-opacity="0.62"/>
<stop offset="1" stop-color="#BE8BFF"/>
</linearGradient>
<radialGradient id="paint29_radial_40_6336" cx="0" cy="0" r="1" gradientUnits="userSpaceOnUse" gradientTransform="translate(215.209 256.913) rotate(-0.490819) scale(16.6496)">
<stop stop-color="#232323"/>
<stop offset="0.541667" stop-color="#A3A1A1"/>
<stop offset="0.567708" stop-color="#0A0A0A"/>
<stop offset="0.604167" stop-color="#111111"/>
<stop offset="0.630208" stop-color="#030303"/>
<stop offset="0.692708" stop-color="#0A0A0A"/>
<stop offset="0.739583" stop-color="#0C0C0C"/>
<stop offset="0.776042" stop-color="#090909"/>
<stop offset="0.802083" stop-color="#070707"/>
<stop offset="0.838484" stop-color="#050505"/>
<stop offset="0.894232" stop-color="#0D0D0D"/>
<stop offset="0.921875" stop-color="#0C0C0C"/>
<stop offset="0.96875" stop-color="#0C0C0C"/>
<stop offset="1" stop-color="white"/>
</radialGradient>
<radialGradient id="paint30_radial_40_6336" cx="0" cy="0" r="1" gradientUnits="userSpaceOnUse" gradientTransform="translate(215.209 256.913) rotate(-0.490819) scale(16.6496)">
<stop stop-color="#232323"/>
<stop offset="0.541667" stop-color="#A3A1A1"/>
<stop offset="0.567708" stop-color="#0A0A0A"/>
<stop offset="0.604167" stop-color="#111111"/>
<stop offset="0.630208" stop-color="#030303"/>
<stop offset="0.692708" stop-color="#0A0A0A"/>
<stop offset="0.739583" stop-color="#0C0C0C"/>
<stop offset="0.776042" stop-color="#090909"/>
<stop offset="0.802083" stop-color="#070707"/>
<stop offset="0.838484" stop-color="#050505"/>
<stop offset="0.894232" stop-color="#0D0D0D"/>
<stop offset="0.921875" stop-color="#0C0C0C"/>
<stop offset="0.96875" stop-color="#0C0C0C"/>
<stop offset="1" stop-color="white"/>
</radialGradient>
<clipPath id="clip0_40_6336">
<rect width="390" height="844" fill="white"/>
</clipPath>
</defs>
<g clip-path="url(#clip0_40_6336)">
<rect width="390" height="844" fill="#14161F"/>
<g opacity="0.62">
<circle cx="260.89" cy="470.307" r="40.9986" transform="rotate(-31.1976 260.89 470.307)" fill="url(#paint0_linear_40_6336)" fill-opacity="0.55"/>
<circle cx="261.307" cy="404.307" r="40.9986" transform="rotate(-31.1976 261.307 404.307)" fill="url(#paint1_linear_40_6336)" fill-opacity="0.55"/>
<circle cx="60.212" cy="605.82" r="31.4406" transform="rotate(-31.1976 60.212 605.82)" fill="url(#paint2_linear_40_6336)" fill-opacity="0.55"/>
<circle cx="283.458" cy="515.443" r="40.9986" transform="rotate(-31.1976 283.458 515.443)" fill="url(#paint3_linear_40_6336)" fill-opacity="0.55"/>
<circle cx="234.941" cy="598.94" r="65.489" transform="rotate(-31.1976 234.941 598.94)" fill="url(#paint4_linear_40_6336)" fill-opacity="0.55"/>
<circle cx="277.332" cy="330.012" r="21.0957" transform="rotate(15.9962 277.332 330.012)" fill="url(#paint5_linear_40_6336)" fill-opacity="0.55"/>
<circle cx="332.092" cy="348.092" r="21.0957" transform="rotate(15.9962 332.092 348.092)" fill="url(#paint6_linear_40_6336)" fill-opacity="0.55"/>
<circle cx="156.009" cy="301.637" r="16.1776" transform="rotate(15.9962 156.009 301.637)" fill="url(#paint7_linear_40_6336)" fill-opacity="0.55"/>
<circle cx="268.184" cy="354.313" r="21.0957" transform="rotate(15.9962 268.184 354.313)" fill="url(#paint8_linear_40_6336)" fill-opacity="0.55"/>
<circle cx="206.439" cy="351.545" r="33.6971" transform="rotate(122.686 206.439 351.545)" fill="url(#paint9_linear_40_6336)" fill-opacity="0.55"/>
<circle cx="276.353" cy="522.353" r="52.6824" transform="rotate(-31.1976 276.353 522.353)" fill="url(#paint10_linear_40_6336)" fill-opacity="0.55"/>
<circle cx="211.787" cy="757.645" r="26.0789" transform="rotate(-31.1976 211.787 757.645)" fill="url(#paint11_linear_40_6336)" fill-opacity="0.55"/>
<circle cx="97.3528" cy="480.353" r="52.6824" transform="rotate(-31.1976 97.3528 480.353)" fill="url(#paint12_linear_40_6336)" fill-opacity="0.55"/>
<circle cx="274.418" cy="696.418" r="41.8077" transform="rotate(-31.1976 274.418 696.418)" fill="url(#paint13_linear_40_6336)" fill-opacity="0.55"/>
<circle cx="155.353" cy="425.353" r="52.6824" transform="rotate(-31.1976 155.353 425.353)" fill="url(#paint14_linear_40_6336)" fill-opacity="0.55"/>
<circle cx="112.353" cy="556.353" r="52.6824" transform="rotate(-31.1976 112.353 556.353)" fill="url(#paint15_linear_40_6336)" fill-opacity="0.55"/>
<circle cx="179.353" cy="649.353" r="52.6824" transform="rotate(-31.1976 179.353 649.353)" fill="url(#paint16_linear_40_6336)" fill-opacity="0.55"/>
</g>
<circle cx="-14.4682" cy="592.62" r="17.8624" transform="rotate(-31.1976 -14.4682 592.62)" fill="url(#paint17_linear_40_6336)" fill-opacity="0.55"/>
<circle cx="290.917" cy="244.917" r="34.466" transform="rotate(12.2515 290.917 244.917)" fill="url(#paint18_linear_40_6336)" fill-opacity="0.55"/>
<circle cx="290.886" cy="243.769" r="17.4016" transform="rotate(43.4491 290.886 243.769)" fill="black"/>
<path d="M304.245 241.919C305.008 242.358 305.27 243.333 304.831 244.096L298.976 254.253C298.536 255.016 297.561 255.278 296.798 254.839L279.47 244.865C278.707 244.426 278.444 243.451 278.884 242.689L284.739 232.531C285.179 231.768 286.154 231.506 286.917 231.945L304.245 241.919ZM288.181 238.952C287.277 238.432 286.143 238.706 285.648 239.565C285.153 240.424 285.485 241.541 286.389 242.062C287.292 242.582 288.426 242.308 288.921 241.449C289.416 240.59 289.084 239.473 288.181 238.952ZM297.999 244.604C297.095 244.084 295.962 244.358 295.467 245.217C294.972 246.075 295.303 247.193 296.207 247.713C297.111 248.233 298.245 247.959 298.74 247.1C299.234 246.242 298.903 245.124 297.999 244.604Z" fill="black"/>
<path d="M297.24 254.072L296.798 254.839L279.47 244.866L279.912 244.098L297.24 254.072ZM298.208 253.812L304.063 243.654C304.252 243.326 304.149 242.909 303.834 242.706L303.803 242.687L286.475 232.713C286.135 232.518 285.702 232.634 285.507 232.973L279.652 243.131C279.456 243.47 279.573 243.903 279.912 244.098L279.47 244.866C278.707 244.426 278.444 243.452 278.884 242.689L284.739 232.532C285.179 231.769 286.154 231.506 286.917 231.946L304.245 241.919C305.008 242.359 305.27 243.333 304.831 244.096L298.976 254.253C298.536 255.016 297.561 255.279 296.798 254.839L297.24 254.072C297.579 254.267 298.013 254.151 298.208 253.812ZM288.921 241.449C289.416 240.591 289.084 239.473 288.181 238.953C287.277 238.433 286.143 238.707 285.648 239.565C285.153 240.424 285.485 241.542 286.389 242.062C287.292 242.582 288.426 242.308 288.921 241.449ZM298.74 247.101C299.219 246.269 298.923 245.194 298.082 244.655L297.999 244.604C297.095 244.084 295.962 244.358 295.467 245.217C294.972 246.075 295.303 247.193 296.207 247.713C297.111 248.234 298.245 247.959 298.74 247.101ZM289.689 241.891C288.929 243.21 287.237 243.572 285.946 242.829C284.656 242.087 284.12 240.442 284.88 239.124C285.641 237.805 287.333 237.443 288.623 238.185C289.913 238.928 290.449 240.572 289.689 241.891ZM299.507 247.543C298.747 248.861 297.055 249.224 295.765 248.481C294.474 247.738 293.939 246.094 294.699 244.775C295.459 243.456 297.151 243.094 298.442 243.837C299.732 244.58 300.267 246.224 299.507 247.543Z" fill="#7F7E7E"/>
<path d="M289.568 233.983L300.782 240.549L300.496 241.038C299.81 242.209 298.361 242.634 297.258 241.988L290.038 237.76C288.935 237.114 288.597 235.642 289.282 234.472L289.568 233.983Z" fill="#7F7E7E"/>
<circle cx="154.286" cy="234.286" r="34.466" transform="rotate(-41.8751 154.286 234.286)" fill="url(#paint19_linear_40_6336)" fill-opacity="0.55"/>
<circle cx="153.337" cy="233.638" r="17.4016" transform="rotate(-10.6775 153.337 233.638)" fill="black"/>
<path d="M159.666 221.729C160.47 221.368 161.413 221.726 161.773 222.53L166.573 233.226C166.934 234.029 166.575 234.973 165.772 235.334L147.536 243.531C146.733 243.892 145.789 243.533 145.429 242.73L140.629 232.033C140.268 231.23 140.627 230.286 141.43 229.925L159.666 221.729ZM147.849 233.007C146.898 233.435 146.456 234.514 146.861 235.419C147.267 236.323 148.367 236.709 149.318 236.281C150.269 235.854 150.712 234.774 150.306 233.87C149.9 232.966 148.8 232.58 147.849 233.007ZM158.182 228.363C157.231 228.791 156.789 229.87 157.194 230.774C157.6 231.678 158.7 232.065 159.651 231.637C160.602 231.21 161.044 230.13 160.639 229.226C160.233 228.322 159.133 227.936 158.182 228.363Z" fill="black"/>
<path d="M165.409 234.526L165.772 235.335L147.536 243.531L147.173 242.723L165.409 234.526ZM165.765 233.589L160.966 222.893C160.811 222.547 160.412 222.387 160.063 222.523L160.029 222.537L141.793 230.733C141.436 230.894 141.277 231.313 141.437 231.67L146.237 242.367C146.397 242.724 146.816 242.883 147.173 242.723L147.536 243.531C146.733 243.892 145.789 243.533 145.429 242.73L140.629 232.034C140.269 231.23 140.627 230.286 141.431 229.925L159.667 221.729C160.47 221.368 161.413 221.726 161.774 222.53L166.573 233.226C166.934 234.03 166.575 234.974 165.772 235.335L165.409 234.526C165.766 234.366 165.926 233.946 165.765 233.589ZM150.306 233.87C149.9 232.966 148.8 232.58 147.849 233.008C146.898 233.435 146.456 234.515 146.862 235.419C147.267 236.323 148.367 236.709 149.318 236.282C150.27 235.854 150.712 234.775 150.306 233.87ZM160.639 229.226C160.246 228.35 159.202 227.96 158.272 228.325L158.182 228.363C157.231 228.791 156.789 229.87 157.195 230.774C157.6 231.678 158.7 232.065 159.652 231.637C160.603 231.21 161.045 230.13 160.639 229.226ZM151.114 233.507C151.737 234.896 151.039 236.479 149.681 237.09C148.323 237.7 146.677 237.171 146.054 235.782C145.43 234.393 146.129 232.81 147.487 232.199C148.845 231.589 150.491 232.118 151.114 233.507ZM161.447 228.863C162.07 230.252 161.372 231.835 160.014 232.445C158.656 233.056 157.01 232.526 156.387 231.137C155.763 229.749 156.462 228.165 157.82 227.555C159.178 226.945 160.824 227.474 161.447 228.863Z" fill="#7F7E7E"/>
<path d="M144.635 228.97L156.527 223.732L156.756 224.251C157.302 225.492 156.797 226.915 155.628 227.431L147.971 230.803C146.801 231.318 145.41 230.73 144.863 229.489L144.635 228.97Z" fill="#7F7E7E"/>
<path d="M327.39 142.064C340.789 164.191 333.714 192.991 311.587 206.39C289.46 219.789 260.661 212.714 247.261 190.587C233.862 168.46 240.937 139.661 263.064 126.261C285.191 112.862 313.991 119.937 327.39 142.064Z" fill="url(#paint20_linear_40_6336)" fill-opacity="0.55"/>
<path d="M305.037 166.06C305.037 176.548 296.535 185.05 286.047 185.05C275.559 185.05 267.057 176.548 267.057 166.06C267.057 155.572 275.559 147.07 286.047 147.07C296.535 147.07 305.037 155.572 305.037 166.06Z" fill="#555555"/>
<path d="M305.036 166.06C305.036 155.736 296.798 147.336 286.537 147.076L286.047 147.07C275.559 147.07 267.057 155.572 267.057 166.06L267.063 166.55C267.319 176.648 275.458 184.787 285.556 185.043L286.047 185.05C296.371 185.049 304.77 176.811 305.03 166.55L305.036 166.06ZM315.585 166.06C315.585 182.374 302.36 195.598 286.047 195.598C269.733 195.598 256.508 182.374 256.508 166.06C256.508 149.746 269.733 136.521 286.047 136.521C302.361 136.521 315.585 149.746 315.585 166.06Z" fill="black"/>
<path d="M293.728 154.726L280.752 158.558C280.489 158.64 280.259 158.805 280.095 159.027C279.932 159.25 279.844 159.519 279.843 159.795V170.396C279.419 170.293 278.983 170.24 278.546 170.237C276.397 170.237 274.653 171.399 274.653 172.833C274.653 174.266 276.397 175.428 278.546 175.428C280.695 175.428 282.439 174.266 282.439 172.833V163.356L292.82 160.314V167.801C292.395 167.698 291.96 167.644 291.522 167.642C289.373 167.642 287.629 168.804 287.629 170.237C287.629 171.67 289.373 172.833 291.522 172.833C293.672 172.833 295.415 171.671 295.415 170.237V155.962C295.415 155.758 295.367 155.558 295.275 155.376C295.183 155.194 295.049 155.037 294.885 154.917C294.72 154.796 294.53 154.716 294.329 154.683C294.128 154.65 293.922 154.664 293.728 154.726Z" fill="#D9D9D9"/>
<path d="M104.258 144.848C124.926 140.421 145.271 153.586 149.699 174.255C154.126 194.923 140.961 215.268 120.292 219.695C99.6237 224.123 79.2793 210.957 74.8516 190.289C70.4239 169.621 83.5896 149.276 104.258 144.848Z" fill="url(#paint21_linear_40_6336)"/>
<path d="M126.387 182.724C126.387 190.693 119.927 197.154 111.957 197.154C103.988 197.154 97.5271 190.693 97.5271 182.724C97.5271 174.754 103.988 168.294 111.957 168.294C119.927 168.294 126.387 174.754 126.387 182.724Z" fill="#555555"/>
<path d="M126.387 182.724C126.387 174.879 120.126 168.496 112.329 168.299L111.957 168.294C103.987 168.294 97.5267 174.754 97.5267 182.724L97.5315 183.096C97.7259 190.77 103.911 196.955 111.584 197.149L111.957 197.154C119.802 197.154 126.184 190.894 126.382 183.096L126.387 182.724ZM136.935 182.724C136.935 196.519 125.752 207.702 111.957 207.702C98.1614 207.702 86.978 196.519 86.978 182.724C86.978 168.928 98.1614 157.745 111.957 157.745C125.752 157.745 136.935 168.928 136.935 182.724Z" fill="black"/>
<path d="M126.387 182.724C126.387 190.693 119.926 197.154 111.957 197.154C103.987 197.154 97.5269 190.693 97.5269 182.724C97.5269 174.754 103.987 168.294 111.957 168.294C119.926 168.294 126.387 174.754 126.387 182.724Z" fill="#555555"/>
<path d="M126.386 182.724C126.386 174.879 120.126 168.496 112.329 168.298L111.956 168.294C103.987 168.294 97.5265 174.754 97.5265 182.724L97.5312 183.096C97.7257 190.77 103.91 196.955 111.584 197.149L111.956 197.154C119.801 197.154 126.184 190.893 126.382 183.096L126.386 182.724ZM136.935 182.724C136.935 196.519 125.752 207.702 111.956 207.702C98.1611 207.702 86.9778 196.519 86.9778 182.724C86.9778 168.928 98.1611 157.745 111.956 157.745C125.752 157.745 136.935 168.928 136.935 182.724Z" fill="black"/>
<path d="M117.793 174.111L107.933 177.023C107.733 177.086 107.558 177.211 107.434 177.38C107.31 177.549 107.243 177.753 107.243 177.963V186.019C106.92 185.94 106.589 185.9 106.257 185.898C104.624 185.898 103.299 186.781 103.299 187.87C103.299 188.959 104.624 189.842 106.257 189.842C107.89 189.842 109.215 188.959 109.215 187.87V180.669L117.103 178.358V184.047C116.78 183.968 116.449 183.928 116.117 183.926C114.484 183.926 113.159 184.809 113.159 185.898C113.159 186.987 114.484 187.87 116.117 187.87C117.75 187.87 119.075 186.987 119.075 185.898V175.051C119.075 174.896 119.039 174.743 118.969 174.605C118.898 174.467 118.797 174.348 118.672 174.256C118.547 174.165 118.402 174.104 118.25 174.079C118.097 174.054 117.941 174.065 117.793 174.111Z" fill="#D9D9D9"/>
<circle cx="81.9415" cy="261.613" r="41.1396" transform="rotate(34.0836 81.9415 261.613)" fill="url(#paint22_linear_40_6336)" fill-opacity="0.99"/>
<circle cx="82.5796" cy="262.528" r="16.4347" transform="rotate(19.844 82.5796 262.528)" fill="#272727"/>
<path d="M86.7191 250.856C93.1922 253.129 96.5966 260.22 94.323 266.693C92.0494 273.166 84.9587 276.571 78.4856 274.297C72.0124 272.023 68.608 264.933 70.8816 258.459C73.1552 251.986 80.2459 248.582 86.7191 250.856ZM81.9413 264.065C82.8512 264.385 83.8478 263.906 84.1674 262.996C84.487 262.086 84.0084 261.09 83.0986 260.77C82.1887 260.45 81.1921 260.929 80.8725 261.839C80.5529 262.749 81.0314 263.745 81.9413 264.065Z" fill="white"/>
<path d="M86.7191 250.856C93.1922 253.129 96.5966 260.22 94.323 266.693C92.0494 273.166 84.9587 276.571 78.4856 274.297C72.0124 272.023 68.608 264.933 70.8816 258.459C73.1552 251.986 80.2459 248.582 86.7191 250.856ZM81.9413 264.065C82.8512 264.385 83.8478 263.906 84.1674 262.996C84.487 262.086 84.0084 261.09 83.0986 260.77C82.1887 260.45 81.1921 260.929 80.8725 261.839C80.5529 262.749 81.0314 263.745 81.9413 264.065Z" fill="url(#paint23_radial_40_6336)" fill-opacity="0.7"/>
<path d="M86.7191 250.856C93.1922 253.129 96.5966 260.22 94.323 266.693C92.0494 273.166 84.9587 276.571 78.4856 274.297C72.0124 272.023 68.608 264.933 70.8816 258.459C73.1552 251.986 80.2459 248.582 86.7191 250.856ZM81.9413 264.065C82.8512 264.385 83.8478 263.906 84.1674 262.996C84.487 262.086 84.0084 261.09 83.0986 260.77C82.1887 260.45 81.1921 260.929 80.8725 261.839C80.5529 262.749 81.0314 263.745 81.9413 264.065Z" fill="white"/>
<path d="M86.7191 250.856C93.1922 253.129 96.5966 260.22 94.323 266.693C92.0494 273.166 84.9587 276.571 78.4856 274.297C72.0124 272.023 68.608 264.933 70.8816 258.459C73.1552 251.986 80.2459 248.582 86.7191 250.856ZM81.9413 264.065C82.8512 264.385 83.8478 263.906 84.1674 262.996C84.487 262.086 84.0084 261.09 83.0986 260.77C82.1887 260.45 81.1921 260.929 80.8725 261.839C80.5529 262.749 81.0314 263.745 81.9413 264.065Z" fill="url(#paint24_radial_40_6336)" fill-opacity="0.7"/>
<path d="M95.8018 253.089C96.2716 253.273 96.5037 253.802 96.3202 254.272L92.934 262.943C92.4877 264.086 91.5463 264.964 90.3753 265.33L87.3918 266.261C86.9104 266.412 86.3983 266.143 86.2479 265.662C86.0975 265.18 86.3659 264.668 86.8474 264.518L89.2652 263.763C90.2642 263.451 91.0672 262.702 91.4479 261.727L94.6188 253.608C94.8023 253.138 95.3319 252.906 95.8018 253.089Z" fill="#D7D7D7"/>
<circle cx="201.709" cy="136.771" r="51.5307" transform="rotate(-31.1976 201.709 136.771)" fill="url(#paint25_linear_40_6336)" fill-opacity="0.99"/>
<circle cx="201.827" cy="137.902" r="27.3383" fill="#272727"/>
<path d="M201.712 117.301C213.125 117.203 222.455 126.376 222.553 137.788C222.651 149.2 213.479 158.531 202.066 158.629C190.654 158.726 181.324 149.554 181.226 138.142C181.128 126.73 190.3 117.399 201.712 117.301ZM201.696 140.667C203.3 140.654 204.589 139.342 204.575 137.738C204.562 136.134 203.25 134.845 201.646 134.858C200.042 134.872 198.753 136.184 198.766 137.788C198.78 139.392 200.092 140.681 201.696 140.667Z" fill="white"/>
<path d="M201.712 117.301C213.125 117.203 222.455 126.376 222.553 137.788C222.651 149.2 213.479 158.531 202.066 158.629C190.654 158.726 181.324 149.554 181.226 138.142C181.128 126.73 190.3 117.399 201.712 117.301ZM201.696 140.667C203.3 140.654 204.589 139.342 204.575 137.738C204.562 136.134 203.25 134.845 201.646 134.858C200.042 134.872 198.753 136.184 198.766 137.788C198.78 139.392 200.092 140.681 201.696 140.667Z" fill="url(#paint26_radial_40_6336)" fill-opacity="0.7"/>
<path d="M201.712 117.301C213.125 117.203 222.455 126.376 222.553 137.788C222.651 149.2 213.479 158.531 202.066 158.629C190.654 158.726 181.324 149.554 181.226 138.142C181.128 126.73 190.3 117.399 201.712 117.301ZM201.696 140.667C203.3 140.654 204.589 139.342 204.575 137.738C204.562 136.134 203.25 134.845 201.646 134.858C200.042 134.872 198.753 136.184 198.766 137.788C198.78 139.392 200.092 140.681 201.696 140.667Z" fill="white"/>
<path d="M201.712 117.301C213.125 117.203 222.455 126.376 222.553 137.788C222.651 149.2 213.479 158.531 202.066 158.629C190.654 158.726 181.324 149.554 181.226 138.142C181.128 126.73 190.3 117.399 201.712 117.301ZM201.696 140.667C203.3 140.654 204.589 139.342 204.575 137.738C204.562 136.134 203.25 134.845 201.646 134.858C200.042 134.872 198.753 136.184 198.766 137.788C198.78 139.392 200.092 140.681 201.696 140.667Z" fill="url(#paint27_radial_40_6336)" fill-opacity="0.7"/>
<path d="M217.185 115.667C218.024 115.689 218.686 116.386 218.664 117.225L218.262 132.705C218.209 134.745 217.232 136.65 215.606 137.884L211.464 141.026C210.796 141.533 209.843 141.402 209.336 140.734C208.829 140.066 208.959 139.112 209.628 138.605L212.985 136.059C214.372 135.006 215.205 133.381 215.25 131.641L215.627 117.146C215.649 116.307 216.346 115.645 217.185 115.667Z" fill="#D7D7D7"/>
<circle cx="214.434" cy="257.418" r="43.2343" transform="rotate(117.592 214.434 257.418)" fill="url(#paint28_linear_40_6336)" fill-opacity="0.83"/>
<circle cx="214.783" cy="257.327" r="23.0803" fill="black"/>
<path d="M215.066 240.264C224.261 240.185 231.779 247.575 231.858 256.77C231.936 265.965 224.546 273.483 215.351 273.562C206.156 273.641 198.638 266.251 198.56 257.056C198.481 247.861 205.871 240.343 215.066 240.264ZM215.281 265.371C219.952 265.331 223.706 261.512 223.666 256.841C223.626 252.169 219.807 248.415 215.136 248.455C210.465 248.495 206.711 252.314 206.751 256.985C206.791 261.656 210.61 265.411 215.281 265.371Z" fill="white"/>
<path d="M215.066 240.264C224.261 240.185 231.779 247.575 231.858 256.77C231.936 265.965 224.546 273.483 215.351 273.562C206.156 273.641 198.638 266.251 198.56 257.056C198.481 247.861 205.871 240.343 215.066 240.264ZM215.281 265.371C219.952 265.331 223.706 261.512 223.666 256.841C223.626 252.169 219.807 248.415 215.136 248.455C210.465 248.495 206.711 252.314 206.751 256.985C206.791 261.656 210.61 265.411 215.281 265.371Z" fill="url(#paint29_radial_40_6336)" fill-opacity="0.7"/>
<path d="M215.066 240.264C224.261 240.185 231.779 247.575 231.858 256.77C231.936 265.965 224.546 273.483 215.351 273.562C206.156 273.641 198.638 266.251 198.56 257.056C198.481 247.861 205.871 240.343 215.066 240.264ZM215.281 265.371C219.952 265.331 223.706 261.512 223.666 256.841C223.626 252.169 219.807 248.415 215.136 248.455C210.465 248.495 206.711 252.314 206.751 256.985C206.791 261.656 210.61 265.411 215.281 265.371Z" fill="white"/>
<path d="M215.066 240.264C224.261 240.185 231.779 247.575 231.858 256.77C231.936 265.965 224.546 273.483 215.351 273.562C206.156 273.641 198.638 266.251 198.56 257.056C198.481 247.861 205.871 240.343 215.066 240.264ZM215.281 265.371C219.952 265.331 223.706 261.512 223.666 256.841C223.626 252.169 219.807 248.415 215.136 248.455C210.465 248.495 206.711 252.314 206.751 256.985C206.791 261.656 210.61 265.411 215.281 265.371Z" fill="url(#paint30_radial_40_6336)" fill-opacity="0.7"/>
<circle cx="215.202" cy="256.908" r="3.35713" fill="#D9D9D9"/>
</g>
</svg>
