<svg width="61" height="69" viewBox="293 368 61 69" fill="none" xmlns="http://www.w3.org/2000/svg">
<path d="M312.213 368C312.213 368 319.463 368.004 323.333 368.333C329.408 368.849 332.862 370.881 339.135 371.332C343.036 371.613 347.779 371.332 347.779 371.332L353.089 384.64C353.037 384.655 344.613 387.074 336.208 384.64C332.568 383.586 328.653 383.031 325.379 382.74L332.031 401.763C335.023 405.407 336.812 410.027 336.812 415.054C336.812 426.825 327.005 436.368 314.906 436.368C302.808 436.368 293 426.825 293 415.054C293 403.282 302.808 393.739 314.906 393.739C317.303 393.739 319.609 394.115 321.768 394.807L313.724 371.877L313.731 371.875L312.213 368Z" fill="#FCAFE4"/>
<path d="M327 412.768C328.333 413.538 328.333 415.462 327 416.232L311.25 425.325C309.917 426.095 308.25 425.133 308.25 423.593L308.25 405.407C308.25 403.867 309.917 402.905 311.25 403.675L327 412.768Z" fill="#313131"/>
</svg>
