<svg width="738" height="608" viewBox="0 0 738 608" fill="none" xmlns="http://www.w3.org/2000/svg">
<defs>
<linearGradient id="ai-enter-paint9_linear_525_984" x1="847.278" y1="51.3653" x2="772.585" y2="120.759" gradientUnits="userSpaceOnUse">
<stop stop-color="#29E3E1"/>
<stop offset="0.504808" stop-color="#B674F9" stop-opacity="0.44"/>
<stop offset="0.995192" stop-color="#FCAFE4" stop-opacity="0"/>
</linearGradient>
<radialGradient id="ai-enter-paint10_radial_525_984" cx="0" cy="0" r="1" gradientUnits="userSpaceOnUse" gradientTransform="translate(805.064 89.5539) rotate(-0.490819) scale(22.3627 22.3627)">
<stop offset="0.604167" stop-color="#111111"/>
<stop offset="0.630208" stop-color="#030303"/>
<stop offset="0.692708" stop-color="#0A0A0A"/>
<stop offset="0.739583" stop-color="#0C0C0C"/>
<stop offset="0.776042" stop-color="#090909"/>
<stop offset="0.802083" stop-color="#070707"/>
<stop offset="0.838484" stop-color="#050505"/>
<stop offset="0.894232" stop-color="#0D0D0D"/>
<stop offset="0.921875" stop-color="#0C0C0C"/>
<stop offset="0.96875" stop-color="#0C0C0C"/>
<stop offset="1" stop-color="white"/>
</radialGradient>
<radialGradient id="ai-enter-paint11_radial_525_984" cx="0" cy="0" r="1" gradientUnits="userSpaceOnUse" gradientTransform="translate(805.064 89.5539) rotate(-0.490819) scale(22.3627 22.3627)">
<stop offset="0.604167" stop-color="#111111"/>
<stop offset="0.630208" stop-color="#030303"/>
<stop offset="0.692708" stop-color="#0A0A0A"/>
<stop offset="0.739583" stop-color="#0C0C0C"/>
<stop offset="0.776042" stop-color="#090909"/>
<stop offset="0.802083" stop-color="#070707"/>
<stop offset="0.838484" stop-color="#050505"/>
<stop offset="0.894232" stop-color="#0D0D0D"/>
<stop offset="0.921875" stop-color="#0C0C0C"/>
<stop offset="0.96875" stop-color="#0C0C0C"/>
<stop offset="1" stop-color="white"/>
</radialGradient>
</defs>
<g transform="translate(244.815 301.576) scale(1.89377778) translate(-805.624 -90.1131)">
<ellipse cx="805.624" cy="90.1131" rx="54" ry="54" transform="rotate(-102.091 805.624 90.1131)" fill="url(#ai-enter-paint9_linear_525_984)" stroke="#CECECE"/>
<circle cx="805.511" cy="90" r="31" fill="black"/>
<path d="M804.872 67.192C817.222 67.0862 827.32 77.0122 827.426 89.3624C827.532 101.713 817.606 111.81 805.255 111.916C792.905 112.022 782.808 102.096 782.702 89.7455C782.596 77.3954 792.522 67.2978 804.872 67.192Z" fill="white"/>
<path d="M804.872 67.192C817.222 67.0862 827.32 77.0122 827.426 89.3624C827.532 101.713 817.606 111.81 805.255 111.916C792.905 112.022 782.808 102.096 782.702 89.7455C782.596 77.3954 792.522 67.2978 804.872 67.192Z" fill="url(#ai-enter-paint10_radial_525_984)" fill-opacity="0.7"/>
<path d="M804.872 67.192C817.222 67.0862 827.32 77.0122 827.426 89.3624C827.532 101.713 817.606 111.81 805.255 111.916C792.905 112.022 782.808 102.096 782.702 89.7455C782.596 77.3954 792.522 67.2978 804.872 67.192Z" fill="white"/>
<path d="M804.872 67.192C817.222 67.0862 827.32 77.0122 827.426 89.3624C827.532 101.713 817.606 111.81 805.255 111.916C792.905 112.022 782.808 102.096 782.702 89.7455C782.596 77.3954 792.522 67.2978 804.872 67.192Z" fill="url(#ai-enter-paint11_radial_525_984)" fill-opacity="0.7"/>
<path d="M806.473 78.6505C806.803 77.761 808.061 77.761 808.39 78.6505L811.545 87.1789C811.649 87.4585 811.869 87.679 812.149 87.7824L820.677 90.9382C821.567 91.2674 821.567 92.5254 820.677 92.8545L812.149 96.0103C811.869 96.1138 811.649 96.3342 811.545 96.6139L808.39 105.142C808.061 106.032 806.803 106.032 806.473 105.142L803.318 96.6139C803.214 96.3342 802.994 96.1138 802.714 96.0103L794.186 92.8545C793.296 92.5254 793.296 91.2674 794.186 90.9382L802.714 87.7824C802.994 87.679 803.214 87.4585 803.318 87.1789L806.473 78.6505Z" fill="black"/>
<path d="M806.473 78.6505C806.803 77.761 808.06 77.761 808.39 78.6505L811.545 87.1788C811.649 87.4585 811.869 87.679 812.149 87.7825L820.677 90.9382C821.567 91.2674 821.567 92.5254 820.677 92.8545L812.149 96.0103L812.097 96.031C811.842 96.1415 811.642 96.3517 811.545 96.6139L808.39 105.142L808.374 105.183C808.021 106.031 806.797 106.018 806.473 105.142L803.318 96.6139C803.221 96.3517 803.021 96.1415 802.766 96.031L802.714 96.0103L794.186 92.8545C793.296 92.5253 793.296 91.2674 794.186 90.9382L802.714 87.7825C802.976 87.6855 803.186 87.4856 803.297 87.2305L803.318 87.1788L806.473 78.6505ZM807.794 78.8709C807.669 78.5348 807.194 78.5347 807.069 78.8709L803.914 87.3993C803.746 87.8529 803.388 88.2106 802.934 88.3784L794.406 91.5341C794.07 91.6586 794.07 92.1341 794.406 92.2586L802.934 95.4143C803.388 95.5822 803.746 95.9398 803.914 96.3934L807.069 104.922C807.194 105.258 807.669 105.258 807.794 104.922L810.949 96.3934C811.117 95.9398 811.475 95.5822 811.929 95.4143L820.457 92.2586C820.793 92.1342 820.793 91.6586 820.457 91.5341L811.929 88.3784C811.475 88.2106 811.117 87.8529 810.949 87.3993L807.794 78.8709Z" fill="#D8D8D8"/>
<path d="M796.349 75.284C796.47 74.9574 796.932 74.9574 797.053 75.284L798.211 78.4152C798.249 78.5178 798.33 78.5988 798.433 78.6368L801.564 79.7954C801.891 79.9163 801.891 80.3781 801.564 80.499L798.433 81.6576C798.33 81.6956 798.249 81.7765 798.211 81.8792L797.053 85.0104C796.932 85.337 796.47 85.337 796.349 85.0104L795.19 81.8792C795.152 81.7765 795.072 81.6956 794.969 81.6576L791.838 80.499C791.511 80.3781 791.511 79.9163 791.838 79.7954L794.969 78.6368C795.072 78.5988 795.152 78.5178 795.19 78.4152L796.349 75.284Z" fill="black"/>
<path d="M796.349 75.284C796.47 74.9574 796.932 74.9574 797.053 75.284L798.211 78.4151C798.249 78.5178 798.33 78.5988 798.433 78.6367L801.564 79.7954C801.891 79.9162 801.891 80.3782 801.564 80.499L798.433 81.6576L798.396 81.6737C798.311 81.7161 798.245 81.7894 798.211 81.8792L797.053 85.0104L797.026 85.0679C796.885 85.3178 796.516 85.3178 796.375 85.0679L796.349 85.0104L795.191 81.8792C795.157 81.7894 795.091 81.7161 795.006 81.6737L794.969 81.6576L791.838 80.499C791.532 80.3857 791.512 79.9725 791.78 79.8217L791.838 79.7954L794.969 78.6367C795.059 78.6035 795.132 78.5373 795.174 78.4525L795.191 78.4151L796.349 75.284ZM795.542 78.5452C795.466 78.7505 795.304 78.9124 795.099 78.9884L791.968 80.147L795.099 81.3056C795.304 81.3816 795.466 81.5436 795.542 81.7488L796.701 84.8804L797.859 81.7488C797.935 81.5436 798.097 81.3816 798.303 81.3056L801.434 80.147L798.303 78.9884C798.097 78.9124 797.935 78.7505 797.859 78.5452L796.701 75.414L795.542 78.5452Z" fill="#D8D8D8"/>
</g>
</svg>
