<svg width="738" height="608" viewBox="0 0 738 608" fill="none" xmlns="http://www.w3.org/2000/svg">
<path d="M69.804 341.711C49.2534 245.781 110.36 151.355 206.289 130.804C302.219 110.253 396.646 171.361 417.196 267.29C437.747 363.22 376.639 457.646 280.71 478.196C184.78 498.747 90.3547 437.64 69.804 341.711Z" fill="url(#paint0_linear_523_627)" stroke="#CECECE"/>
<ellipse cx="244.815" cy="301.576" rx="102.264" ry="102.264" fill="black"/>
<path d="M246.005 229.634C286.746 229.285 320.057 262.029 320.406 302.771C320.755 343.512 288.01 376.822 247.269 377.171C206.528 377.52 173.218 344.776 172.869 304.034C172.52 263.293 205.264 229.983 246.005 229.634Z" fill="white"/>
<path d="M246.005 229.634C286.746 229.285 320.057 262.029 320.406 302.771C320.755 343.512 288.01 376.822 247.269 377.171C206.528 377.52 173.218 344.776 172.869 304.034C172.52 263.293 205.264 229.983 246.005 229.634Z" fill="url(#paint1_radial_523_627)" fill-opacity="0.7"/>
<path d="M246.005 229.634C286.746 229.285 320.057 262.029 320.406 302.771C320.755 343.512 288.01 376.822 247.269 377.171C206.528 377.52 173.218 344.776 172.869 304.034C172.52 263.293 205.264 229.983 246.005 229.634Z" fill="white"/>
<path d="M246.005 229.634C286.746 229.285 320.057 262.029 320.406 302.771C320.755 343.512 288.01 376.822 247.269 377.171C206.528 377.52 173.218 344.776 172.869 304.034C172.52 263.293 205.264 229.983 246.005 229.634Z" fill="url(#paint2_radial_523_627)" fill-opacity="0.7"/>
<path d="M244.986 263.002C246.048 260.13 250.11 260.13 251.173 263.002L261.363 290.54C261.697 291.443 262.409 292.155 263.312 292.489L290.85 302.679C293.722 303.742 293.722 307.804 290.85 308.867L263.312 319.057C262.409 319.391 261.697 320.103 261.363 321.006L251.173 348.544C250.11 351.416 246.048 351.416 244.986 348.544L234.795 321.006C234.461 320.103 233.749 319.391 232.846 319.057L205.308 308.867C202.436 307.804 202.436 303.742 205.308 302.679L232.846 292.489C233.749 292.155 234.461 291.443 234.795 290.54L244.986 263.002Z" fill="black"/>
<path d="M244.986 263.002C246.048 260.13 250.11 260.13 251.173 263.002L261.363 290.54C261.697 291.443 262.409 292.155 263.312 292.489L290.85 302.679C293.722 303.742 293.722 307.804 290.85 308.866L263.312 319.057L263.145 319.124C262.322 319.48 261.677 320.159 261.363 321.006L251.173 348.544L251.121 348.676C249.984 351.415 246.032 351.371 244.986 348.544L234.796 321.006C234.482 320.159 233.837 319.48 233.013 319.124L232.846 319.057L205.308 308.866C202.436 307.804 202.436 303.742 205.308 302.679L232.846 292.489C233.693 292.176 234.372 291.53 234.728 290.707L234.796 290.54L244.986 263.002ZM249.57 263.595C249.058 262.212 247.101 262.212 246.589 263.595L236.399 291.133C235.892 292.504 234.811 293.585 233.44 294.092L205.902 304.282C204.518 304.794 204.518 306.751 205.902 307.263L233.44 317.453C234.811 317.96 235.892 319.041 236.399 320.412L246.589 347.95C247.101 349.334 249.058 349.334 249.57 347.95L259.76 320.412C260.267 319.041 261.348 317.96 262.719 317.453L290.257 307.263C291.64 306.751 291.64 304.794 290.257 304.282L262.719 294.092C261.348 293.585 260.267 292.504 259.76 291.133L249.57 263.595Z" fill="#D8D8D8"/>
<path d="M212.299 252.136C212.689 251.081 214.18 251.081 214.571 252.136L218.312 262.246C218.434 262.578 218.696 262.839 219.027 262.962L229.138 266.703C230.192 267.093 230.192 268.585 229.138 268.975L219.027 272.716C218.696 272.839 218.434 273.1 218.312 273.432L214.571 283.542C214.18 284.597 212.689 284.597 212.299 283.542L208.557 273.432C208.435 273.1 208.173 272.839 207.842 272.716L197.731 268.975C196.677 268.585 196.677 267.093 197.731 266.703L207.842 262.962C208.173 262.839 208.435 262.578 208.557 262.246L212.299 252.136Z" fill="black"/>
<path d="M212.299 252.136C212.689 251.081 214.181 251.081 214.571 252.136L218.312 262.246C218.435 262.577 218.696 262.839 219.028 262.962L229.138 266.703C230.192 267.093 230.192 268.585 229.138 268.975L219.028 272.716L218.907 272.768C218.633 272.905 218.419 273.141 218.312 273.432L214.571 283.542L214.484 283.728C214.03 284.535 212.838 284.535 212.384 283.728L212.299 283.542L208.558 273.432C208.45 273.142 208.236 272.905 207.963 272.768L207.842 272.716L197.732 268.975C196.743 268.609 196.681 267.275 197.546 266.788L197.732 266.703L207.842 262.962C208.132 262.854 208.369 262.641 208.506 262.367L208.558 262.246L212.299 252.136ZM209.693 262.666C209.448 263.329 208.925 263.852 208.262 264.097L198.151 267.838L208.262 271.579C208.925 271.825 209.448 272.348 209.693 273.011L213.434 283.122L217.175 273.011C217.421 272.348 217.944 271.825 218.606 271.579L228.718 267.838L218.606 264.097C217.944 263.852 217.421 263.329 217.175 262.666L213.434 252.555L209.693 262.666Z" fill="#D8D8D8"/>
<defs>
<linearGradient id="paint0_linear_523_627" x1="89.7298" y1="196.915" x2="365.183" y2="389.897" gradientUnits="userSpaceOnUse">
<stop stop-color="#29E3E1"/>
<stop offset="0.504808" stop-color="#B674F9" stop-opacity="0.44"/>
<stop offset="0.995192" stop-color="#FCAFE4" stop-opacity="0"/>
</linearGradient>
<radialGradient id="paint1_radial_523_627" cx="0" cy="0" r="1" gradientUnits="userSpaceOnUse" gradientTransform="translate(246.637 303.403) rotate(-0.490818) scale(73.771 73.771)">
<stop offset="0.604167" stop-color="#111111"/>
<stop offset="0.630208" stop-color="#030303"/>
<stop offset="0.692708" stop-color="#0A0A0A"/>
<stop offset="0.739583" stop-color="#0C0C0C"/>
<stop offset="0.776042" stop-color="#090909"/>
<stop offset="0.802083" stop-color="#070707"/>
<stop offset="0.838484" stop-color="#050505"/>
<stop offset="0.894232" stop-color="#0D0D0D"/>
<stop offset="0.921875" stop-color="#0C0C0C"/>
<stop offset="0.96875" stop-color="#0C0C0C"/>
<stop offset="1" stop-color="white"/>
</radialGradient>
<radialGradient id="paint2_radial_523_627" cx="0" cy="0" r="1" gradientUnits="userSpaceOnUse" gradientTransform="translate(246.637 303.403) rotate(-0.490818) scale(73.771 73.771)">
<stop offset="0.604167" stop-color="#111111"/>
<stop offset="0.630208" stop-color="#030303"/>
<stop offset="0.692708" stop-color="#0A0A0A"/>
<stop offset="0.739583" stop-color="#0C0C0C"/>
<stop offset="0.776042" stop-color="#090909"/>
<stop offset="0.802083" stop-color="#070707"/>
<stop offset="0.838484" stop-color="#050505"/>
<stop offset="0.894232" stop-color="#0D0D0D"/>
<stop offset="0.921875" stop-color="#0C0C0C"/>
<stop offset="0.96875" stop-color="#0C0C0C"/>
<stop offset="1" stop-color="white"/>
</radialGradient>
</defs>
</svg>
