<svg width="820" height="520" viewBox="480 180 820 520" fill="none" xmlns="http://www.w3.org/2000/svg">
<defs>
<linearGradient id="rec5-paint3_linear_525_984" x1="448.273" y1="127.024" x2="493.658" y2="66.9306" gradientUnits="userSpaceOnUse">
<stop stop-color="#D9D9D9" stop-opacity="0.03"/>
<stop offset="0.447115" stop-color="#7E82EB" stop-opacity="0.74"/>
<stop offset="1" stop-color="#7E82EB"/>
</linearGradient>
<radialGradient id="rec5-paint4_radial_525_984" cx="0" cy="0" r="1" gradientUnits="userSpaceOnUse" gradientTransform="translate(464.875 90.6223) rotate(-0.490819) scale(22.3627)">
<stop offset="0.0721154" stop-color="#232323"/>
<stop offset="0.0961538" stop-color="#A3A1A1"/>
<stop offset="0.158654" stop-color="#0A0A0A"/>
<stop offset="0.604167" stop-color="#111111"/>
<stop offset="0.630208" stop-color="#030303"/>
<stop offset="0.692708" stop-color="#0A0A0A"/>
<stop offset="0.739583" stop-color="#0C0C0C"/>
<stop offset="0.776042" stop-color="#090909"/>
<stop offset="0.802083" stop-color="#070707"/>
<stop offset="0.838484" stop-color="#050505"/>
<stop offset="0.894232" stop-color="#0D0D0D"/>
<stop offset="0.921875" stop-color="#0C0C0C"/>
<stop offset="0.96875" stop-color="#0C0C0C"/>
<stop offset="1" stop-color="white"/>
</radialGradient>
<radialGradient id="rec5-paint5_radial_525_984" cx="0" cy="0" r="1" gradientUnits="userSpaceOnUse" gradientTransform="translate(464.875 90.6223) rotate(-0.490819) scale(22.3627)">
<stop offset="0.0721154" stop-color="#232323"/>
<stop offset="0.0961538" stop-color="#A3A1A1"/>
<stop offset="0.158654" stop-color="#0A0A0A"/>
<stop offset="0.604167" stop-color="#111111"/>
<stop offset="0.630208" stop-color="#030303"/>
<stop offset="0.692708" stop-color="#0A0A0A"/>
<stop offset="0.739583" stop-color="#0C0C0C"/>
<stop offset="0.776042" stop-color="#090909"/>
<stop offset="0.802083" stop-color="#070707"/>
<stop offset="0.838484" stop-color="#050505"/>
<stop offset="0.894232" stop-color="#0D0D0D"/>
<stop offset="0.921875" stop-color="#0C0C0C"/>
<stop offset="0.96875" stop-color="#0C0C0C"/>
<stop offset="1" stop-color="white"/>
</radialGradient>
</defs>
<g transform="translate(1164.79 567.787) scale(1.44402243) translate(-465.162 -90.9088)">
<circle cx="465.162" cy="90.9088" r="53.5" transform="rotate(-31.1976 465.162 90.9088)" fill="url(#rec5-paint3_linear_525_984)" fill-opacity="0.55" stroke="#A7A7A7"/>
<path d="M496 90.7471C496 107.868 482.121 121.747 465 121.747C447.879 121.747 434 107.868 434 90.7471C434 73.6262 447.879 59.7471 465 59.7471C482.121 59.7471 496 73.6262 496 90.7471Z" fill="black"/>
<path d="M464.684 68.2604C477.034 68.1546 487.132 78.0806 487.237 90.4307C487.343 102.781 477.417 112.878 465.067 112.984C452.717 113.09 442.619 103.164 442.514 90.8139C442.408 78.4637 452.334 68.3662 464.684 68.2604Z" fill="white"/>
<path d="M464.684 68.2604C477.034 68.1546 487.132 78.0806 487.237 90.4307C487.343 102.781 477.417 112.878 465.067 112.984C452.717 113.09 442.619 103.164 442.514 90.8139C442.408 78.4637 452.334 68.3662 464.684 68.2604Z" fill="url(#rec5-paint4_radial_525_984)" fill-opacity="0.7"/>
<path d="M464.684 68.2604C477.034 68.1546 487.132 78.0806 487.237 90.4307C487.343 102.781 477.417 112.878 465.067 112.984C452.717 113.09 442.619 103.164 442.514 90.8139C442.408 78.4637 452.334 68.3662 464.684 68.2604Z" fill="white"/>
<path d="M464.684 68.2604C477.034 68.1546 487.132 78.0806 487.237 90.4307C487.343 102.781 477.417 112.878 465.067 112.984C452.717 113.09 442.619 103.164 442.514 90.8139C442.408 78.4637 452.334 68.3662 464.684 68.2604Z" fill="url(#rec5-paint5_radial_525_984)" fill-opacity="0.7"/>
<path d="M476.776 80.3822C479.641 80.3608 481.98 82.6663 482 85.5317L482.076 96.6737C482.096 99.5391 479.789 101.879 476.924 101.901L453.85 102.074C450.985 102.095 448.646 99.7896 448.626 96.9241L448.549 85.7822C448.53 82.9167 450.837 80.5764 453.702 80.5549L476.776 80.3822ZM457.497 88.3805C455.992 88.3917 454.78 89.5602 454.79 90.99C454.8 92.4199 456.028 93.57 457.533 93.5588C459.037 93.5475 460.25 92.3791 460.24 90.9492C460.23 89.5193 459.002 88.3692 457.497 88.3805ZM473.844 88.2587C472.34 88.2699 471.128 89.4378 471.137 90.8676C471.147 92.2975 472.375 93.4476 473.88 93.4364C475.385 93.4251 476.597 92.2568 476.587 90.8268C476.577 89.397 475.349 88.2474 473.844 88.2587Z" fill="black"/>
<path d="M476.916 100.748L476.924 101.901L453.85 102.074L453.842 100.921L476.916 100.748ZM480.923 96.6823L480.847 85.5404C480.832 83.3814 479.124 81.6309 476.991 81.5387L476.784 81.5351L453.71 81.7079C451.481 81.7246 449.687 83.5448 449.702 85.7736L449.779 96.9155C449.794 99.1442 451.613 100.937 453.842 100.921L453.85 102.074C450.985 102.095 448.646 99.7896 448.626 96.9241L448.549 85.7822C448.53 82.9167 450.837 80.5764 453.702 80.5549L476.776 80.3822C479.641 80.3608 481.98 82.6663 482 85.5317L482.076 96.6737C482.096 99.5391 479.789 101.879 476.924 101.901L476.916 100.748C479.075 100.732 480.826 99.023 480.92 96.8901L480.923 96.6823ZM460.24 90.9492C460.23 89.5193 459.002 88.3692 457.497 88.3805C455.992 88.3917 454.78 89.5602 454.79 90.99C454.8 92.4199 456.028 93.57 457.533 93.5588C459.037 93.5475 460.25 92.3791 460.24 90.9492ZM476.587 90.8268C476.577 89.4417 475.424 88.3195 473.984 88.261L473.844 88.2587C472.34 88.2699 471.128 89.4378 471.137 90.8676L471.142 91.001C471.224 92.3684 472.422 93.4473 473.88 93.4364C475.385 93.4251 476.597 92.2568 476.587 90.8268ZM461.393 90.9406C461.407 93.0621 459.626 94.6962 457.541 94.7118C455.455 94.7274 453.652 93.1202 453.637 90.9987C453.623 88.8773 455.404 87.2431 457.489 87.2275C459.574 87.2119 461.378 88.8192 461.393 90.9406ZM477.74 90.8182C477.754 92.9397 475.973 94.5738 473.888 94.5894C471.803 94.605 469.999 92.9978 469.984 90.8763C469.97 88.7548 471.751 87.1213 473.836 87.1057C475.921 87.0901 477.725 88.6967 477.74 90.8182Z" fill="#D7D7D7"/>
<path d="M455.542 80.7227H474.581C474.581 82.8982 472.818 84.6618 470.642 84.6618H459.481C457.306 84.6618 455.542 82.8982 455.542 80.7227Z" fill="black"/>
<path d="M474.581 80.7227C474.581 82.8302 472.926 84.5514 470.845 84.6568L470.642 84.6618V83.5089C471.769 83.5089 472.74 82.8388 473.178 81.8756H456.945C457.384 82.8388 458.354 83.5089 459.481 83.5089V84.6618L459.279 84.6568C457.197 84.5513 455.542 82.8302 455.542 80.7227H474.581ZM470.642 83.5089V84.6618H459.481V83.5089H470.642Z" fill="#D7D7D7"/>
</g>
</svg>
