<svg width="820" height="520" viewBox="480 180 820 520" fill="none" xmlns="http://www.w3.org/2000/svg">
<defs>
<linearGradient id="rec3-paint0_linear_525_984" x1="116.273" y1="124.278" x2="152.748" y2="23.0862" gradientUnits="userSpaceOnUse">
<stop stop-color="#D9D9D9" stop-opacity="0.03"/>
<stop offset="0.643634" stop-color="#E5A1D1"/>
<stop offset="1" stop-color="#E6A1D2"/>
</linearGradient>
<radialGradient id="rec3-paint1_radial_525_984" cx="0" cy="0" r="1" gradientUnits="userSpaceOnUse" gradientTransform="translate(134.071 88.8181) rotate(-0.490819) scale(23.4322)">
<stop offset="0.240385"/>
<stop offset="0.541667" stop-color="#0E0E0E"/>
<stop offset="0.567708" stop-color="#0A0A0A"/>
<stop offset="0.604167" stop-color="#111111"/>
<stop offset="0.630208" stop-color="#030303"/>
<stop offset="0.692708" stop-color="#0A0A0A"/>
<stop offset="0.739583" stop-color="#0C0C0C"/>
<stop offset="0.776042" stop-color="#090909"/>
<stop offset="0.802083" stop-color="#070707"/>
<stop offset="0.838484" stop-color="#050505"/>
<stop offset="0.894232" stop-color="#0D0D0D"/>
<stop offset="0.921875" stop-color="#0C0C0C"/>
<stop offset="0.96875" stop-color="#0C0C0C"/>
<stop offset="1" stop-color="#F8F8F8"/>
</radialGradient>
<radialGradient id="rec3-paint2_radial_525_984" cx="0" cy="0" r="1" gradientUnits="userSpaceOnUse" gradientTransform="translate(134.071 88.8181) rotate(-0.490819) scale(23.4322)">
<stop offset="0.240385"/>
<stop offset="0.541667" stop-color="#0E0E0E"/>
<stop offset="0.567708" stop-color="#0A0A0A"/>
<stop offset="0.604167" stop-color="#111111"/>
<stop offset="0.630208" stop-color="#030303"/>
<stop offset="0.692708" stop-color="#0A0A0A"/>
<stop offset="0.739583" stop-color="#0C0C0C"/>
<stop offset="0.776042" stop-color="#090909"/>
<stop offset="0.802083" stop-color="#070707"/>
<stop offset="0.838484" stop-color="#050505"/>
<stop offset="0.894232" stop-color="#0D0D0D"/>
<stop offset="0.921875" stop-color="#0C0C0C"/>
<stop offset="0.96875" stop-color="#0C0C0C"/>
<stop offset="1" stop-color="#F8F8F8"/>
</radialGradient>
</defs>
<g transform="translate(929.5 460.5) scale(1.36158692) translate(-133.162 -88.1627)">
<circle cx="133.162" cy="88.1627" r="53.5" transform="rotate(-31.1976 133.162 88.1627)" fill="url(#rec3-paint0_linear_525_984)" fill-opacity="0.99" stroke="#B6B6B6"/>
<circle cx="134" cy="88.7471" r="31" fill="#272727"/>
<path d="M133.871 65.3867C146.812 65.2759 157.392 75.6766 157.503 88.6174C157.614 101.558 147.213 112.139 134.272 112.249C121.331 112.36 110.751 101.96 110.64 89.0188C110.529 76.078 120.93 65.4976 133.871 65.3867ZM133.852 91.8827C135.671 91.8671 137.133 90.3799 137.117 88.561C137.102 86.742 135.614 85.2801 133.795 85.2957C131.976 85.3112 130.515 86.7984 130.53 88.6174C130.546 90.4363 132.033 91.8983 133.852 91.8827Z" fill="white"/>
<path d="M133.871 65.3867C146.812 65.2759 157.392 75.6766 157.503 88.6174C157.614 101.558 147.213 112.139 134.272 112.249C121.331 112.36 110.751 101.96 110.64 89.0188C110.529 76.078 120.93 65.4976 133.871 65.3867ZM133.852 91.8827C135.671 91.8671 137.133 90.3799 137.117 88.561C137.102 86.742 135.614 85.2801 133.795 85.2957C131.976 85.3112 130.515 86.7984 130.53 88.6174C130.546 90.4363 132.033 91.8983 133.852 91.8827Z" fill="url(#rec3-paint1_radial_525_984)" fill-opacity="0.7"/>
<path d="M133.871 65.3867C146.812 65.2759 157.392 75.6766 157.503 88.6174C157.614 101.558 147.213 112.139 134.272 112.249C121.331 112.36 110.751 101.96 110.64 89.0188C110.529 76.078 120.93 65.4976 133.871 65.3867ZM133.852 91.8827C135.671 91.8671 137.133 90.3799 137.117 88.561C137.102 86.742 135.614 85.2801 133.795 85.2957C131.976 85.3112 130.515 86.7984 130.53 88.6174C130.546 90.4363 132.033 91.8983 133.852 91.8827Z" fill="white"/>
<path d="M133.871 65.3867C146.812 65.2759 157.392 75.6766 157.503 88.6174C157.614 101.558 147.213 112.139 134.272 112.249C121.331 112.36 110.751 101.96 110.64 89.0188C110.529 76.078 120.93 65.4976 133.871 65.3867ZM133.852 91.8827C135.671 91.8671 137.133 90.3799 137.117 88.561C137.102 86.742 135.614 85.2801 133.795 85.2957C131.976 85.3112 130.515 86.7984 130.53 88.6174C130.546 90.4363 132.033 91.8983 133.852 91.8827Z" fill="url(#rec3-paint2_radial_525_984)" fill-opacity="0.7"/>
<path d="M151.416 63.5341C152.367 63.5589 153.118 64.3499 153.093 65.301L152.629 83.1516C152.574 85.2769 151.556 87.2619 149.862 88.5468L144.929 92.2897C144.171 92.8647 143.09 92.7165 142.515 91.9587C141.94 91.2008 142.088 90.12 142.846 89.5449L146.653 86.657C148.225 85.4639 149.17 83.6208 149.222 81.6475L149.649 65.2115C149.673 64.2604 150.465 63.5093 151.416 63.5341Z" fill="#D7D7D7"/>
</g>
</svg>
