<svg width="820" height="520" viewBox="480 180 820 520" fill="none" xmlns="http://www.w3.org/2000/svg">
<defs>
<linearGradient id="paint14_linear_285_2703" x1="768.925" y1="356.809" x2="837.66" y2="166.122" gradientUnits="userSpaceOnUse">
<stop stop-color="#D9D9D9" stop-opacity="0.03"/>
<stop offset="0.643634" stop-color="#E5A1D1"/>
<stop offset="1" stop-color="#E6A1D2"/>
</linearGradient>
<radialGradient id="paint55_radial_285_2703" cx="0" cy="0" r="1" gradientUnits="userSpaceOnUse" gradientTransform="translate(801.11 291.11) rotate(-0.490819) scale(40.8063)">
<stop offset="0.240385"/>
<stop offset="0.541667" stop-color="#0E0E0E"/>
<stop offset="0.567708" stop-color="#0A0A0A"/>
<stop offset="0.604167" stop-color="#111111"/>
<stop offset="0.630208" stop-color="#030303"/>
<stop offset="0.692708" stop-color="#0A0A0A"/>
<stop offset="0.739583" stop-color="#0C0C0C"/>
<stop offset="0.776042" stop-color="#090909"/>
<stop offset="0.802083" stop-color="#070707"/>
<stop offset="0.838484" stop-color="#050505"/>
<stop offset="0.894232" stop-color="#0D0D0D"/>
<stop offset="0.921875" stop-color="#0C0C0C"/>
<stop offset="0.96875" stop-color="#0C0C0C"/>
<stop offset="1" stop-color="#F8F8F8"/>
</radialGradient>
<radialGradient id="paint56_radial_285_2703" cx="0" cy="0" r="1" gradientUnits="userSpaceOnUse" gradientTransform="translate(801.11 291.11) rotate(-0.490819) scale(40.8063)">
<stop offset="0.240385"/>
<stop offset="0.541667" stop-color="#0E0E0E"/>
<stop offset="0.567708" stop-color="#0A0A0A"/>
<stop offset="0.604167" stop-color="#111111"/>
<stop offset="0.630208" stop-color="#030303"/>
<stop offset="0.692708" stop-color="#0A0A0A"/>
<stop offset="0.739583" stop-color="#0C0C0C"/>
<stop offset="0.776042" stop-color="#090909"/>
<stop offset="0.802083" stop-color="#070707"/>
<stop offset="0.838484" stop-color="#050505"/>
<stop offset="0.894232" stop-color="#0D0D0D"/>
<stop offset="0.921875" stop-color="#0C0C0C"/>
<stop offset="0.96875" stop-color="#0C0C0C"/>
<stop offset="1" stop-color="#F8F8F8"/>
</radialGradient>
</defs>
<circle cx="800.753" cy="288.753" r="101.258" transform="rotate(-31.1976 800.753 288.753)" fill="url(#paint14_linear_285_2703)" fill-opacity="0.99" stroke="#B6B6B6"/>
<circle cx="801" cy="289" r="34" fill="#F5ABDE"/>
<circle cx="800.985" cy="290.985" r="53.9854" fill="#272727"/>
<path d="M800.76 250.305C823.296 250.112 841.721 268.225 841.914 290.761C842.107 313.297 823.995 331.722 801.459 331.915C778.923 332.108 760.498 313.996 760.305 291.46C760.112 268.924 778.224 250.498 800.76 250.305ZM800.727 296.447C803.895 296.42 806.441 293.83 806.414 290.662C806.386 287.495 803.797 284.949 800.629 284.976C797.461 285.003 794.915 287.593 794.943 290.761C794.97 293.928 797.56 296.474 800.727 296.447Z" fill="white"/>
<path d="M800.76 250.305C823.296 250.112 841.721 268.225 841.914 290.761C842.107 313.297 823.995 331.722 801.459 331.915C778.923 332.108 760.498 313.996 760.305 291.46C760.112 268.924 778.224 250.498 800.76 250.305ZM800.727 296.447C803.895 296.42 806.441 293.83 806.414 290.662C806.386 287.495 803.797 284.949 800.629 284.976C797.461 285.003 794.915 287.593 794.943 290.761C794.97 293.928 797.56 296.474 800.727 296.447Z" fill="url(#paint55_radial_285_2703)" fill-opacity="0.7"/>
<path d="M800.76 250.305C823.296 250.112 841.721 268.225 841.914 290.761C842.107 313.297 823.995 331.722 801.459 331.915C778.923 332.108 760.498 313.996 760.305 291.46C760.112 268.924 778.224 250.498 800.76 250.305ZM800.727 296.447C803.895 296.42 806.441 293.83 806.414 290.662C806.386 287.495 803.797 284.949 800.629 284.976C797.461 285.003 794.915 287.593 794.943 290.761C794.97 293.928 797.56 296.474 800.727 296.447Z" fill="white"/>
<path d="M800.76 250.305C823.296 250.112 841.721 268.225 841.914 290.761C842.107 313.297 823.995 331.722 801.459 331.915C778.923 332.108 760.498 313.996 760.305 291.46C760.112 268.924 778.224 250.498 800.76 250.305ZM800.727 296.447C803.895 296.42 806.441 293.83 806.414 290.662C806.386 287.495 803.797 284.949 800.629 284.976C797.461 285.003 794.915 287.593 794.943 290.761C794.97 293.928 797.56 296.474 800.727 296.447Z" fill="url(#paint56_radial_285_2703)" fill-opacity="0.7"/>
<path d="M831.314 247.078C832.97 247.121 834.278 248.499 834.235 250.155L833.363 283.734C833.308 285.86 832.289 287.845 830.596 289.13L820.017 297.155C818.697 298.156 816.815 297.898 815.814 296.578C814.812 295.259 815.07 293.377 816.39 292.375L824.672 286.091C826.366 284.806 827.384 282.822 827.439 280.697L828.237 249.999C828.28 248.343 829.657 247.035 831.314 247.078Z" fill="#D7D7D7"/>
</svg>
