<svg width="820" height="520" viewBox="440 180 820 520" fill="none" xmlns="http://www.w3.org/2000/svg">
<defs>
<linearGradient id="rec6-paint6_linear_525_984" x1="321.181" y1="24.7003" x2="297.256" y2="129.571" gradientUnits="userSpaceOnUse">
<stop stop-color="#D9D9D9" stop-opacity="0.03"/>
<stop offset="0.370809" stop-color="#BE8BFF" stop-opacity="0.62"/>
<stop offset="1" stop-color="#BE8BFF"/>
</linearGradient>
<radialGradient id="rec6-paint7_radial_525_984" cx="0" cy="0" r="1" gradientUnits="userSpaceOnUse" gradientTransform="translate(308.574 90.1916) rotate(-0.490819) scale(22.3627)">
<stop stop-color="#232323"/>
<stop offset="0.541667" stop-color="#A3A1A1"/>
<stop offset="0.567708" stop-color="#0A0A0A"/>
<stop offset="0.604167" stop-color="#111111"/>
<stop offset="0.630208" stop-color="#030303"/>
<stop offset="0.692708" stop-color="#0A0A0A"/>
<stop offset="0.739583" stop-color="#0C0C0C"/>
<stop offset="0.776042" stop-color="#090909"/>
<stop offset="0.802083" stop-color="#070707"/>
<stop offset="0.838484" stop-color="#050505"/>
<stop offset="0.894232" stop-color="#0D0D0D"/>
<stop offset="0.921875" stop-color="#0C0C0C"/>
<stop offset="0.96875" stop-color="#0C0C0C"/>
<stop offset="1" stop-color="white"/>
</radialGradient>
<radialGradient id="rec6-paint8_radial_525_984" cx="0" cy="0" r="1" gradientUnits="userSpaceOnUse" gradientTransform="translate(308.574 90.1916) rotate(-0.490819) scale(22.3627)">
<stop stop-color="#232323"/>
<stop offset="0.541667" stop-color="#A3A1A1"/>
<stop offset="0.567708" stop-color="#0A0A0A"/>
<stop offset="0.604167" stop-color="#111111"/>
<stop offset="0.630208" stop-color="#030303"/>
<stop offset="0.692708" stop-color="#0A0A0A"/>
<stop offset="0.739583" stop-color="#0C0C0C"/>
<stop offset="0.776042" stop-color="#090909"/>
<stop offset="0.802083" stop-color="#070707"/>
<stop offset="0.838484" stop-color="#050505"/>
<stop offset="0.894232" stop-color="#0D0D0D"/>
<stop offset="0.921875" stop-color="#0C0C0C"/>
<stop offset="0.96875" stop-color="#0C0C0C"/>
<stop offset="1" stop-color="white"/>
</radialGradient>
</defs>
<g transform="translate(533.209 392.208) scale(1.58102593) translate(-307.871 -91.6161)">
<circle cx="307.871" cy="91.6161" r="54" transform="rotate(117.592 307.871 91.6161)" fill="url(#rec6-paint6_linear_525_984)" fill-opacity="0.83"/>
<circle cx="307.871" cy="91.6161" r="53.5" transform="rotate(117.592 307.871 91.6161)" stroke="#CECECE" stroke-opacity="0.62"/>
<circle cx="308.001" cy="90.7471" r="31" fill="black"/>
<path d="M308.382 67.8297C320.732 67.7239 330.83 77.6499 330.936 90.0001C331.041 102.35 321.115 112.448 308.765 112.554C296.415 112.659 286.318 102.733 286.212 90.3832C286.106 78.0331 296.032 67.9355 308.382 67.8297ZM308.671 101.551C314.945 101.498 319.987 96.3682 319.934 90.0943C319.88 83.8205 314.75 78.778 308.476 78.8318C302.202 78.8855 297.16 84.0151 297.214 90.289C297.268 96.5628 302.397 101.605 308.671 101.551Z" fill="white"/>
<path d="M308.382 67.8297C320.732 67.7239 330.83 77.6499 330.936 90.0001C331.041 102.35 321.115 112.448 308.765 112.554C296.415 112.659 286.318 102.733 286.212 90.3832C286.106 78.0331 296.032 67.9355 308.382 67.8297ZM308.671 101.551C314.945 101.498 319.987 96.3682 319.934 90.0943C319.88 83.8205 314.75 78.778 308.476 78.8318C302.202 78.8855 297.16 84.0151 297.214 90.289C297.268 96.5628 302.397 101.605 308.671 101.551Z" fill="url(#rec6-paint7_radial_525_984)" fill-opacity="0.7"/>
<path d="M308.382 67.8297C320.732 67.7239 330.83 77.6499 330.936 90.0001C331.041 102.35 321.115 112.448 308.765 112.554C296.415 112.659 286.318 102.733 286.212 90.3832C286.106 78.0331 296.032 67.9355 308.382 67.8297ZM308.671 101.551C314.945 101.498 319.987 96.3682 319.934 90.0943C319.88 83.8205 314.75 78.778 308.476 78.8318C302.202 78.8855 297.16 84.0151 297.214 90.289C297.268 96.5628 302.397 101.605 308.671 101.551Z" fill="white"/>
<path d="M308.382 67.8297C320.732 67.7239 330.83 77.6499 330.936 90.0001C331.041 102.35 321.115 112.448 308.765 112.554C296.415 112.659 286.318 102.733 286.212 90.3832C286.106 78.0331 296.032 67.9355 308.382 67.8297ZM308.671 101.551C314.945 101.498 319.987 96.3682 319.934 90.0943C319.88 83.8205 314.75 78.778 308.476 78.8318C302.202 78.8855 297.16 84.0151 297.214 90.289C297.268 96.5628 302.397 101.605 308.671 101.551Z" fill="url(#rec6-paint8_radial_525_984)" fill-opacity="0.7"/>
<circle cx="308.563" cy="90.1839" r="4.50909" fill="#D9D9D9"/>
</g>
</svg>
