<svg width="820" height="520" viewBox="480 180 820 520" fill="none" xmlns="http://www.w3.org/2000/svg">
<defs>
<linearGradient id="paint9_linear_285_2703" x1="627.088" y1="410.627" x2="627.088" y2="609.55" gradientUnits="userSpaceOnUse">
<stop stop-color="#29E3E1"/>
<stop offset="1" stop-color="#2D5761"/>
</linearGradient>
</defs>
<circle cx="627.088" cy="510.089" r="98.4613" transform="rotate(-102.091 627.088 510.089)" fill="url(#paint9_linear_285_2703)" stroke="#CECECE" stroke-width="2"/>
<path d="M641.429 488.881L615.806 496.448C615.286 496.612 614.832 496.937 614.509 497.376C614.186 497.815 614.012 498.346 614.012 498.892V519.826C613.173 519.622 612.313 519.517 611.449 519.512C607.205 519.512 603.762 521.807 603.762 524.637C603.762 527.468 607.205 529.763 611.449 529.763C615.693 529.763 619.137 527.468 619.137 524.637V505.924L639.637 499.917V514.702C638.798 514.497 637.938 514.392 637.074 514.387C632.83 514.387 629.387 516.682 629.387 519.512C629.387 522.342 632.83 524.637 637.074 524.637C641.318 524.637 644.762 522.343 644.762 519.512V491.323C644.761 490.921 644.666 490.524 644.484 490.165C644.302 489.807 644.038 489.496 643.714 489.258C643.389 489.02 643.013 488.862 642.616 488.797C642.219 488.731 641.813 488.76 641.429 488.881Z" fill="#D9D9D9"/>
<circle cx="626.262" cy="511.263" r="44" fill="#555555" stroke="black" stroke-width="13"/>
<path d="M641.429 488.881L615.806 496.448C615.286 496.612 614.832 496.937 614.509 497.376C614.186 497.815 614.012 498.346 614.012 498.892V519.826C613.173 519.622 612.313 519.517 611.449 519.512C607.205 519.512 603.762 521.807 603.762 524.637C603.762 527.468 607.205 529.763 611.449 529.763C615.693 529.763 619.137 527.468 619.137 524.637V505.924L639.637 499.917V514.702C638.798 514.497 637.938 514.392 637.074 514.387C632.83 514.387 629.387 516.682 629.387 519.512C629.387 522.342 632.83 524.637 637.074 524.637C641.318 524.637 644.762 522.343 644.762 519.512V491.323C644.761 490.921 644.666 490.524 644.484 490.165C644.302 489.807 644.038 489.496 643.714 489.258C643.389 489.02 643.013 488.862 642.616 488.797C642.219 488.731 641.813 488.76 641.429 488.881Z" fill="#D9D9D9"/>
</svg>
