<svg width="820" height="520" viewBox="480 180 820 520" fill="none" xmlns="http://www.w3.org/2000/svg">
<defs>
<linearGradient id="paint18_linear_285_2703" x1="1140.47" y1="619.79" x2="1205.82" y2="533.261" gradientUnits="userSpaceOnUse">
<stop stop-color="#D9D9D9" stop-opacity="0.03"/>
<stop offset="0.447115" stop-color="#7E82EB" stop-opacity="0.74"/>
<stop offset="1" stop-color="#7E82EB"/>
</linearGradient>
</defs>
<circle cx="1164.79" cy="567.787" r="77.2552" transform="rotate(-31.1976 1164.79 567.787)" fill="url(#paint18_linear_285_2703)" fill-opacity="0.55" stroke="#A7A7A7"/>
<circle cx="1164.5" cy="568.5" r="33.5" fill="#1B202C"/>
<mask id="path-103-inside-1_285_2703" fill="white">
<path d="M1181.24 549.489C1186.21 549.451 1190.27 553.451 1190.3 558.421L1190.4 573.198C1190.44 578.168 1186.43 582.228 1181.46 582.265L1148.51 582.512C1143.54 582.549 1139.49 578.55 1139.45 573.58L1139.35 558.803C1139.32 553.832 1143.32 549.773 1148.29 549.735L1181.24 549.489ZM1152.97 561.664C1150.68 561.681 1148.83 563.46 1148.85 565.638C1148.86 567.816 1150.73 569.568 1153.03 569.551C1155.32 569.534 1157.16 567.754 1157.15 565.576C1157.13 563.398 1155.26 561.646 1152.97 561.664ZM1177.87 561.477C1175.58 561.494 1173.73 563.274 1173.75 565.451C1173.76 567.629 1175.63 569.382 1177.93 569.365C1180.22 569.347 1182.06 567.567 1182.05 565.389C1182.03 563.212 1180.16 561.46 1177.87 561.477Z"/>
</mask>
<path d="M1181.24 549.489C1186.21 549.451 1190.27 553.451 1190.3 558.421L1190.4 573.198C1190.44 578.168 1186.43 582.228 1181.46 582.265L1148.51 582.512C1143.54 582.549 1139.49 578.55 1139.45 573.58L1139.35 558.803C1139.32 553.832 1143.32 549.773 1148.29 549.735L1181.24 549.489ZM1152.97 561.664C1150.68 561.681 1148.83 563.46 1148.85 565.638C1148.86 567.816 1150.73 569.568 1153.03 569.551C1155.32 569.534 1157.16 567.754 1157.15 565.576C1157.13 563.398 1155.26 561.646 1152.97 561.664ZM1177.87 561.477C1175.58 561.494 1173.73 563.274 1173.75 565.451C1173.76 567.629 1175.63 569.382 1177.93 569.365C1180.22 569.347 1182.06 567.567 1182.05 565.389C1182.03 563.212 1180.16 561.46 1177.87 561.477Z" fill="#555555"/>
<path d="M1190.3 558.421L1192.3 558.406L1192.3 558.406L1190.3 558.421ZM1190.4 573.198L1192.4 573.183L1192.4 573.183L1190.4 573.198ZM1181.46 582.265L1181.45 580.265L1181.46 582.265ZM1148.51 582.512L1148.53 584.512L1148.51 582.512ZM1139.45 573.58L1137.45 573.594L1137.45 573.595L1139.45 573.58ZM1139.35 558.803L1137.35 558.817L1137.35 558.817L1139.35 558.803ZM1152.97 561.664L1152.96 559.664L1152.96 559.664L1152.97 561.664ZM1148.85 565.638L1146.85 565.653L1146.85 565.653L1148.85 565.638ZM1153.03 569.551L1153.04 571.551L1153.04 571.551L1153.03 569.551ZM1157.15 565.576L1159.15 565.561L1159.15 565.561L1157.15 565.576ZM1177.87 561.477L1177.86 559.477L1177.86 559.477L1177.87 561.477ZM1173.75 565.451L1171.75 565.466L1171.75 565.466L1173.75 565.451ZM1177.93 569.365L1177.94 571.365L1177.94 571.365L1177.93 569.365ZM1182.05 565.389L1184.05 565.374L1184.05 565.374L1182.05 565.389ZM1181.24 549.489L1181.25 551.489C1185.12 551.46 1188.27 554.57 1188.3 558.436L1190.3 558.421L1192.3 558.406C1192.26 552.331 1187.3 547.443 1181.23 547.489L1181.24 549.489ZM1190.3 558.421L1188.3 558.436L1188.4 573.213L1190.4 573.198L1192.4 573.183L1192.3 558.406L1190.3 558.421ZM1190.4 573.198L1188.4 573.213C1188.43 577.079 1185.32 580.236 1181.45 580.265L1181.46 582.265L1181.48 584.265C1187.55 584.22 1192.44 579.258 1192.4 573.183L1190.4 573.198ZM1181.46 582.265L1181.45 580.265L1148.5 580.512L1148.51 582.512L1148.53 584.512L1181.48 584.265L1181.46 582.265ZM1148.51 582.512L1148.5 580.512C1144.63 580.541 1141.48 577.43 1141.45 573.565L1139.45 573.58L1137.45 573.595C1137.49 579.669 1142.45 584.557 1148.53 584.512L1148.51 582.512ZM1139.45 573.58L1141.45 573.565L1141.35 558.788L1139.35 558.803L1137.35 558.817L1137.45 573.594L1139.45 573.58ZM1139.35 558.803L1141.35 558.788C1141.32 554.922 1144.44 551.764 1148.3 551.735L1148.29 549.735L1148.28 547.735C1142.2 547.781 1137.31 552.743 1137.35 558.817L1139.35 558.803ZM1148.29 549.735L1148.3 551.735L1181.25 551.489L1181.24 549.489L1181.23 547.489L1148.28 547.735L1148.29 549.735ZM1152.97 561.664L1152.96 559.664C1149.66 559.688 1146.83 562.275 1146.85 565.653L1148.85 565.638L1150.85 565.623C1150.84 564.645 1151.7 563.673 1152.99 563.663L1152.97 561.664ZM1148.85 565.638L1146.85 565.653C1146.87 569.03 1149.74 571.576 1153.04 571.551L1153.03 569.551L1153.01 567.551C1151.73 567.561 1150.86 566.602 1150.85 565.623L1148.85 565.638ZM1153.03 569.551L1153.04 571.551C1156.34 571.526 1159.17 568.937 1159.15 565.561L1157.15 565.576L1155.15 565.591C1155.16 566.57 1154.3 567.541 1153.01 567.551L1153.03 569.551ZM1157.15 565.576L1159.15 565.561C1159.13 562.184 1156.26 559.639 1152.96 559.664L1152.97 561.664L1152.99 563.663C1154.27 563.654 1155.14 564.612 1155.15 565.591L1157.15 565.576ZM1177.87 561.477L1177.86 559.477C1174.56 559.502 1171.73 562.089 1171.75 565.466L1173.75 565.451L1175.75 565.437C1175.74 564.458 1176.6 563.487 1177.89 563.477L1177.87 561.477ZM1173.75 565.451L1171.75 565.466C1171.77 568.843 1174.64 571.389 1177.94 571.365L1177.93 569.365L1177.91 567.365C1176.63 567.374 1175.76 566.416 1175.75 565.436L1173.75 565.451ZM1177.93 569.365L1177.94 571.365C1181.24 571.34 1184.07 568.752 1184.05 565.374L1182.05 565.389L1180.05 565.404C1180.06 566.383 1179.2 567.355 1177.91 567.365L1177.93 569.365ZM1182.05 565.389L1184.05 565.374C1184.02 561.997 1181.16 559.452 1177.86 559.477L1177.87 561.477L1177.88 563.477C1179.17 563.467 1180.04 564.426 1180.05 565.404L1182.05 565.389Z" fill="#D7D7D7" mask="url(#path-103-inside-1_285_2703)"/>
<path d="M1177.9 551C1177.44 553.282 1175.42 555 1173 555H1156C1153.58 555 1151.56 553.282 1151.1 551H1177.9Z" fill="#505050" stroke="#D7D7D7" stroke-width="2"/>
</svg>
