<svg width="820" height="520" viewBox="440 180 820 520" fill="none" xmlns="http://www.w3.org/2000/svg">
<defs>
<linearGradient id="paint19_linear_285_2703" x1="554.253" y1="286.413" x2="516.427" y2="452.216" gradientUnits="userSpaceOnUse">
<stop stop-color="#D9D9D9" stop-opacity="0.03"/>
<stop offset="0.370809" stop-color="#BE8BFF" stop-opacity="0.62"/>
<stop offset="1" stop-color="#BE8BFF"/>
</linearGradient>
<radialGradient id="paint50_radial_285_2703" cx="0" cy="0" r="1" gradientUnits="userSpaceOnUse" gradientTransform="translate(534.736 391.211) rotate(-0.490819) scale(32.8783)">
<stop stop-color="#232323"/>
<stop offset="0.541667" stop-color="#A3A1A1"/>
<stop offset="0.567708" stop-color="#0A0A0A"/>
<stop offset="0.604167" stop-color="#111111"/>
<stop offset="0.630208" stop-color="#030303"/>
<stop offset="0.692708" stop-color="#0A0A0A"/>
<stop offset="0.739583" stop-color="#0C0C0C"/>
<stop offset="0.776042" stop-color="#090909"/>
<stop offset="0.802083" stop-color="#070707"/>
<stop offset="0.838484" stop-color="#050505"/>
<stop offset="0.894232" stop-color="#0D0D0D"/>
<stop offset="0.921875" stop-color="#0C0C0C"/>
<stop offset="0.96875" stop-color="#0C0C0C"/>
<stop offset="1" stop-color="white"/>
</radialGradient>
<radialGradient id="paint51_radial_285_2703" cx="0" cy="0" r="1" gradientUnits="userSpaceOnUse" gradientTransform="translate(534.736 391.211) rotate(-0.490819) scale(32.8783)">
<stop stop-color="#232323"/>
<stop offset="0.541667" stop-color="#A3A1A1"/>
<stop offset="0.567708" stop-color="#0A0A0A"/>
<stop offset="0.604167" stop-color="#111111"/>
<stop offset="0.630208" stop-color="#030303"/>
<stop offset="0.692708" stop-color="#0A0A0A"/>
<stop offset="0.739583" stop-color="#0C0C0C"/>
<stop offset="0.776042" stop-color="#090909"/>
<stop offset="0.802083" stop-color="#070707"/>
<stop offset="0.838484" stop-color="#050505"/>
<stop offset="0.894232" stop-color="#0D0D0D"/>
<stop offset="0.921875" stop-color="#0C0C0C"/>
<stop offset="0.96875" stop-color="#0C0C0C"/>
<stop offset="1" stop-color="white"/>
</radialGradient>
</defs>
<circle cx="533.209" cy="392.208" r="85.3754" transform="rotate(117.592 533.209 392.208)" fill="url(#paint19_linear_285_2703)" fill-opacity="0.83"/>
<circle cx="533.895" cy="392.027" r="45.577" fill="black"/>
<path d="M534.454 358.334C552.612 358.179 567.458 372.772 567.613 390.93C567.769 409.087 553.175 423.933 535.018 424.088C516.86 424.244 502.015 409.651 501.859 391.493C501.703 373.336 516.297 358.49 534.454 358.334ZM534.879 407.913C544.103 407.834 551.517 400.292 551.438 391.068C551.359 381.844 543.817 374.431 534.593 374.51C525.369 374.589 517.955 382.13 518.034 391.354C518.114 400.579 525.655 407.992 534.879 407.913Z" fill="white"/>
<path d="M534.454 358.334C552.612 358.179 567.458 372.772 567.613 390.93C567.769 409.087 553.175 423.933 535.018 424.088C516.86 424.244 502.015 409.651 501.859 391.493C501.703 373.336 516.297 358.49 534.454 358.334ZM534.879 407.913C544.103 407.834 551.517 400.292 551.438 391.068C551.359 381.844 543.817 374.431 534.593 374.51C525.369 374.589 517.955 382.13 518.034 391.354C518.114 400.579 525.655 407.992 534.879 407.913Z" fill="url(#paint50_radial_285_2703)" fill-opacity="0.7"/>
<path d="M534.454 358.334C552.612 358.179 567.458 372.772 567.613 390.93C567.769 409.087 553.175 423.933 535.018 424.088C516.86 424.244 502.015 409.651 501.859 391.493C501.703 373.336 516.297 358.49 534.454 358.334ZM534.879 407.913C544.103 407.834 551.517 400.292 551.438 391.068C551.359 381.844 543.817 374.431 534.593 374.51C525.369 374.589 517.955 382.13 518.034 391.354C518.114 400.579 525.655 407.992 534.879 407.913Z" fill="white"/>
<path d="M534.454 358.334C552.612 358.179 567.458 372.772 567.613 390.93C567.769 409.087 553.175 423.933 535.018 424.088C516.86 424.244 502.015 409.651 501.859 391.493C501.703 373.336 516.297 358.49 534.454 358.334ZM534.879 407.913C544.103 407.834 551.517 400.292 551.438 391.068C551.359 381.844 543.817 374.431 534.593 374.51C525.369 374.589 517.955 382.13 518.034 391.354C518.114 400.579 525.655 407.992 534.879 407.913Z" fill="url(#paint51_radial_285_2703)" fill-opacity="0.7"/>
<circle cx="534.723" cy="391.201" r="6.62938" fill="#D9D9D9"/>
</svg>
