<svg width="820" height="520" viewBox="480 180 820 520" fill="none" xmlns="http://www.w3.org/2000/svg">
<defs>
<linearGradient id="rec4-paint12_linear_525_984" x1="639.334" y1="34.3337" x2="639.334" y2="142.334" gradientUnits="userSpaceOnUse">
<stop stop-color="#29E3E1"/>
<stop offset="0.899038" stop-color="#2D5761" stop-opacity="0"/>
</linearGradient>
<radialGradient id="rec4-paint13_radial_525_984" cx="0" cy="0" r="1" gradientUnits="userSpaceOnUse" gradientTransform="translate(640.285 88.0012) rotate(-0.490819) scale(22.3627)">
<stop offset="0.604167" stop-color="#111111"/>
<stop offset="0.630208" stop-color="#030303"/>
<stop offset="0.692708" stop-color="#0A0A0A"/>
<stop offset="0.739583" stop-color="#0C0C0C"/>
<stop offset="0.776042" stop-color="#090909"/>
<stop offset="0.802083" stop-color="#070707"/>
<stop offset="0.838484" stop-color="#050505"/>
<stop offset="0.894232" stop-color="#0D0D0D"/>
<stop offset="0.921875" stop-color="#0C0C0C"/>
<stop offset="0.96875" stop-color="#0C0C0C"/>
<stop offset="1" stop-color="white"/>
</radialGradient>
<radialGradient id="rec4-paint14_radial_525_984" cx="0" cy="0" r="1" gradientUnits="userSpaceOnUse" gradientTransform="translate(640.285 88.0012) rotate(-0.490819) scale(22.3627)">
<stop offset="0.604167" stop-color="#111111"/>
<stop offset="0.630208" stop-color="#030303"/>
<stop offset="0.692708" stop-color="#0A0A0A"/>
<stop offset="0.739583" stop-color="#0C0C0C"/>
<stop offset="0.776042" stop-color="#090909"/>
<stop offset="0.802083" stop-color="#070707"/>
<stop offset="0.838484" stop-color="#050505"/>
<stop offset="0.894232" stop-color="#0D0D0D"/>
<stop offset="0.921875" stop-color="#0C0C0C"/>
<stop offset="0.96875" stop-color="#0C0C0C"/>
<stop offset="1" stop-color="white"/>
</radialGradient>
</defs>
<g transform="translate(1032.02 384.024) scale(1.72880187) translate(-639.334 -88.3337)">
<circle cx="639.334" cy="88.3337" r="53.5" transform="rotate(-43.3024 639.334 88.3337)" fill="url(#rec4-paint12_linear_525_984)" stroke="#CECECE"/>
<circle cx="639.731" cy="87.4473" r="31" fill="black"/>
<path d="M640.093 65.6393C652.443 65.5335 662.541 75.4595 662.647 87.8096C662.752 100.16 652.826 110.257 640.476 110.363C628.126 110.469 618.028 100.543 617.923 88.1928C617.817 75.8426 627.743 65.7451 640.093 65.6393Z" fill="white"/>
<path d="M640.093 65.6393C652.443 65.5335 662.541 75.4595 662.647 87.8096C662.752 100.16 652.826 110.257 640.476 110.363C628.126 110.469 618.028 100.543 617.923 88.1928C617.817 75.8426 627.743 65.7451 640.093 65.6393Z" fill="url(#rec4-paint13_radial_525_984)" fill-opacity="0.7"/>
<path d="M640.093 65.6393C652.443 65.5335 662.541 75.4595 662.647 87.8096C662.752 100.16 652.826 110.257 640.476 110.363C628.126 110.469 618.028 100.543 617.923 88.1928C617.817 75.8426 627.743 65.7451 640.093 65.6393Z" fill="white"/>
<path d="M640.093 65.6393C652.443 65.5335 662.541 75.4595 662.647 87.8096C662.752 100.16 652.826 110.257 640.476 110.363C628.126 110.469 618.028 100.543 617.923 88.1928C617.817 75.8426 627.743 65.7451 640.093 65.6393Z" fill="url(#rec4-paint14_radial_525_984)" fill-opacity="0.7"/>
<path d="M648.184 75.1849L633.972 79.3821C633.683 79.4727 633.431 79.653 633.252 79.8967C633.073 80.1404 632.977 80.4349 632.976 80.7373V92.3489C632.511 92.2359 632.034 92.1775 631.555 92.1748C629.201 92.1748 627.291 93.4478 627.291 95.0176C627.291 96.5874 629.201 97.8604 631.555 97.8604C633.909 97.8604 635.819 96.5874 635.819 95.0176V84.6377L647.19 81.3063V89.5065C646.724 89.3932 646.247 89.3346 645.768 89.332C643.414 89.332 641.504 90.605 641.504 92.1748C641.504 93.7446 643.414 95.0176 645.768 95.0176C648.122 95.0176 650.032 93.745 650.032 92.1748V76.5392C650.032 76.3161 649.979 76.0961 649.878 75.8972C649.777 75.6982 649.631 75.5258 649.451 75.3939C649.271 75.262 649.062 75.1744 648.842 75.1381C648.622 75.1018 648.397 75.1178 648.184 75.1849Z" fill="#D9D9D9"/>
</g>
</svg>
