<svg width="820" height="520" viewBox="480 180 820 520" fill="none" xmlns="http://www.w3.org/2000/svg">
<defs>
<linearGradient id="paint15_linear_285_2703" x1="993.207" y1="539.816" x2="956.284" y2="371.508" gradientUnits="userSpaceOnUse">
<stop stop-color="#D9D9D9" stop-opacity="0.03"/>
<stop offset="0.643634" stop-color="#E5A1D1"/>
<stop offset="1" stop-color="#E6A1D2"/>
</linearGradient>
<radialGradient id="paint60_radial_285_2703" cx="0" cy="0" r="1" gradientUnits="userSpaceOnUse" gradientTransform="translate(929.563 462.576) rotate(4.79981) scale(22.2984)">
<stop offset="0.240385"/>
<stop offset="0.541667" stop-color="#0E0E0E"/>
<stop offset="0.567708" stop-color="#0A0A0A"/>
<stop offset="0.604167" stop-color="#111111"/>
<stop offset="0.630208" stop-color="#030303"/>
<stop offset="0.692708" stop-color="#0A0A0A"/>
<stop offset="0.739583" stop-color="#0C0C0C"/>
<stop offset="0.776042" stop-color="#090909"/>
<stop offset="0.802083" stop-color="#070707"/>
<stop offset="0.838484" stop-color="#050505"/>
<stop offset="0.894232" stop-color="#0D0D0D"/>
<stop offset="0.921875" stop-color="#0C0C0C"/>
<stop offset="0.96875" stop-color="#0C0C0C"/>
<stop offset="1" stop-color="#F8F8F8"/>
</radialGradient>
<radialGradient id="paint61_radial_285_2703" cx="0" cy="0" r="1" gradientUnits="userSpaceOnUse" gradientTransform="translate(929.563 462.576) rotate(4.79981) scale(22.2984)">
<stop offset="0.240385"/>
<stop offset="0.541667" stop-color="#0E0E0E"/>
<stop offset="0.567708" stop-color="#0A0A0A"/>
<stop offset="0.604167" stop-color="#111111"/>
<stop offset="0.630208" stop-color="#030303"/>
<stop offset="0.692708" stop-color="#0A0A0A"/>
<stop offset="0.739583" stop-color="#0C0C0C"/>
<stop offset="0.776042" stop-color="#090909"/>
<stop offset="0.802083" stop-color="#070707"/>
<stop offset="0.838484" stop-color="#050505"/>
<stop offset="0.894232" stop-color="#0D0D0D"/>
<stop offset="0.921875" stop-color="#0C0C0C"/>
<stop offset="0.96875" stop-color="#0C0C0C"/>
<stop offset="1" stop-color="#F8F8F8"/>
</radialGradient>
</defs>
<circle cx="929.5" cy="460.5" r="72.8449" transform="rotate(29.2261 929.5 460.5)" fill="url(#paint15_linear_285_2703)" fill-opacity="0.99" stroke="#CECECE" stroke-width="2"/>
<circle cx="929.5" cy="460.5" r="24.5" fill="#F5ABDE"/>
<circle cx="929.502" cy="462.502" r="29.5" transform="rotate(5.29063 929.502 462.502)" fill="#272727"/>
<path d="M931.428 440.356C943.7 441.387 952.813 452.17 951.783 464.442C950.752 476.714 939.969 485.827 927.697 484.796C915.425 483.766 906.312 472.982 907.342 460.71C908.373 448.439 919.157 439.326 931.428 440.356ZM929.086 465.461C930.811 465.606 932.326 464.325 932.471 462.6C932.616 460.875 931.335 459.359 929.61 459.214C927.885 459.069 926.369 460.35 926.225 462.075C926.08 463.8 927.361 465.316 929.086 465.461Z" fill="white"/>
<path d="M931.428 440.356C943.7 441.387 952.813 452.17 951.783 464.442C950.752 476.714 939.969 485.827 927.697 484.796C915.425 483.766 906.312 472.982 907.342 460.71C908.373 448.439 919.157 439.326 931.428 440.356ZM929.086 465.461C930.811 465.606 932.326 464.325 932.471 462.6C932.616 460.875 931.335 459.359 929.61 459.214C927.885 459.069 926.369 460.35 926.225 462.075C926.08 463.8 927.361 465.316 929.086 465.461Z" fill="url(#paint60_radial_285_2703)" fill-opacity="0.7"/>
<path d="M931.428 440.356C943.7 441.387 952.813 452.17 951.783 464.442C950.752 476.714 939.969 485.827 927.697 484.796C915.425 483.766 906.312 472.982 907.342 460.71C908.373 448.439 919.157 439.326 931.428 440.356ZM929.086 465.461C930.811 465.606 932.326 464.325 932.471 462.6C932.616 460.875 931.335 459.359 929.61 459.214C927.885 459.069 926.369 460.35 926.225 462.075C926.08 463.8 927.361 465.316 929.086 465.461Z" fill="white"/>
<path d="M931.428 440.356C943.7 441.387 952.813 452.17 951.783 464.442C950.752 476.714 939.969 485.827 927.697 484.796C915.425 483.766 906.312 472.982 907.342 460.71C908.373 448.439 919.157 439.326 931.428 440.356ZM929.086 465.461C930.811 465.606 932.326 464.325 932.471 462.6C932.616 460.875 931.335 459.359 929.61 459.214C927.885 459.069 926.369 460.35 926.225 462.075C926.08 463.8 927.361 465.316 929.086 465.461Z" fill="url(#paint61_radial_285_2703)" fill-opacity="0.7"/>
<path d="M948.216 440.139C949.115 440.246 949.757 441.062 949.65 441.961L947.664 458.673C947.413 460.784 946.216 462.667 944.411 463.79L939.545 466.818C938.777 467.296 937.766 467.061 937.288 466.292C936.809 465.524 937.044 464.513 937.813 464.034L941.673 461.632C943.268 460.639 944.325 458.976 944.547 457.11L946.394 441.574C946.501 440.675 947.316 440.033 948.216 440.139Z" fill="#D7D7D7"/>
</svg>
