<svg width="820" height="520" viewBox="480 180 820 520" fill="none" xmlns="http://www.w3.org/2000/svg">
<defs>
<linearGradient id="paint28_linear_285_2703" x1="1003.1" y1="445.883" x2="1065.57" y2="272.562" gradientUnits="userSpaceOnUse">
<stop stop-color="#D9D9D9" stop-opacity="0.03"/>
<stop offset="0.643634" stop-color="#29E3E1"/>
<stop offset="1" stop-color="#29E3E1"/>
</linearGradient>
</defs>
<circle cx="1032.02" cy="384.024" r="92.4909" transform="rotate(-31.1976 1032.02 384.024)" fill="url(#paint28_linear_285_2703)" fill-opacity="0.55"/>
<circle cx="1029.5" cy="383.5" r="44" fill="#555555" stroke="black" stroke-width="13"/>
<path d="M1044.67 361.119L1019.04 368.686C1018.52 368.849 1018.07 369.174 1017.75 369.613C1017.42 370.053 1017.25 370.584 1017.25 371.129V392.063C1016.41 391.86 1015.55 391.754 1014.69 391.749C1010.44 391.749 1007 394.045 1007 396.875C1007 399.705 1010.44 402 1014.69 402C1018.93 402 1022.38 399.705 1022.38 396.875V378.161L1042.88 372.155V386.939C1042.04 386.734 1041.18 386.629 1040.31 386.624C1036.07 386.624 1032.63 388.919 1032.63 391.749C1032.63 394.58 1036.07 396.875 1040.31 396.875C1044.56 396.875 1048 394.58 1048 391.749V363.56C1048 363.158 1047.9 362.761 1047.72 362.403C1047.54 362.044 1047.28 361.733 1046.95 361.495C1046.63 361.258 1046.25 361.1 1045.85 361.034C1045.46 360.969 1045.05 360.998 1044.67 361.119Z" fill="#D9D9D9"/>
</svg>
