<svg width="390" height="844" viewBox="0 0 390 844" fill="none" xmlns="http://www.w3.org/2000/svg">
<g clip-path="url(#clip0_53_7748)">
<rect width="390" height="844" fill="#14161F"/>
<g opacity="0.62">
<circle cx="260.89" cy="470.307" r="40.9986" transform="rotate(-31.1976 260.89 470.307)" fill="url(#paint0_linear_53_7748)" fill-opacity="0.55"/>
<circle cx="261.307" cy="404.307" r="40.9986" transform="rotate(-31.1976 261.307 404.307)" fill="url(#paint1_linear_53_7748)" fill-opacity="0.55"/>
<circle cx="60.212" cy="605.82" r="31.4406" transform="rotate(-31.1976 60.212 605.82)" fill="url(#paint2_linear_53_7748)" fill-opacity="0.55"/>
<circle cx="283.458" cy="515.443" r="40.9986" transform="rotate(-31.1976 283.458 515.443)" fill="url(#paint3_linear_53_7748)" fill-opacity="0.55"/>
<circle cx="234.941" cy="598.94" r="65.489" transform="rotate(-31.1976 234.941 598.94)" fill="url(#paint4_linear_53_7748)" fill-opacity="0.55"/>
<circle cx="277.332" cy="330.012" r="21.0957" transform="rotate(15.9962 277.332 330.012)" fill="url(#paint5_linear_53_7748)" fill-opacity="0.55"/>
<circle cx="332.092" cy="348.092" r="21.0957" transform="rotate(15.9962 332.092 348.092)" fill="url(#paint6_linear_53_7748)" fill-opacity="0.55"/>
<circle cx="156.01" cy="301.637" r="16.1776" transform="rotate(15.9962 156.01 301.637)" fill="url(#paint7_linear_53_7748)" fill-opacity="0.55"/>
<circle cx="268.184" cy="354.313" r="21.0957" transform="rotate(15.9962 268.184 354.313)" fill="url(#paint8_linear_53_7748)" fill-opacity="0.55"/>
<circle cx="206.439" cy="351.545" r="33.6971" transform="rotate(122.686 206.439 351.545)" fill="url(#paint9_linear_53_7748)" fill-opacity="0.55"/>
<circle cx="276.353" cy="522.353" r="52.6824" transform="rotate(-31.1976 276.353 522.353)" fill="url(#paint10_linear_53_7748)" fill-opacity="0.55"/>
<circle cx="211.787" cy="757.645" r="26.0789" transform="rotate(-31.1976 211.787 757.645)" fill="url(#paint11_linear_53_7748)" fill-opacity="0.55"/>
<circle cx="97.3528" cy="480.353" r="52.6824" transform="rotate(-31.1976 97.3528 480.353)" fill="url(#paint12_linear_53_7748)" fill-opacity="0.55"/>
<circle cx="274.418" cy="696.418" r="41.8077" transform="rotate(-31.1976 274.418 696.418)" fill="url(#paint13_linear_53_7748)" fill-opacity="0.55"/>
<circle cx="155.353" cy="425.353" r="52.6824" transform="rotate(-31.1976 155.353 425.353)" fill="url(#paint14_linear_53_7748)" fill-opacity="0.55"/>
<circle cx="112.353" cy="556.353" r="52.6824" transform="rotate(-31.1976 112.353 556.353)" fill="url(#paint15_linear_53_7748)" fill-opacity="0.55"/>
<circle cx="179.353" cy="649.353" r="52.6824" transform="rotate(-31.1976 179.353 649.353)" fill="url(#paint16_linear_53_7748)" fill-opacity="0.55"/>
</g>
<circle cx="-14.4682" cy="592.62" r="17.8624" transform="rotate(-31.1976 -14.4682 592.62)" fill="url(#paint17_linear_53_7748)" fill-opacity="0.55"/>
<path d="M37.5 36L27.5 46.5L37.5 56.5" stroke="white" stroke-width="6"/>
<circle cx="206.386" cy="398.386" r="86.1455" transform="rotate(-17.2186 206.386 398.386)" fill="url(#paint18_linear_53_7748)"/>
<circle cx="204.907" cy="395.925" r="43.494" transform="rotate(13.979 204.907 395.925)" fill="black"/>
<path d="M231.702 375.473C233.903 375.491 235.672 377.289 235.654 379.49L235.403 408.792C235.384 410.993 233.585 412.763 231.384 412.745L181.414 412.349C179.213 412.332 177.444 410.533 177.463 408.332L177.713 379.03C177.732 376.829 179.531 375.059 181.732 375.077L231.702 375.473ZM193.098 388.771C190.492 388.75 188.362 390.741 188.341 393.218C188.32 395.695 190.415 397.72 193.022 397.74C195.628 397.761 197.758 395.77 197.779 393.293C197.801 390.816 195.705 388.792 193.098 388.771ZM221.413 388.996C218.807 388.975 216.677 390.966 216.656 393.443C216.634 395.919 218.73 397.944 221.337 397.965C223.943 397.985 226.073 395.994 226.094 393.518C226.115 391.041 224.02 389.016 221.413 388.996Z" fill="black"/>
<path d="M231.403 410.532L231.385 412.746L181.415 412.35L181.434 410.136L231.403 410.532ZM233.19 408.775L233.44 379.473C233.448 378.526 232.711 377.746 231.775 377.691L231.684 377.688L181.714 377.292C180.736 377.284 179.936 378.071 179.927 379.049L179.677 408.351C179.669 409.329 180.455 410.128 181.434 410.136L181.415 412.35C179.214 412.332 177.444 410.534 177.463 408.333L177.714 379.031C177.732 376.83 179.532 375.06 181.733 375.078L231.703 375.474C233.904 375.492 235.673 377.29 235.654 379.491L235.404 408.793C235.385 410.994 233.585 412.764 231.385 412.746L231.403 410.532C232.382 410.54 233.181 409.753 233.19 408.775ZM197.78 393.294C197.801 390.817 195.705 388.793 193.099 388.772C190.492 388.751 188.362 390.742 188.341 393.219C188.32 395.696 190.416 397.72 193.022 397.741C195.629 397.762 197.759 395.771 197.78 393.294ZM226.094 393.519C226.115 391.119 224.149 389.145 221.657 389.005L221.414 388.997C218.807 388.976 216.677 390.967 216.656 393.444C216.635 395.92 218.731 397.945 221.337 397.966C223.943 397.986 226.073 395.995 226.094 393.519ZM199.994 393.312C199.961 397.116 196.725 399.985 193.003 399.955C189.282 399.926 186.095 397.006 186.127 393.202C186.16 389.397 189.396 386.529 193.118 386.558C196.839 386.588 200.026 389.507 199.994 393.312ZM228.308 393.536C228.276 397.34 225.04 400.209 221.318 400.18C217.597 400.15 214.41 397.231 214.442 393.426C214.475 389.622 217.711 386.753 221.433 386.783C225.154 386.812 228.341 389.732 228.308 393.536Z" fill="#D3D2D2"/>
<path d="M190.007 376.25L222.483 376.751L222.461 378.167C222.409 381.556 219.777 384.264 216.583 384.214L195.674 383.892C192.48 383.843 189.933 381.055 189.985 377.666L190.007 376.25Z" fill="#D3D2D2"/>
</g>
<defs>
<linearGradient id="paint0_linear_53_7748" x1="248.067" y1="497.727" x2="275.76" y2="420.898" gradientUnits="userSpaceOnUse">
<stop stop-color="#D9D9D9" stop-opacity="0.03"/>
<stop offset="0.643634" stop-color="#E5A1D1"/>
<stop offset="1" stop-color="#E6A1D2"/>
</linearGradient>
<linearGradient id="paint1_linear_53_7748" x1="248.483" y1="431.727" x2="276.177" y2="354.898" gradientUnits="userSpaceOnUse">
<stop stop-color="#D9D9D9" stop-opacity="0.03"/>
<stop offset="0.643634" stop-color="#E5A1D1"/>
<stop offset="1" stop-color="#E6A1D2"/>
</linearGradient>
<linearGradient id="paint2_linear_53_7748" x1="50.3782" y1="626.847" x2="71.6153" y2="567.93" gradientUnits="userSpaceOnUse">
<stop stop-color="#D9D9D9" stop-opacity="0.03"/>
<stop offset="0.643634" stop-color="#E5A1D1"/>
<stop offset="1" stop-color="#E6A1D2"/>
</linearGradient>
<linearGradient id="paint3_linear_53_7748" x1="270.635" y1="542.863" x2="298.328" y2="466.035" gradientUnits="userSpaceOnUse">
<stop stop-color="#D9D9D9" stop-opacity="0.03"/>
<stop offset="0.643634" stop-color="#E5A1D1"/>
<stop offset="1" stop-color="#E6A1D2"/>
</linearGradient>
<linearGradient id="paint4_linear_53_7748" x1="214.458" y1="642.74" x2="258.693" y2="520.018" gradientUnits="userSpaceOnUse">
<stop stop-color="#D9D9D9" stop-opacity="0.03"/>
<stop offset="0.643634" stop-color="#E5A1D1"/>
<stop offset="1" stop-color="#E6A1D2"/>
</linearGradient>
<linearGradient id="paint5_linear_53_7748" x1="270.734" y1="344.121" x2="284.983" y2="304.589" gradientUnits="userSpaceOnUse">
<stop stop-color="#D9D9D9" stop-opacity="0.03"/>
<stop offset="0.643634" stop-color="#29E3E1"/>
<stop offset="1" stop-color="#E6A1D2"/>
</linearGradient>
<linearGradient id="paint6_linear_53_7748" x1="325.494" y1="362.201" x2="339.744" y2="322.669" gradientUnits="userSpaceOnUse">
<stop stop-color="#D9D9D9" stop-opacity="0.03"/>
<stop offset="0.643634" stop-color="#E5A1D1"/>
<stop offset="1" stop-color="#E6A1D2"/>
</linearGradient>
<linearGradient id="paint7_linear_53_7748" x1="150.95" y1="312.457" x2="161.877" y2="282.141" gradientUnits="userSpaceOnUse">
<stop stop-color="#D9D9D9" stop-opacity="0.03"/>
<stop offset="0.643634" stop-color="#E5A1D1"/>
<stop offset="1" stop-color="#E6A1D2"/>
</linearGradient>
<linearGradient id="paint8_linear_53_7748" x1="261.586" y1="368.422" x2="275.835" y2="328.89" gradientUnits="userSpaceOnUse">
<stop stop-color="#D9D9D9" stop-opacity="0.03"/>
<stop offset="0.643634" stop-color="#E5A1D1"/>
<stop offset="1" stop-color="#E6A1D2"/>
</linearGradient>
<linearGradient id="paint9_linear_53_7748" x1="195.9" y1="374.081" x2="218.661" y2="310.936" gradientUnits="userSpaceOnUse">
<stop stop-color="#D9D9D9" stop-opacity="0.03"/>
<stop offset="0.643634" stop-color="#E5A1D1"/>
<stop offset="1" stop-color="#E6A1D2"/>
</linearGradient>
<linearGradient id="paint10_linear_53_7748" x1="259.875" y1="557.587" x2="295.46" y2="458.864" gradientUnits="userSpaceOnUse">
<stop stop-color="#D9D9D9" stop-opacity="0.03"/>
<stop offset="0.643634" stop-color="#29E3E1"/>
<stop offset="1" stop-color="#29E3E1"/>
</linearGradient>
<linearGradient id="paint11_linear_53_7748" x1="203.63" y1="775.087" x2="221.246" y2="726.217" gradientUnits="userSpaceOnUse">
<stop stop-color="#D9D9D9" stop-opacity="0.03"/>
<stop offset="0.643634" stop-color="#29E3E1"/>
<stop offset="1" stop-color="#29E3E1"/>
</linearGradient>
<linearGradient id="paint12_linear_53_7748" x1="80.8751" y1="515.587" x2="116.46" y2="416.865" gradientUnits="userSpaceOnUse">
<stop stop-color="#D9D9D9" stop-opacity="0.03"/>
<stop offset="0.643634" stop-color="#29E3E1"/>
<stop offset="1" stop-color="#29E3E1"/>
</linearGradient>
<linearGradient id="paint13_linear_53_7748" x1="261.341" y1="724.379" x2="289.581" y2="646.034" gradientUnits="userSpaceOnUse">
<stop stop-color="#D9D9D9" stop-opacity="0.03"/>
<stop offset="0.643634" stop-color="#29E3E1"/>
<stop offset="1" stop-color="#29E3E1"/>
</linearGradient>
<linearGradient id="paint14_linear_53_7748" x1="138.875" y1="460.587" x2="174.46" y2="361.864" gradientUnits="userSpaceOnUse">
<stop stop-color="#D9D9D9" stop-opacity="0.03"/>
<stop offset="0.643634" stop-color="#29E3E1"/>
<stop offset="1" stop-color="#29E3E1"/>
</linearGradient>
<linearGradient id="paint15_linear_53_7748" x1="95.8751" y1="591.587" x2="131.46" y2="492.864" gradientUnits="userSpaceOnUse">
<stop stop-color="#D9D9D9" stop-opacity="0.03"/>
<stop offset="0.643634" stop-color="#29E3E1"/>
<stop offset="1" stop-color="#29E3E1"/>
</linearGradient>
<linearGradient id="paint16_linear_53_7748" x1="162.875" y1="684.587" x2="198.46" y2="585.864" gradientUnits="userSpaceOnUse">
<stop stop-color="#D9D9D9" stop-opacity="0.03"/>
<stop offset="0.643634" stop-color="#29E3E1"/>
<stop offset="1" stop-color="#29E3E1"/>
</linearGradient>
<linearGradient id="paint17_linear_53_7748" x1="-20.0551" y1="604.566" x2="-7.98962" y2="571.094" gradientUnits="userSpaceOnUse">
<stop stop-color="#D9D9D9" stop-opacity="0.03"/>
<stop offset="0.643634" stop-color="#E5A1D1"/>
<stop offset="1" stop-color="#E6A1D2"/>
</linearGradient>
<linearGradient id="paint18_linear_53_7748" x1="179.442" y1="456.001" x2="251.845" y2="360.134" gradientUnits="userSpaceOnUse">
<stop stop-color="#D9D9D9" stop-opacity="0.03"/>
<stop offset="0.447115" stop-color="#7E82EB" stop-opacity="0.74"/>
<stop offset="1" stop-color="#7E82EB"/>
</linearGradient>
<clipPath id="clip0_53_7748">
<rect width="390" height="844" fill="white"/>
</clipPath>
</defs>
</svg>
