<svg width="390" height="844" viewBox="0 0 390 844" fill="none" xmlns="http://www.w3.org/2000/svg">
<g clip-path="url(#clip0_47_7503)">
<rect width="390" height="844" fill="#14161F"/>
<g opacity="0.62">
<circle cx="260.89" cy="470.307" r="40.9986" transform="rotate(-31.1976 260.89 470.307)" fill="url(#paint0_linear_47_7503)" fill-opacity="0.55"/>
<circle cx="261.307" cy="404.307" r="40.9986" transform="rotate(-31.1976 261.307 404.307)" fill="url(#paint1_linear_47_7503)" fill-opacity="0.55"/>
<circle cx="60.212" cy="605.82" r="31.4406" transform="rotate(-31.1976 60.212 605.82)" fill="url(#paint2_linear_47_7503)" fill-opacity="0.55"/>
<circle cx="283.458" cy="515.443" r="40.9986" transform="rotate(-31.1976 283.458 515.443)" fill="url(#paint3_linear_47_7503)" fill-opacity="0.55"/>
<circle cx="234.941" cy="598.94" r="65.489" transform="rotate(-31.1976 234.941 598.94)" fill="url(#paint4_linear_47_7503)" fill-opacity="0.55"/>
<circle cx="277.332" cy="330.012" r="21.0957" transform="rotate(15.9962 277.332 330.012)" fill="url(#paint5_linear_47_7503)" fill-opacity="0.55"/>
<circle cx="332.092" cy="348.092" r="21.0957" transform="rotate(15.9962 332.092 348.092)" fill="url(#paint6_linear_47_7503)" fill-opacity="0.55"/>
<circle cx="156.01" cy="301.637" r="16.1776" transform="rotate(15.9962 156.01 301.637)" fill="url(#paint7_linear_47_7503)" fill-opacity="0.55"/>
<circle cx="268.184" cy="354.313" r="21.0957" transform="rotate(15.9962 268.184 354.313)" fill="url(#paint8_linear_47_7503)" fill-opacity="0.55"/>
<circle cx="206.439" cy="351.545" r="33.6971" transform="rotate(122.686 206.439 351.545)" fill="url(#paint9_linear_47_7503)" fill-opacity="0.55"/>
<circle cx="276.353" cy="522.353" r="52.6824" transform="rotate(-31.1976 276.353 522.353)" fill="url(#paint10_linear_47_7503)" fill-opacity="0.55"/>
<circle cx="211.787" cy="757.645" r="26.0789" transform="rotate(-31.1976 211.787 757.645)" fill="url(#paint11_linear_47_7503)" fill-opacity="0.55"/>
<circle cx="97.3528" cy="480.353" r="52.6824" transform="rotate(-31.1976 97.3528 480.353)" fill="url(#paint12_linear_47_7503)" fill-opacity="0.55"/>
<circle cx="274.418" cy="696.418" r="41.8077" transform="rotate(-31.1976 274.418 696.418)" fill="url(#paint13_linear_47_7503)" fill-opacity="0.55"/>
<circle cx="155.353" cy="425.353" r="52.6824" transform="rotate(-31.1976 155.353 425.353)" fill="url(#paint14_linear_47_7503)" fill-opacity="0.55"/>
<circle cx="112.353" cy="556.353" r="52.6824" transform="rotate(-31.1976 112.353 556.353)" fill="url(#paint15_linear_47_7503)" fill-opacity="0.55"/>
<circle cx="179.353" cy="649.353" r="52.6824" transform="rotate(-31.1976 179.353 649.353)" fill="url(#paint16_linear_47_7503)" fill-opacity="0.55"/>
</g>
<circle cx="-14.4682" cy="592.62" r="17.8624" transform="rotate(-31.1976 -14.4682 592.62)" fill="url(#paint17_linear_47_7503)" fill-opacity="0.55"/>
<path d="M37.5 36L27.5 46.5L37.5 56.5" stroke="white" stroke-width="6"/>
<circle cx="197.512" cy="63.5118" r="37.0628" transform="rotate(-32.1464 197.512 63.5118)" fill="url(#paint18_linear_47_7503)"/>
<circle cx="196.875" cy="62.453" r="18.7127" transform="rotate(13.979 196.875 62.453)" fill="black"/>
<path d="M208.403 53.6537C209.35 53.6612 210.111 54.4349 210.103 55.3818L209.996 67.9886C209.988 68.9354 209.213 69.697 208.266 69.6895L186.768 69.519C185.821 69.5115 185.06 68.7378 185.068 67.7909L185.175 55.1841C185.183 54.2373 185.958 53.4757 186.904 53.4832L208.403 53.6537ZM191.795 59.375C190.673 59.3661 189.757 60.2227 189.748 61.2883C189.739 62.3539 190.64 63.2249 191.762 63.2338C192.883 63.2427 193.799 62.3861 193.809 61.3205C193.818 60.2549 192.916 59.3839 191.795 59.375ZM203.977 59.4716C202.855 59.4627 201.939 60.3193 201.93 61.3849C201.921 62.4505 202.822 63.3215 203.944 63.3304C205.065 63.3392 205.981 62.4826 205.99 61.4171C206 60.3515 205.098 59.4805 203.977 59.4716Z" fill="black"/>
<path d="M208.275 68.7375L208.267 69.69L186.768 69.5195L186.776 68.567L208.275 68.7375ZM209.044 67.9815L209.151 55.3748C209.155 54.9672 208.837 54.6316 208.435 54.6079L208.396 54.6067L186.897 54.4362C186.476 54.4329 186.132 54.7714 186.128 55.1922L186.021 67.7989C186.017 68.2196 186.355 68.5636 186.776 68.567L186.768 69.5195C185.821 69.512 185.06 68.7383 185.068 67.7914L185.176 55.1846C185.184 54.2377 185.958 53.4762 186.905 53.4837L208.404 53.6542C209.351 53.6617 210.112 54.4354 210.104 55.3823L209.996 67.989C209.988 68.9359 209.214 69.6974 208.267 69.69L208.275 68.7375C208.696 68.7408 209.04 68.4023 209.044 67.9815ZM193.809 61.321C193.818 60.2554 192.916 59.3844 191.795 59.3755C190.674 59.3666 189.757 60.2232 189.748 61.2888C189.739 62.3544 190.641 63.2254 191.762 63.2343C192.883 63.2432 193.8 62.3866 193.809 61.321ZM205.991 61.4176C206 60.3853 205.154 59.5358 204.082 59.4755L203.977 59.4721C202.856 59.4632 201.939 60.3198 201.93 61.3854C201.921 62.4509 202.823 63.322 203.944 63.3309C205.066 63.3397 205.982 62.4831 205.991 61.4176ZM194.762 61.3285C194.748 62.9654 193.355 64.1995 191.754 64.1868C190.153 64.1741 188.782 62.9181 188.796 61.2812C188.81 59.6443 190.202 58.4102 191.803 58.4229C193.404 58.4356 194.776 59.6917 194.762 61.3285ZM206.943 61.4251C206.929 63.0619 205.537 64.296 203.936 64.2834C202.335 64.2707 200.964 63.0147 200.978 61.3778C200.992 59.7409 202.384 58.5069 203.985 58.5195C205.586 58.5323 206.957 59.7884 206.943 61.4251Z" fill="#D3D2D2"/>
<path d="M190.464 53.9882L204.437 54.2036L204.427 54.8128C204.405 56.271 203.273 57.4358 201.898 57.4146L192.902 57.2759C191.528 57.2547 190.432 56.0555 190.455 54.5974L190.464 53.9882Z" fill="#D3D2D2"/>
</g>
<defs>
<linearGradient id="paint0_linear_47_7503" x1="248.067" y1="497.727" x2="275.76" y2="420.898" gradientUnits="userSpaceOnUse">
<stop stop-color="#D9D9D9" stop-opacity="0.03"/>
<stop offset="0.643634" stop-color="#E5A1D1"/>
<stop offset="1" stop-color="#E6A1D2"/>
</linearGradient>
<linearGradient id="paint1_linear_47_7503" x1="248.483" y1="431.727" x2="276.177" y2="354.898" gradientUnits="userSpaceOnUse">
<stop stop-color="#D9D9D9" stop-opacity="0.03"/>
<stop offset="0.643634" stop-color="#E5A1D1"/>
<stop offset="1" stop-color="#E6A1D2"/>
</linearGradient>
<linearGradient id="paint2_linear_47_7503" x1="50.3782" y1="626.847" x2="71.6153" y2="567.93" gradientUnits="userSpaceOnUse">
<stop stop-color="#D9D9D9" stop-opacity="0.03"/>
<stop offset="0.643634" stop-color="#E5A1D1"/>
<stop offset="1" stop-color="#E6A1D2"/>
</linearGradient>
<linearGradient id="paint3_linear_47_7503" x1="270.635" y1="542.863" x2="298.328" y2="466.035" gradientUnits="userSpaceOnUse">
<stop stop-color="#D9D9D9" stop-opacity="0.03"/>
<stop offset="0.643634" stop-color="#E5A1D1"/>
<stop offset="1" stop-color="#E6A1D2"/>
</linearGradient>
<linearGradient id="paint4_linear_47_7503" x1="214.458" y1="642.74" x2="258.693" y2="520.018" gradientUnits="userSpaceOnUse">
<stop stop-color="#D9D9D9" stop-opacity="0.03"/>
<stop offset="0.643634" stop-color="#E5A1D1"/>
<stop offset="1" stop-color="#E6A1D2"/>
</linearGradient>
<linearGradient id="paint5_linear_47_7503" x1="270.734" y1="344.121" x2="284.983" y2="304.589" gradientUnits="userSpaceOnUse">
<stop stop-color="#D9D9D9" stop-opacity="0.03"/>
<stop offset="0.643634" stop-color="#29E3E1"/>
<stop offset="1" stop-color="#E6A1D2"/>
</linearGradient>
<linearGradient id="paint6_linear_47_7503" x1="325.494" y1="362.201" x2="339.744" y2="322.669" gradientUnits="userSpaceOnUse">
<stop stop-color="#D9D9D9" stop-opacity="0.03"/>
<stop offset="0.643634" stop-color="#E5A1D1"/>
<stop offset="1" stop-color="#E6A1D2"/>
</linearGradient>
<linearGradient id="paint7_linear_47_7503" x1="150.95" y1="312.457" x2="161.877" y2="282.141" gradientUnits="userSpaceOnUse">
<stop stop-color="#D9D9D9" stop-opacity="0.03"/>
<stop offset="0.643634" stop-color="#E5A1D1"/>
<stop offset="1" stop-color="#E6A1D2"/>
</linearGradient>
<linearGradient id="paint8_linear_47_7503" x1="261.586" y1="368.422" x2="275.835" y2="328.89" gradientUnits="userSpaceOnUse">
<stop stop-color="#D9D9D9" stop-opacity="0.03"/>
<stop offset="0.643634" stop-color="#E5A1D1"/>
<stop offset="1" stop-color="#E6A1D2"/>
</linearGradient>
<linearGradient id="paint9_linear_47_7503" x1="195.9" y1="374.081" x2="218.661" y2="310.936" gradientUnits="userSpaceOnUse">
<stop stop-color="#D9D9D9" stop-opacity="0.03"/>
<stop offset="0.643634" stop-color="#E5A1D1"/>
<stop offset="1" stop-color="#E6A1D2"/>
</linearGradient>
<linearGradient id="paint10_linear_47_7503" x1="259.875" y1="557.587" x2="295.46" y2="458.864" gradientUnits="userSpaceOnUse">
<stop stop-color="#D9D9D9" stop-opacity="0.03"/>
<stop offset="0.643634" stop-color="#29E3E1"/>
<stop offset="1" stop-color="#29E3E1"/>
</linearGradient>
<linearGradient id="paint11_linear_47_7503" x1="203.63" y1="775.087" x2="221.246" y2="726.217" gradientUnits="userSpaceOnUse">
<stop stop-color="#D9D9D9" stop-opacity="0.03"/>
<stop offset="0.643634" stop-color="#29E3E1"/>
<stop offset="1" stop-color="#29E3E1"/>
</linearGradient>
<linearGradient id="paint12_linear_47_7503" x1="80.8751" y1="515.587" x2="116.46" y2="416.865" gradientUnits="userSpaceOnUse">
<stop stop-color="#D9D9D9" stop-opacity="0.03"/>
<stop offset="0.643634" stop-color="#29E3E1"/>
<stop offset="1" stop-color="#29E3E1"/>
</linearGradient>
<linearGradient id="paint13_linear_47_7503" x1="261.341" y1="724.379" x2="289.581" y2="646.034" gradientUnits="userSpaceOnUse">
<stop stop-color="#D9D9D9" stop-opacity="0.03"/>
<stop offset="0.643634" stop-color="#29E3E1"/>
<stop offset="1" stop-color="#29E3E1"/>
</linearGradient>
<linearGradient id="paint14_linear_47_7503" x1="138.875" y1="460.587" x2="174.46" y2="361.864" gradientUnits="userSpaceOnUse">
<stop stop-color="#D9D9D9" stop-opacity="0.03"/>
<stop offset="0.643634" stop-color="#29E3E1"/>
<stop offset="1" stop-color="#29E3E1"/>
</linearGradient>
<linearGradient id="paint15_linear_47_7503" x1="95.8751" y1="591.587" x2="131.46" y2="492.864" gradientUnits="userSpaceOnUse">
<stop stop-color="#D9D9D9" stop-opacity="0.03"/>
<stop offset="0.643634" stop-color="#29E3E1"/>
<stop offset="1" stop-color="#29E3E1"/>
</linearGradient>
<linearGradient id="paint16_linear_47_7503" x1="162.875" y1="684.587" x2="198.46" y2="585.864" gradientUnits="userSpaceOnUse">
<stop stop-color="#D9D9D9" stop-opacity="0.03"/>
<stop offset="0.643634" stop-color="#29E3E1"/>
<stop offset="1" stop-color="#29E3E1"/>
</linearGradient>
<linearGradient id="paint17_linear_47_7503" x1="-20.0551" y1="604.566" x2="-7.98962" y2="571.094" gradientUnits="userSpaceOnUse">
<stop stop-color="#D9D9D9" stop-opacity="0.03"/>
<stop offset="0.643634" stop-color="#E5A1D1"/>
<stop offset="1" stop-color="#E6A1D2"/>
</linearGradient>
<linearGradient id="paint18_linear_47_7503" x1="185.92" y1="88.2996" x2="217.07" y2="47.0545" gradientUnits="userSpaceOnUse">
<stop stop-color="#D9D9D9" stop-opacity="0.03"/>
<stop offset="0.447115" stop-color="#7E82EB" stop-opacity="0.74"/>
<stop offset="1" stop-color="#7E82EB"/>
</linearGradient>
<clipPath id="clip0_47_7503">
<rect width="390" height="844" fill="white"/>
</clipPath>
</defs>
</svg>
