<svg width="903" height="324" viewBox="11 513 903 324" fill="none" xmlns="http://www.w3.org/2000/svg">
<foreignObject x="11" y="513" width="903" height="324"><div xmlns="http://www.w3.org/1999/xhtml" style="backdrop-filter:blur(2.15px);clip-path:url(#bgblur_2_517_5148_clip_path);height:100%;width:100%"></div></foreignObject><g filter="url(#filter1_d_517_5148)" data-figma-bg-blur-radius="4.3">
<path d="M58 605C58 590.641 69.6406 579 84 579L841 579C855.359 579 867 590.641 867 605L867 694L867 782C867 796.912 854.912 809 840 809L85.0001 809C70.0884 809 58 796.912 58 782L58 605Z" fill="#262525" fill-opacity="0.67"/>
<path d="M84 579.5L841 579.5C855.083 579.5 866.5 590.917 866.5 605L866.5 782C866.5 796.636 854.636 808.5 840 808.5L85 808.5C70.3645 808.5 58.5 796.636 58.5 782L58.5 605C58.5 591.137 69.5628 579.858 83.3418 579.509L84 579.5Z" stroke="url(#paint1_linear_517_5148)"/>
</g>
<defs>
<filter id="filter1_d_517_5148" x="11" y="513" width="903" height="324" filterUnits="userSpaceOnUse" color-interpolation-filters="sRGB">
<feFlood flood-opacity="0" result="BackgroundImageFix"/>
<feColorMatrix in="SourceAlpha" type="matrix" values="0 0 0 0 0 0 0 0 0 0 0 0 0 0 0 0 0 0 127 0" result="hardAlpha"/>
<feOffset dy="-19"/>
<feGaussianBlur stdDeviation="23.5"/>
<feColorMatrix type="matrix" values="0 0 0 0 0 0 0 0 0 0 0 0 0 0 0 0 0 0 0.06 0"/>
<feBlend mode="normal" in2="BackgroundImageFix" result="effect1_dropShadow_517_5148"/>
<feBlend mode="normal" in="SourceGraphic" in2="effect1_dropShadow_517_5148" result="shape"/>
</filter>
<clipPath id="bgblur_2_517_5148_clip_path" transform="translate(-11 -513)"><path d="M58 605C58 590.641 69.6406 579 84 579L841 579C855.359 579 867 590.641 867 605L867 694L867 782C867 796.912 854.912 809 840 809L85.0001 809C70.0884 809 58 796.912 58 782L58 605Z"/>
</clipPath>
<linearGradient id="paint1_linear_517_5148" x1="233.629" y1="460.448" x2="815.243" y2="762.152" gradientUnits="userSpaceOnUse">
<stop stop-color="white" stop-opacity="0.5"/>
<stop offset="0.34611" stop-color="white" stop-opacity="0.65389"/>
<stop offset="0.636075" stop-color="white" stop-opacity="0.363925"/>
<stop offset="1" stop-color="white" stop-opacity="0.5"/>
</linearGradient>
</defs>
</svg>
