<svg width="1366" height="1024" viewBox="0 0 1366 1024" fill="none" xmlns="http://www.w3.org/2000/svg" xmlns:xlink="http://www.w3.org/1999/xlink">
<g clip-path="url(#clip0_518_6133)">
<rect width="1024" height="1366" transform="translate(1366 5.97098e-05) rotate(90)" fill="white"/>
<rect x="-53" y="5.97098e-05" width="1455" height="1014" fill="url(#pattern0_518_6133)"/>
<path d="M607.478 258.27L672.953 444.586L643.41 458.247L577.007 268.959L607.478 258.27Z" fill="#29E7E5"/>
<ellipse cx="704.16" cy="472.465" rx="84.9277" ry="83.5354" fill="#FCAFE4"/>
<ellipse cx="589.535" cy="447.875" rx="83.5354" ry="82.1432" fill="#29E7E5"/>
<path d="M658.748 401.866C667.789 414.992 673.071 430.827 673.071 447.875C673.071 477.592 657.022 503.622 632.983 518.045C624.29 504.938 619.237 489.282 619.237 472.465C619.237 442.76 635.001 416.677 658.748 401.866Z" fill="#9770BF"/>
<path d="M563.549 233H716.239L744.542 295.188H586.223L563.549 233Z" fill="#29E7E5"/>
<path d="M719.849 266.839L784.521 451.771L754.05 462.459L687.647 273.172L719.849 266.839Z" fill="#FCAFE4"/>
<path d="M680.494 256.202C680.494 256.202 712.347 256.224 729.352 257.673C756.044 259.949 771.221 268.912 798.782 270.902C815.923 272.14 836.764 270.902 836.764 270.902L860.095 329.604C860.095 329.604 822.968 340.374 785.925 329.604C748.881 318.833 705.352 319.865 705.352 319.865L680.494 256.202Z" fill="#FCAFE4"/>
<path d="M680.494 256.202C680.561 256.202 710.043 256.224 727.398 257.519L744.542 295.188H695.716L680.494 256.202Z" fill="#9770BF"/>
<path d="M618.436 705.832H620.98V710.872H639.892V713.32H620.98V720.232H636.292V734.968H605.332V720.232H618.436V705.832ZM633.748 732.52V722.68H607.924V732.52H633.748ZM605.188 737.416L607.396 738.52C605.572 742.744 603.46 746.392 601.012 749.464L598.9 747.976C601.348 745 603.46 741.496 605.188 737.416ZM614.884 738.76C615.844 741.976 616.756 745.48 617.524 749.224L614.884 749.848C614.26 745.816 613.444 742.312 612.436 739.288L614.884 738.76ZM624.964 738.328C626.404 741.64 627.7 745.24 628.804 749.128L626.212 749.752C625.204 745.624 624.004 741.976 622.564 738.856L624.964 738.328ZM635.044 737.464C638.116 741.544 640.42 745.096 642.052 748.168L639.94 749.656C638.212 746.392 635.86 742.792 632.932 738.808L635.044 737.464ZM651.124 713.32H667.156V706.216H669.844V713.32H685.636V715.768H669.844V724.6H689.572V727.096H669.844V745H682.036V731.848H684.484V749.752H682.036V747.4H652.564V731.848H655.012V745H667.156V727.096H647.476V724.6H667.156V715.768H651.124V713.32ZM726.1 728.728H716.452V731.32C716.404 732.952 716.308 734.44 716.116 735.88H726.1V728.728ZM726.1 738.328H715.732C715.3 740.248 714.676 741.88 713.908 743.32C712.276 746.104 709.588 748.312 705.94 749.896L704.452 747.592C707.908 746.152 710.356 744.184 711.844 741.592C712.324 740.584 712.708 739.48 713.044 738.328H704.02V735.88H713.524C713.716 734.44 713.86 732.952 713.908 731.32V728.728H705.748V726.232H714.004C712.996 724.456 711.988 722.872 710.98 721.528L713.188 720.424C714.436 722.2 715.636 724.12 716.74 726.232H724.708C726.244 724.312 727.54 722.248 728.596 720.088L731.044 721C729.988 722.92 728.788 724.696 727.444 726.232H735.844V728.728H728.644V735.88H737.764V738.328H728.644V749.32H726.1V738.328ZM732.484 710.296H702.628V716.104H732.484V710.296ZM702.628 718.552V723.448C702.58 733.576 700.804 742.264 697.3 749.56L695.092 747.592C698.356 741.352 700.036 733.288 700.084 723.448V707.8H735.076V718.552H702.628ZM763.348 734.488H765.844V738.136H778.132C775.204 736.504 772.948 734.68 771.364 732.616H758.74C756.916 734.68 754.564 736.504 751.636 738.136H763.348V734.488ZM763.348 740.248H753.412V748.504H750.916V738.52C748.804 739.576 746.452 740.584 743.956 741.496L742.804 739.336C748.564 737.512 752.884 735.256 755.764 732.616H743.908V730.408H757.732C758.452 729.4 759.028 728.392 759.412 727.384H749.428V715.048H755.092V711.496H743.332V709.288H755.092V705.88H757.636V709.288H771.412V705.88H773.956V709.288H785.668V711.496H773.956V715.048H779.62V727.384H761.812C761.428 728.44 760.948 729.448 760.372 730.408H785.092V732.616H773.908C776.596 735.352 780.724 737.512 786.388 739.096L785.332 741.256C782.98 740.488 780.916 739.624 779.092 738.664V745.192C779.092 747.4 777.844 748.552 775.444 748.552H771.604L771.028 746.344L774.724 746.44C775.972 746.44 776.644 745.816 776.644 744.664V740.248H765.844V749.608H763.348V740.248ZM771.412 711.496H757.636V715.048H771.412V711.496ZM777.124 725.512V722.056H751.924V725.512H777.124ZM751.924 720.28H777.124V716.968H751.924V720.28ZM509.184 776H546.24V778.544H537.984V792.176H548.784V794.72H537.984V816.32H535.392V794.72H520.656C520.272 799.76 519.36 803.936 517.92 807.248C516.096 811.184 513.12 814.304 508.944 816.56L507.456 814.352C511.392 812.144 514.224 809.12 515.904 805.28C517.008 802.4 517.728 798.848 518.064 794.72H506.592V792.176H518.208C518.208 791.408 518.256 790.736 518.256 790.064V778.544H509.184V776ZM520.848 778.544V790.064C520.848 790.784 520.8 791.504 520.8 792.176H535.392V778.544H520.848ZM559.92 772.736L562.464 773.024C561.984 776.384 561.552 779.504 561.12 782.384H568.416V783.92C568.032 791.792 566.64 798.56 564.24 804.224C566.64 806.672 568.56 808.88 570.048 810.8L568.32 812.816C566.88 810.944 565.152 808.928 563.088 806.72C561.12 810.656 558.624 813.968 555.648 816.752L554.016 814.736C556.992 812 559.44 808.688 561.312 804.848C559.44 802.928 557.328 800.864 555.024 798.704C556.176 794.48 557.232 789.824 558.144 784.832H553.92V782.384H558.576C559.056 779.264 559.536 776.048 559.92 772.736ZM562.416 802.352C564.432 797.312 565.632 791.456 566.016 784.832H560.688C559.728 790.064 558.768 794.432 557.76 797.888C559.488 799.472 561.024 800.96 562.416 802.352ZM593.904 796.736V816.704H591.408V813.68H575.52V816.704H573.024V796.736H593.904ZM575.52 811.184H591.408V799.136H575.52V811.184ZM570.96 791.84L570.48 789.488C573.6 787.568 577.2 782 581.232 772.88L583.68 773.696C580.56 780.56 577.488 785.744 574.464 789.296C580.608 788.864 586.272 788.24 591.504 787.424C590.016 784.64 588.48 782 586.944 779.6L589.2 778.496C591.936 782.768 594.48 787.424 596.88 792.416L594.528 793.616C593.904 792.272 593.28 790.928 592.656 789.68C586.128 790.64 578.928 791.36 570.96 791.84ZM613.392 777.728H616.848L630.576 812H627.36L623.376 801.776H606.864L602.88 812H599.664L613.392 777.728ZM607.824 799.28H622.416L615.216 780.896H615.072L607.824 799.28ZM634.491 777.728H637.419V812H634.491V777.728ZM675.08 802.976V811.952C675.08 813.104 675.8 813.68 677.288 813.68H681.416C682.472 813.68 683.192 813.44 683.624 812.96C684.152 812.336 684.536 810.512 684.728 807.44L687.032 808.208C686.744 811.904 686.216 814.16 685.352 815.024C684.632 815.696 683.48 816.08 681.896 816.08H676.568C673.88 816.08 672.584 814.88 672.584 812.48V794.768H675.08V800.672C678.776 800 682.088 798.896 684.968 797.456L685.832 799.712C682.76 801.152 679.16 802.208 675.08 802.976ZM646.856 773.888C650.504 776.192 653.576 778.544 656.024 780.896L654.152 782.768C651.944 780.512 648.872 778.16 645.032 775.664L646.856 773.888ZM645.704 785.36C649.016 787.664 651.752 789.92 653.96 792.176L652.088 794.048C650.072 791.84 647.336 789.584 643.832 787.184L645.704 785.36ZM652.328 798.128L654.584 799.04C652.28 805.088 649.736 810.848 646.952 816.224L644.408 815.168C647.48 809.6 650.12 803.888 652.328 798.128ZM658.952 774.848H682.136V792.128H658.952V774.848ZM679.64 789.824V784.592H661.448V789.824H679.64ZM661.448 782.384H679.64V777.104H661.448V782.384ZM661.112 802.88V813.392C664.376 812.816 667.256 812.144 669.656 811.472L670.088 813.824C666.728 814.688 662.696 815.504 658.04 816.176L657.368 813.92C658.232 813.632 658.664 813.008 658.664 812.144V794.768H661.112V800.528H669.896V802.88H661.112ZM731.432 781.472V816.512H728.888V813.872H697.784V816.512H695.24V781.472H706.616V772.784H709.16V781.472H717.368V772.784H719.912V781.472H731.432ZM697.784 811.328H706.616V798.368H697.784V811.328ZM709.16 798.368V811.328H717.368V798.368H709.16ZM719.912 798.368V811.328H728.888V798.368H719.912ZM697.784 795.872H706.616V783.968H697.784V795.872ZM709.16 783.968V795.872H717.368V783.968H709.16ZM719.912 783.968V795.872H728.888V783.968H719.912ZM745.496 789.632C743.864 792.128 742.04 794.48 740.12 796.688L739.304 794.144C744.488 787.808 748.184 780.704 750.488 772.736L752.84 773.84C751.544 777.968 749.96 781.808 748.04 785.36V816.752H745.496V789.632ZM752.216 781.52H765.416V772.832H767.96V781.52H781.4V784.016H771.128C773.384 792.32 777.416 799.712 783.272 806.144L781.592 808.208C775.448 801.056 771.224 792.992 768.92 784.016H767.96V804.032H775.928V806.528H767.96V816.704H765.416V806.528H757.592V804.032H765.416V784.016H764.456C761.96 794.144 757.688 802.4 751.64 808.784L750.296 806.576C755.96 800.768 759.992 793.232 762.392 784.016H752.216V781.52ZM811.064 787.088H824.36V789.488H811.064V787.088ZM805.112 812.432H820.856C822.776 807.2 824.504 800.672 825.992 792.896L828.488 793.568C827.096 800.672 825.368 806.96 823.352 812.432H831.128V814.928H805.112V812.432ZM808.952 794.336C810.536 798.368 811.976 803.024 813.224 808.208L810.968 808.784C809.816 804.032 808.424 799.472 806.696 795.104L808.952 794.336ZM816.344 792.944C817.736 796.784 818.936 801.2 819.992 806.144L817.736 806.72C816.776 802.208 815.528 797.84 814.088 793.712L816.344 792.944ZM816.392 773.216H818.792C821.288 779.456 825.56 784.976 831.608 789.68L830.168 791.84C824.552 787.52 820.376 782.144 817.592 775.76C814.28 782.768 810.104 788.144 805.112 791.936L803.768 789.872C809.192 785.6 813.416 780.032 816.392 773.216ZM800.024 777.776H788.168V775.376H802.616L800.36 795.104H803.528C803.528 805.76 803.048 811.952 802.184 813.584C801.224 815.216 799.304 816.032 796.424 816.032C795.368 816.032 794.216 815.984 793.016 815.936L792.296 813.632C794.024 813.776 795.224 813.872 795.896 813.872C798.296 813.872 799.784 813.056 800.312 811.472C800.792 809.888 801.08 805.232 801.08 797.504H788.792L791.048 781.376L793.448 781.52L791.48 795.104H797.864L800.024 777.776ZM797.864 802.496V804.848C794.696 806.096 791.144 807.056 787.16 807.824L786.824 805.328C791.048 804.656 794.696 803.696 797.864 802.496ZM849.032 790.064C850.568 790.064 852.344 790.544 854.456 791.6C855.8 792.32 857.24 793.136 858.776 794.048C861.944 795.872 864.44 796.784 866.264 796.784C868.76 796.784 871.256 794.912 873.752 791.168L875.768 792.704C872.84 797.12 869.672 799.376 866.264 799.376C864.056 799.376 861.368 798.464 858.2 796.64C856.664 795.68 855.224 794.816 853.88 794.144C851.96 793.136 850.328 792.656 849.032 792.656C846.152 792.656 843.464 794.432 840.968 798.032L838.952 796.448C841.88 792.176 845.24 790.064 849.032 790.064Z" fill="white"/>
</g>
<defs>
<pattern id="pattern0_518_6133" patternContentUnits="objectBoundingBox" width="1" height="1">
<use xlink:href="#image0_518_6133" transform="matrix(0.000450107 0 0 0.000645991 -6.90096e-05 -0.124882)"/>
</pattern>
<clipPath id="clip0_518_6133">
<rect width="1024" height="1366" fill="white" transform="translate(1366 5.97098e-05) rotate(90)"/>
</clipPath>
</defs>
</svg>
