<svg width="903" height="144" viewBox="11 448 903 144" fill="none" xmlns="http://www.w3.org/2000/svg">
<foreignObject x="11" y="448" width="903" height="144"><div xmlns="http://www.w3.org/1999/xhtml" style="backdrop-filter:blur(2.15px);clip-path:url(#bgblur_8_517_5148_clip_path);height:100%;width:100%"></div></foreignObject><g filter="url(#filter7_d_517_5148)" data-figma-bg-blur-radius="4.3">
<path d="M58 538.528C58 524.982 68.9817 514 82.5283 514H842C855.807 514 867 525.193 867 539C867 552.807 855.807 564 842 564H83.4717C69.4041 564 58 552.596 58 538.528Z" fill="black"/>
<path d="M82.5284 514.5H842C855.531 514.5 866.5 525.469 866.5 539C866.5 552.531 855.531 563.5 842 563.5H83.4717C69.6802 563.5 58.5001 552.32 58.5 538.528C58.5 525.258 69.2579 514.5 82.5284 514.5Z" stroke="url(#paint8_linear_517_5148)"/>
</g>
<defs>
<filter id="filter7_d_517_5148" x="11" y="448" width="903" height="144" filterUnits="userSpaceOnUse" color-interpolation-filters="sRGB">
<feFlood flood-opacity="0" result="BackgroundImageFix"/>
<feColorMatrix in="SourceAlpha" type="matrix" values="0 0 0 0 0 0 0 0 0 0 0 0 0 0 0 0 0 0 127 0" result="hardAlpha"/>
<feOffset dy="-19"/>
<feGaussianBlur stdDeviation="23.5"/>
<feColorMatrix type="matrix" values="0 0 0 0 0 0 0 0 0 0 0 0 0 0 0 0 0 0 0.06 0"/>
<feBlend mode="normal" in2="BackgroundImageFix" result="effect1_dropShadow_517_5148"/>
<feBlend mode="normal" in="SourceGraphic" in2="effect1_dropShadow_517_5148" result="shape"/>
</filter>
<clipPath id="bgblur_8_517_5148_clip_path" transform="translate(-11 -448)"><path d="M58 538.528C58 524.982 68.9817 514 82.5283 514H842C855.807 514 867 525.193 867 539C867 552.807 855.807 564 842 564H83.4717C69.4041 564 58 552.596 58 538.528Z"/>
</clipPath>
<linearGradient id="paint8_linear_517_5148" x1="233.629" y1="488.228" x2="343.897" y2="751.348" gradientUnits="userSpaceOnUse">
<stop stop-color="white" stop-opacity="0.5"/>
<stop offset="0.34611" stop-color="white" stop-opacity="0.65389"/>
<stop offset="0.636075" stop-color="white" stop-opacity="0.363925"/>
<stop offset="1" stop-color="white" stop-opacity="0.5"/>
</linearGradient>
</defs>
</svg>
