<svg width="903" height="144" viewBox="11 121 903 144" fill="none" xmlns="http://www.w3.org/2000/svg">
<foreignObject x="11" y="121" width="903" height="144"><div xmlns="http://www.w3.org/1999/xhtml" style="backdrop-filter:blur(2.15px);clip-path:url(#bgblur_14_517_5148_clip_path);height:100%;width:100%"></div></foreignObject><g filter="url(#filter13_d_517_5148)" data-figma-bg-blur-radius="4.3">
<path d="M58 211.528C58 197.982 68.9817 187 82.5283 187H842C855.807 187 867 198.193 867 212C867 225.807 855.807 237 842 237H83.4717C69.4041 237 58 225.596 58 211.528Z" fill="black"/>
<path d="M82.5284 187.5H842C855.531 187.5 866.5 198.469 866.5 212C866.5 225.531 855.531 236.5 842 236.5H83.4717C69.6802 236.5 58.5001 225.32 58.5 211.528C58.5 198.258 69.2579 187.5 82.5284 187.5Z" stroke="url(#paint22_linear_517_5148)"/>
</g>
<defs>
<filter id="filter13_d_517_5148" x="11" y="121" width="903" height="144" filterUnits="userSpaceOnUse" color-interpolation-filters="sRGB">
<feFlood flood-opacity="0" result="BackgroundImageFix"/>
<feColorMatrix in="SourceAlpha" type="matrix" values="0 0 0 0 0 0 0 0 0 0 0 0 0 0 0 0 0 0 127 0" result="hardAlpha"/>
<feOffset dy="-19"/>
<feGaussianBlur stdDeviation="23.5"/>
<feColorMatrix type="matrix" values="0 0 0 0 0 0 0 0 0 0 0 0 0 0 0 0 0 0 0.06 0"/>
<feBlend mode="normal" in2="BackgroundImageFix" result="effect1_dropShadow_517_5148"/>
<feBlend mode="normal" in="SourceGraphic" in2="effect1_dropShadow_517_5148" result="shape"/>
</filter>
<clipPath id="bgblur_14_517_5148_clip_path" transform="translate(-11 -121)"><path d="M58 211.528C58 197.982 68.9817 187 82.5283 187H842C855.807 187 867 198.193 867 212C867 225.807 855.807 237 842 237H83.4717C69.4041 237 58 225.596 58 211.528Z"/>
</clipPath>
<linearGradient id="paint22_linear_517_5148" x1="233.629" y1="161.228" x2="343.897" y2="424.348" gradientUnits="userSpaceOnUse">
<stop stop-color="white" stop-opacity="0.5"/>
<stop offset="0.34611" stop-color="white" stop-opacity="0.65389"/>
<stop offset="0.636075" stop-color="white" stop-opacity="0.363925"/>
<stop offset="1" stop-color="white" stop-opacity="0.5"/>
</linearGradient>
</defs>
</svg>
