<svg width="508" height="623" viewBox="46 168 508 623" fill="none" xmlns="http://www.w3.org/2000/svg">
<path d="M133 354.5C133 333.789 149.789 317 170.5 317H448.5C469.211 317 486 333.789 486 354.5C486 375.211 469.211 392 448.5 392H170.5C149.789 392 133 375.211 133 354.5Z" fill="#D9D9D9" fill-opacity="0.22"/>
<path d="M133 440.5C133 419.789 149.789 403 170.5 403H448.5C469.211 403 486 419.789 486 440.5C486 461.211 469.211 478 448.5 478H170.5C149.789 478 133 461.211 133 440.5Z" fill="#D9D9D9" fill-opacity="0.22"/>
<path d="M133 529.5C133 508.789 149.789 492 170.5 492H448.5C469.211 492 486 508.789 486 529.5C486 550.211 469.211 567 448.5 567H170.5C149.789 567 133 550.211 133 529.5Z" fill="#D9D9D9" fill-opacity="0.22"/>
<path d="M129 610.5C129 589.789 145.789 573 166.5 573H444.5C465.211 573 482 589.789 482 610.5C482 631.211 465.211 648 444.5 648H166.5C145.789 648 129 631.211 129 610.5Z" fill="#D9D9D9" fill-opacity="0.22"/>
<path d="M132 699.5C132 678.789 148.789 662 169.5 662H447.5C468.211 662 485 678.789 485 699.5C485 720.211 468.211 737 447.5 737H169.5C148.789 737 132 720.211 132 699.5Z" fill="#D9D9D9" fill-opacity="0.22"/>
</svg>
