<svg width="1843" height="1213" viewBox="0 0 1843 1213" fill="none" xmlns="http://www.w3.org/2000/svg" xmlns:xlink="http://www.w3.org/1999/xlink">
<g clip-path="url(#clip0_285_2703)">
<rect x="-40" y="-93" width="1909" height="1330" fill="url(#pattern0_285_2703)"/>
<rect width="3" height="2" transform="matrix(1 0 0 -1 1026 1171)" fill="url(#pattern1_285_2703)"/>
<circle cx="1460.28" cy="721.053" r="34.6978" transform="rotate(-31.1976 1460.28 721.053)" fill="url(#paint1_linear_285_2703)" fill-opacity="0.55"/>
<circle cx="1398.53" cy="696.526" r="67.3711" transform="rotate(-31.1976 1398.53 696.526)" fill="url(#paint2_linear_285_2703)" fill-opacity="0.55"/>
<path d="M65.6133 945.869C58.5969 943.328 58.5725 933.414 65.5764 930.839L905.487 622.006C907.254 621.356 909.194 621.351 910.965 621.99L1766.01 930.823C1773.07 933.373 1773.05 943.368 1765.97 945.884L910.928 1250.04C909.18 1250.66 907.269 1250.65 905.523 1250.02L65.6133 945.869Z" fill="#391B5F"/>
<path d="M140.558 936.142C133.549 933.598 133.525 923.694 140.521 921.116L360.566 840.011C362.337 839.358 364.281 839.352 366.056 839.995L590.065 921.1C597.119 923.654 597.095 933.638 590.029 936.157L366.019 1016.03C364.267 1016.66 362.351 1016.65 360.603 1016.02L140.558 936.142Z" fill="url(#paint4_linear_285_2703)"/>
<path d="M669.567 1131.66C662.557 1129.12 662.533 1119.21 669.53 1116.63L896.504 1033.01C898.275 1032.36 900.218 1032.35 901.993 1032.99L1133.06 1116.62C1140.11 1119.17 1140.09 1129.16 1133.02 1131.68L901.956 1214.03C900.204 1214.66 898.289 1214.65 896.541 1214.02L669.567 1131.66Z" fill="url(#paint5_linear_285_2703)"/>
<path d="M1667.85 918.78C1674.88 921.282 1674.96 931.185 1667.98 933.805L1459.57 1012.03C1457.81 1012.69 1455.86 1012.71 1454.08 1012.07L1241 936.351C1233.93 933.839 1233.9 923.855 1240.95 921.294L1453.13 844.217C1454.88 843.582 1456.79 843.576 1458.54 844.201L1667.85 918.78Z" fill="url(#paint6_linear_285_2703)"/>
<path d="M1415.43 1014.56C1422.44 1017.1 1422.48 1027 1415.49 1029.59L1195.55 1110.98C1193.78 1111.64 1191.84 1111.65 1190.06 1111.01L965.944 1030.2C958.887 1027.65 958.898 1017.67 965.96 1015.14L1189.86 934.967C1191.62 934.34 1193.53 934.343 1195.28 934.976L1415.43 1014.56Z" fill="url(#paint7_linear_285_2703)"/>
<path d="M385.558 1038.14C378.549 1035.6 378.525 1025.69 385.521 1023.12L605.566 942.011C607.337 941.358 609.281 941.352 611.056 941.995L835.065 1023.1C842.119 1025.65 842.095 1035.64 835.029 1038.16L611.019 1118.03C609.267 1118.66 607.351 1118.65 605.603 1118.02L385.558 1038.14Z" fill="url(#paint8_linear_285_2703)"/>
<g filter="url(#filter1_d_285_2703)">
<path d="M338.621 858.579C331.603 856.039 331.579 846.123 338.584 843.548L895.041 639.006C896.808 638.356 898.747 638.35 900.518 638.99L1467 843.533C1474.06 846.083 1474.04 856.079 1466.96 858.595L900.481 1060.04C898.733 1060.66 896.823 1060.65 895.078 1060.02L338.621 858.579Z" fill="#574371"/>
</g>
<circle cx="616.353" cy="775.353" r="52.6824" transform="rotate(-31.1976 616.353 775.353)" fill="url(#paint10_linear_285_2703)" fill-opacity="0.55"/>
<circle cx="779.353" cy="669.353" r="52.6824" transform="rotate(-31.1976 779.353 669.353)" fill="url(#paint11_linear_285_2703)" fill-opacity="0.55"/>
<circle cx="521.485" cy="843.485" r="40.4005" transform="rotate(-31.1976 521.485 843.485)" fill="url(#paint12_linear_285_2703)" fill-opacity="0.55"/>
<circle cx="808.353" cy="727.353" r="52.6824" transform="rotate(-31.1976 808.353 727.353)" fill="url(#paint13_linear_285_2703)" fill-opacity="0.55"/>
<circle cx="806.353" cy="881.353" r="52.6824" transform="rotate(-31.1976 806.353 881.353)" fill="url(#paint16_linear_285_2703)" fill-opacity="0.55"/>
<circle cx="893.353" cy="782.353" r="52.6824" transform="rotate(-31.1976 893.353 782.353)" fill="url(#paint17_linear_285_2703)" fill-opacity="0.55"/>
<circle cx="392.968" cy="748.968" r="62.224" transform="rotate(117.592 392.968 748.968)" fill="url(#paint20_linear_285_2703)" fill-opacity="0.83"/>
<circle cx="720.918" cy="948.918" r="23.2406" transform="rotate(-31.1976 720.918 948.918)" fill="url(#paint21_linear_285_2703)" fill-opacity="0.55"/>
<circle cx="620.918" cy="959.918" r="23.2406" transform="rotate(-31.1976 620.918 959.918)" fill="url(#paint22_linear_285_2703)" fill-opacity="0.55"/>
<circle cx="706.627" cy="901.627" r="41.2321" transform="rotate(-31.1976 706.627 901.627)" fill="url(#paint23_linear_285_2703)" fill-opacity="0.55"/>
<circle cx="463.813" cy="895.113" r="27.3723" transform="rotate(-31.1976 463.813 895.113)" fill="url(#paint24_linear_285_2703)" fill-opacity="0.55"/>
<circle cx="425.523" cy="826.522" r="22.9528" transform="rotate(-31.1976 425.523 826.522)" fill="url(#paint25_linear_285_2703)" fill-opacity="0.55"/>
<circle cx="1130.35" cy="759.353" r="52.6824" transform="rotate(-31.1976 1130.35 759.353)" fill="url(#paint26_linear_285_2703)" fill-opacity="0.55"/>
<circle cx="1065.79" cy="994.645" r="26.0789" transform="rotate(-31.1976 1065.79 994.645)" fill="url(#paint27_linear_285_2703)" fill-opacity="0.55"/>
<circle cx="951.353" cy="717.353" r="52.6824" transform="rotate(-31.1976 951.353 717.353)" fill="url(#paint29_linear_285_2703)" fill-opacity="0.55"/>
<circle cx="1379.35" cy="865.353" r="52.6824" transform="rotate(-31.1976 1379.35 865.353)" fill="url(#paint30_linear_285_2703)" fill-opacity="0.55"/>
<circle cx="1243.35" cy="855.353" r="52.6824" transform="rotate(-31.1976 1243.35 855.353)" fill="url(#paint31_linear_285_2703)" fill-opacity="0.55"/>
<circle cx="1353.76" cy="583.755" r="25.3062" transform="rotate(-31.1976 1353.76 583.755)" fill="url(#paint32_linear_285_2703)" fill-opacity="0.55"/>
<circle cx="1503.35" cy="771.353" r="52.6824" transform="rotate(-31.1976 1503.35 771.353)" fill="url(#paint33_linear_285_2703)" fill-opacity="0.55"/>
<circle cx="1571.13" cy="783.129" r="52.6824" transform="rotate(154.735 1571.13 783.129)" fill="url(#paint34_linear_285_2703)" fill-opacity="0.55"/>
<circle cx="1128.42" cy="933.417" r="41.8077" transform="rotate(-31.1976 1128.42 933.417)" fill="url(#paint35_linear_285_2703)" fill-opacity="0.55"/>
<circle cx="1306.35" cy="735.353" r="52.6824" transform="rotate(-31.1976 1306.35 735.353)" fill="url(#paint36_linear_285_2703)" fill-opacity="0.55"/>
<circle cx="1009.35" cy="662.353" r="52.6824" transform="rotate(-31.1976 1009.35 662.353)" fill="url(#paint37_linear_285_2703)" fill-opacity="0.55"/>
<circle cx="966.353" cy="793.353" r="52.6824" transform="rotate(-31.1976 966.353 793.353)" fill="url(#paint38_linear_285_2703)" fill-opacity="0.55"/>
<circle cx="745.353" cy="808.353" r="52.6824" transform="rotate(-31.1976 745.353 808.353)" fill="url(#paint39_linear_285_2703)" fill-opacity="0.55"/>
<circle cx="1033.35" cy="886.353" r="52.6824" transform="rotate(-31.1976 1033.35 886.353)" fill="url(#paint40_linear_285_2703)" fill-opacity="0.55"/>
<circle cx="959.291" cy="933.29" r="34.4337" transform="rotate(0.598212 959.291 933.29)" fill="url(#paint41_linear_285_2703)" fill-opacity="0.55"/>
<circle cx="900.791" cy="894.791" r="34.4337" transform="rotate(0.598212 900.791 894.791)" fill="url(#paint42_linear_285_2703)" fill-opacity="0.55"/>
<circle cx="900.791" cy="996.791" r="34.4337" transform="rotate(0.598212 900.791 996.791)" fill="url(#paint43_linear_285_2703)" fill-opacity="0.55"/>
<circle cx="1425.53" cy="827.526" r="67.3711" transform="rotate(-31.1976 1425.53 827.526)" fill="url(#paint46_linear_285_2703)" fill-opacity="0.55"/>
<circle cx="1289.53" cy="817.526" r="67.3711" transform="rotate(-31.1976 1289.53 817.526)" fill="url(#paint47_linear_285_2703)" fill-opacity="0.55"/>
<ellipse cx="612.5" cy="1026.58" rx="83.5" ry="45.577" fill="#502D6F"/>
<ellipse cx="897" cy="1119" rx="105" ry="48" fill="url(#paint52_linear_285_2703)"/>
<path d="M613.525 992.884C646.791 992.729 673.989 1007.32 674.274 1025.48C674.559 1043.64 647.823 1058.48 614.557 1058.64C581.291 1058.79 554.093 1044.2 553.808 1026.04C553.523 1007.89 580.259 993.04 613.525 992.884ZM614.303 1042.46C631.202 1042.38 644.784 1034.84 644.639 1025.62C644.495 1016.39 630.678 1008.98 613.779 1009.06C596.88 1009.14 583.298 1016.68 583.443 1025.9C583.588 1035.13 597.404 1042.54 614.303 1042.46Z" fill="white"/>
<path d="M613.525 992.884C646.791 992.729 673.989 1007.32 674.274 1025.48C674.559 1043.64 647.823 1058.48 614.557 1058.64C581.291 1058.79 554.093 1044.2 553.808 1026.04C553.523 1007.89 580.259 993.04 613.525 992.884ZM614.303 1042.46C631.202 1042.38 644.784 1034.84 644.639 1025.62C644.495 1016.39 630.678 1008.98 613.779 1009.06C596.88 1009.14 583.298 1016.68 583.443 1025.9C583.588 1035.13 597.404 1042.54 614.303 1042.46Z" fill="url(#paint53_linear_285_2703)"/>
<path d="M613.525 992.884C646.791 992.729 673.989 1007.32 674.274 1025.48C674.559 1043.64 647.823 1058.48 614.557 1058.64C581.291 1058.79 554.093 1044.2 553.808 1026.04C553.523 1007.89 580.259 993.04 613.525 992.884ZM614.303 1042.46C631.202 1042.38 644.784 1034.84 644.639 1025.62C644.495 1016.39 630.678 1008.98 613.779 1009.06C596.88 1009.14 583.298 1016.68 583.443 1025.9C583.588 1035.13 597.404 1042.54 614.303 1042.46Z" fill="white"/>
<path d="M613.525 992.884C646.791 992.729 673.989 1007.32 674.274 1025.48C674.559 1043.64 647.823 1058.48 614.557 1058.64C581.291 1058.79 554.093 1044.2 553.808 1026.04C553.523 1007.89 580.259 993.04 613.525 992.884ZM614.303 1042.46C631.202 1042.38 644.784 1034.84 644.639 1025.62C644.495 1016.39 630.678 1008.98 613.779 1009.06C596.88 1009.14 583.298 1016.68 583.443 1025.9C583.588 1035.13 597.404 1042.54 614.303 1042.46Z" fill="url(#paint54_linear_285_2703)"/>
<ellipse cx="614.017" cy="1025.75" rx="12.1455" ry="6.62938" fill="#9E75D2"/>
<ellipse cx="614.017" cy="1025.75" rx="12.1455" ry="6.62938" fill="#9E75D2"/>
<ellipse cx="348" cy="933.381" rx="82" ry="44.3806" fill="url(#paint57_linear_285_2703)"/>
<path d="M347.658 899.938C381.889 899.779 409.876 914.669 410.169 933.196C410.462 951.722 382.95 966.869 348.72 967.028C314.49 967.187 286.503 952.297 286.209 933.77C285.916 915.244 313.428 900.097 347.658 899.938ZM347.608 937.87C352.42 937.848 356.287 935.719 356.245 933.115C356.204 930.511 352.27 928.418 347.459 928.44C342.647 928.462 338.78 930.592 338.822 933.196C338.863 935.8 342.797 937.893 347.608 937.87Z" fill="white"/>
<path d="M347.658 899.938C381.889 899.779 409.876 914.669 410.169 933.196C410.462 951.722 382.95 966.869 348.72 967.028C314.49 967.187 286.503 952.297 286.209 933.77C285.916 915.244 313.428 900.097 347.658 899.938ZM347.608 937.87C352.42 937.848 356.287 935.719 356.245 933.115C356.204 930.511 352.27 928.418 347.459 928.44C342.647 928.462 338.78 930.592 338.822 933.196C338.863 935.8 342.797 937.893 347.608 937.87Z" fill="url(#paint58_linear_285_2703)"/>
<path d="M347.658 899.938C381.889 899.779 409.876 914.669 410.169 933.196C410.462 951.722 382.95 966.869 348.72 967.028C314.49 967.187 286.503 952.297 286.209 933.77C285.916 915.244 313.428 900.097 347.658 899.938ZM347.608 937.87C352.42 937.848 356.287 935.719 356.245 933.115C356.204 930.511 352.27 928.418 347.459 928.44C342.647 928.462 338.78 930.592 338.822 933.196C338.863 935.8 342.797 937.893 347.608 937.87Z" fill="white"/>
<path d="M347.658 899.938C381.889 899.779 409.876 914.669 410.169 933.196C410.462 951.722 382.95 966.869 348.72 967.028C314.49 967.187 286.503 952.297 286.209 933.77C285.916 915.244 313.428 900.097 347.658 899.938ZM347.608 937.87C352.42 937.848 356.287 935.719 356.245 933.115C356.204 930.511 352.27 928.418 347.459 928.44C342.647 928.462 338.78 930.592 338.822 933.196C338.863 935.8 342.797 937.893 347.608 937.87Z" fill="url(#paint59_linear_285_2703)"/>
<path d="M403.144 901.062C405.719 901.098 407.751 903.261 407.628 905.833L406.491 929.514C406.361 932.229 404.672 934.622 402.158 935.654L383.972 943.121C383.062 943.495 382.023 943.375 381.222 942.804C379.387 941.495 379.712 938.679 381.797 937.823L393.161 933.157C395.674 932.125 397.363 929.731 397.494 927.017L398.532 905.396C398.649 902.945 400.689 901.027 403.144 901.062Z" fill="#99679B"/>
<path d="M1187.61 986.989C1211.44 982.149 1234.81 981.599 1253.47 984.848C1262.79 986.47 1271.28 989.099 1278.13 992.873C1285.03 996.667 1290.72 1001.89 1293.32 1008.65C1295.92 1015.41 1294.78 1022.02 1291.59 1027.86C1288.42 1033.67 1283.04 1039.12 1276.23 1044.02C1262.59 1053.83 1242.21 1062.17 1218.39 1067.01C1194.56 1071.85 1171.19 1072.4 1152.53 1069.15C1143.21 1067.53 1134.72 1064.9 1127.87 1061.13C1120.97 1057.33 1115.28 1052.11 1112.68 1045.35C1110.08 1038.59 1111.22 1031.98 1114.41 1026.14C1117.58 1020.33 1122.96 1014.88 1129.77 1009.98C1143.41 1000.17 1163.79 991.83 1187.61 986.989Z" fill="#4C6F8C" stroke="url(#paint67_linear_285_2703)" stroke-width="13"/>
<path d="M1443.61 886.989C1467.44 882.149 1490.81 881.599 1509.47 884.848C1518.79 886.47 1527.28 889.099 1534.13 892.873C1541.03 896.667 1546.72 901.891 1549.32 908.65C1551.92 915.409 1550.78 922.02 1547.59 927.862C1544.42 933.674 1539.04 939.121 1532.23 944.02C1518.59 953.833 1498.21 962.17 1474.39 967.011C1450.56 971.851 1427.19 972.402 1408.53 969.152C1399.21 967.53 1390.72 964.901 1383.87 961.127C1376.97 957.333 1371.28 952.109 1368.68 945.35C1366.08 938.592 1367.22 931.98 1370.41 926.138C1373.58 920.326 1378.96 914.879 1385.77 909.98C1399.41 900.167 1419.79 891.83 1443.61 886.989Z" fill="url(#paint68_linear_285_2703)" stroke="url(#paint69_linear_285_2703)" stroke-width="13"/>
<path d="M1225.95 986.39L1172.51 1009.05C1171.44 1009.52 1170.58 1010.14 1170.08 1010.81C1169.57 1011.49 1169.44 1012.18 1169.71 1012.79L1179.94 1036.38C1177.97 1036.61 1176 1036.97 1174.07 1037.44C1164.61 1039.78 1158.05 1044.27 1159.44 1047.46C1160.82 1050.65 1169.62 1051.33 1179.08 1048.99C1188.54 1046.65 1195.1 1042.16 1193.72 1038.97L1184.57 1017.89L1227.34 999.813L1234.57 1016.47C1232.6 1016.7 1230.63 1017.06 1228.7 1017.53C1219.24 1019.87 1212.68 1024.36 1214.07 1027.55C1215.45 1030.73 1224.25 1031.42 1233.71 1029.08C1243.17 1026.74 1249.73 1022.25 1248.35 1019.06L1234.57 987.302C1234.37 986.849 1233.97 986.454 1233.39 986.151C1232.8 985.847 1232.06 985.642 1231.22 985.554C1230.38 985.465 1229.47 985.494 1228.55 985.639C1227.63 985.785 1226.74 986.042 1225.95 986.39Z" fill="#1FDDDB" fill-opacity="0.66"/>
<ellipse cx="347.5" cy="929" rx="9.5" ry="4" fill="#BC88BE"/>
<path d="M843.601 1084.22C845.11 1082.19 847.489 1081 850.016 1081H956.452C958.997 1081 961.39 1082.21 962.898 1084.26L988.633 1119.26C992.518 1124.54 988.745 1132 982.188 1132H823.937C817.357 1132 813.59 1124.5 817.522 1119.22L843.601 1084.22Z" fill="url(#paint70_linear_285_2703)"/>
<path d="M869 1092.5C873.639 1092.5 877.95 1093.2 881.191 1094.42C882.803 1095.02 884.281 1095.8 885.401 1096.79C886.518 1097.78 887.5 1099.2 887.5 1101C887.5 1102.8 886.518 1104.22 885.401 1105.21C884.281 1106.2 882.803 1106.98 881.191 1107.58C877.95 1108.8 873.639 1109.5 869 1109.5C864.361 1109.5 860.05 1108.8 856.809 1107.58C855.197 1106.98 853.719 1106.2 852.599 1105.21C851.482 1104.22 850.5 1102.8 850.5 1101C850.5 1099.2 851.482 1097.78 852.599 1096.79C853.719 1095.8 855.197 1095.02 856.809 1094.42C860.05 1093.2 864.361 1092.5 869 1092.5Z" fill="#5D4187" stroke="url(#paint71_linear_285_2703)" stroke-width="5"/>
<path d="M945 1092.5C949.639 1092.5 953.95 1093.2 957.191 1094.42C958.803 1095.02 960.281 1095.8 961.401 1096.79C962.518 1097.78 963.5 1099.2 963.5 1101C963.5 1102.8 962.518 1104.22 961.401 1105.21C960.281 1106.2 958.803 1106.98 957.191 1107.58C953.95 1108.8 949.639 1109.5 945 1109.5C940.361 1109.5 936.05 1108.8 932.809 1107.58C931.197 1106.98 929.719 1106.2 928.599 1105.21C927.482 1104.22 926.5 1102.8 926.5 1101C926.5 1099.2 927.482 1097.78 928.599 1096.79C929.719 1095.8 931.197 1095.02 932.809 1094.42C936.05 1093.2 940.361 1092.5 945 1092.5Z" fill="#5D4187" stroke="url(#paint72_linear_285_2703)" stroke-width="5"/>
<path d="M1467.43 899.777C1468.04 899.543 1468.72 899.616 1469.26 899.976L1483.42 909.379L1507.93 906.134C1508.85 906.013 1509.73 906.533 1510.06 907.394C1510.39 908.254 1510.09 909.231 1509.34 909.758L1489.04 923.868L1484.9 940.36C1484.74 940.99 1484.29 941.505 1483.68 941.739C1483.08 941.974 1482.4 941.9 1481.86 941.541L1467.69 932.137L1443.18 935.383C1442.27 935.504 1441.39 934.983 1441.06 934.123C1440.72 933.262 1441.02 932.285 1441.78 931.758L1462.08 917.648L1466.21 901.156L1466.29 900.925C1466.49 900.402 1466.9 899.982 1467.43 899.777Z" fill="url(#paint73_linear_285_2703)" stroke="url(#paint74_linear_285_2703)" stroke-width="4" stroke-linejoin="round"/>
<path d="M1434.39 907.215L1441.44 912.065L1453.38 910.58L1443.56 917.525L1441.61 925.865L1434.55 921.014L1422.61 922.5L1432.44 915.555L1434.39 907.215Z" fill="url(#paint75_linear_285_2703)" stroke="url(#paint76_linear_285_2703)" stroke-linejoin="round"/>
</g>
<defs>
<pattern id="pattern0_285_2703" patternContentUnits="objectBoundingBox" width="1" height="1">
<use xlink:href="#image0_285_2703" transform="matrix(0.000450107 0 0 0.000645991 -6.90096e-05 -0.124882)"/>
</pattern>
<pattern id="pattern1_285_2703" patternContentUnits="objectBoundingBox" width="1" height="1">
<use xlink:href="#image1_285_2703" transform="matrix(0.000289352 0 0 0.000434028 -0.0925926 0)"/>
</pattern>

<filter id="filter1_d_285_2703" x="295.444" y="604.615" width="1214.74" height="497.786" filterUnits="userSpaceOnUse" color-interpolation-filters="sRGB">
<feFlood flood-opacity="0" result="BackgroundImageFix"/>
<feColorMatrix in="SourceAlpha" type="matrix" values="0 0 0 0 0 0 0 0 0 0 0 0 0 0 0 0 0 0 127 0" result="hardAlpha"/>
<feOffset dy="4"/>
<feGaussianBlur stdDeviation="18.95"/>
<feComposite in2="hardAlpha" operator="out"/>
<feColorMatrix type="matrix" values="0 0 0 0 0 0 0 0 0 0 0 0 0 0 0 0 0 0 1 0"/>
<feBlend mode="normal" in2="BackgroundImageFix" result="effect1_dropShadow_285_2703"/>
<feBlend mode="normal" in="SourceGraphic" in2="effect1_dropShadow_285_2703" result="shape"/>
</filter>








<linearGradient id="paint1_linear_285_2703" x1="1449.43" y1="744.259" x2="1472.87" y2="679.238" gradientUnits="userSpaceOnUse">
<stop stop-color="#D9D9D9" stop-opacity="0.03"/>
<stop offset="0.643634" stop-color="#29E3E1"/>
<stop offset="1" stop-color="#29E3E1"/>
</linearGradient>
<linearGradient id="paint2_linear_285_2703" x1="1377.45" y1="741.584" x2="1422.96" y2="615.335" gradientUnits="userSpaceOnUse">
<stop stop-color="#D9D9D9" stop-opacity="0.03"/>
<stop offset="0.643634" stop-color="#E5A1D1"/>
<stop offset="1" stop-color="#E6A1D2"/>
</linearGradient>

<linearGradient id="paint4_linear_285_2703" x1="576.5" y1="851.5" x2="88.5" y2="947" gradientUnits="userSpaceOnUse">
<stop stop-color="#E7A2D3"/>
<stop offset="1" stop-color="#E8A3D3" stop-opacity="0"/>
</linearGradient>
<linearGradient id="paint5_linear_285_2703" x1="902.014" y1="851.57" x2="902.014" y2="1268.97" gradientUnits="userSpaceOnUse">
<stop offset="0.267534" stop-color="#1959DB"/>
<stop offset="1" stop-color="#E8A3D3" stop-opacity="0"/>
</linearGradient>
<linearGradient id="paint6_linear_285_2703" x1="642.943" y1="1273.09" x2="1688.17" y2="878.59" gradientUnits="userSpaceOnUse">
<stop offset="0.293269" stop-color="#F3AADC"/>
<stop offset="0.567948" stop-color="#29E3E1"/>
<stop offset="1" stop-color="#E8A3D3" stop-opacity="0"/>
</linearGradient>
<linearGradient id="paint7_linear_285_2703" x1="816.5" y1="1168" x2="1318" y2="990" gradientUnits="userSpaceOnUse">
<stop stop-color="#29E2E0"/>
<stop offset="1" stop-color="#5CBDD4" stop-opacity="0.56"/>
</linearGradient>
<linearGradient id="paint8_linear_285_2703" x1="882.5" y1="878" x2="365" y2="1080.5" gradientUnits="userSpaceOnUse">
<stop stop-color="#9D75D0"/>
<stop offset="1" stop-color="#E8A3D3" stop-opacity="0"/>
</linearGradient>

<linearGradient id="paint10_linear_285_2703" x1="599.875" y1="810.587" x2="635.46" y2="711.864" gradientUnits="userSpaceOnUse">
<stop stop-color="#D9D9D9" stop-opacity="0.03"/>
<stop offset="0.643634" stop-color="#E5A1D1"/>
<stop offset="1" stop-color="#E6A1D2"/>
</linearGradient>
<linearGradient id="paint11_linear_285_2703" x1="762.875" y1="704.587" x2="798.46" y2="605.864" gradientUnits="userSpaceOnUse">
<stop stop-color="#D9D9D9" stop-opacity="0.03"/>
<stop offset="0.643634" stop-color="#E5A1D1"/>
<stop offset="1" stop-color="#E6A1D2"/>
</linearGradient>
<linearGradient id="paint12_linear_285_2703" x1="508.849" y1="870.505" x2="536.138" y2="794.798" gradientUnits="userSpaceOnUse">
<stop stop-color="#D9D9D9" stop-opacity="0.03"/>
<stop offset="0.643634" stop-color="#E5A1D1"/>
<stop offset="1" stop-color="#E6A1D2"/>
</linearGradient>
<linearGradient id="paint13_linear_285_2703" x1="791.875" y1="762.587" x2="827.46" y2="663.864" gradientUnits="userSpaceOnUse">
<stop stop-color="#D9D9D9" stop-opacity="0.03"/>
<stop offset="0.643634" stop-color="#E5A1D1"/>
<stop offset="1" stop-color="#E6A1D2"/>
</linearGradient>


<linearGradient id="paint16_linear_285_2703" x1="789.875" y1="916.587" x2="825.46" y2="817.864" gradientUnits="userSpaceOnUse">
<stop stop-color="#D9D9D9" stop-opacity="0.03"/>
<stop offset="0.643634" stop-color="#BE8BFF"/>
<stop offset="1" stop-color="#BE8BFF"/>
</linearGradient>
<linearGradient id="paint17_linear_285_2703" x1="876.875" y1="817.587" x2="912.46" y2="718.864" gradientUnits="userSpaceOnUse">
<stop stop-color="#D9D9D9" stop-opacity="0.03"/>
<stop offset="0.643634" stop-color="#BE8BFF"/>
<stop offset="1" stop-color="#BE8BFF"/>
</linearGradient>


<linearGradient id="paint20_linear_285_2703" x1="408.306" y1="671.861" x2="380.737" y2="792.703" gradientUnits="userSpaceOnUse">
<stop stop-color="#D9D9D9" stop-opacity="0.03"/>
<stop offset="0.370809" stop-color="#BE8BFF" stop-opacity="0.62"/>
<stop offset="1" stop-color="#BE8BFF"/>
</linearGradient>
<linearGradient id="paint21_linear_285_2703" x1="713.649" y1="964.462" x2="729.347" y2="920.911" gradientUnits="userSpaceOnUse">
<stop stop-color="#D9D9D9" stop-opacity="0.03"/>
<stop offset="0.643634" stop-color="#BE8BFF"/>
<stop offset="1" stop-color="#BE8BFF"/>
</linearGradient>
<linearGradient id="paint22_linear_285_2703" x1="613.649" y1="975.462" x2="629.347" y2="931.911" gradientUnits="userSpaceOnUse">
<stop stop-color="#D9D9D9" stop-opacity="0.03"/>
<stop offset="0.643634" stop-color="#BE8BFF"/>
<stop offset="1" stop-color="#BE8BFF"/>
</linearGradient>
<linearGradient id="paint23_linear_285_2703" x1="693.731" y1="929.204" x2="721.582" y2="851.938" gradientUnits="userSpaceOnUse">
<stop stop-color="#D9D9D9" stop-opacity="0.03"/>
<stop offset="0.643634" stop-color="#BE8BFF"/>
<stop offset="1" stop-color="#BE8BFF"/>
</linearGradient>
<linearGradient id="paint24_linear_285_2703" x1="455.252" y1="913.42" x2="473.741" y2="862.126" gradientUnits="userSpaceOnUse">
<stop stop-color="#D9D9D9" stop-opacity="0.03"/>
<stop offset="0.643634" stop-color="#E5A1D1"/>
<stop offset="1" stop-color="#E6A1D2"/>
</linearGradient>
<linearGradient id="paint25_linear_285_2703" x1="418.344" y1="841.873" x2="433.848" y2="798.862" gradientUnits="userSpaceOnUse">
<stop stop-color="#D9D9D9" stop-opacity="0.03"/>
<stop offset="0.643634" stop-color="#E5A1D1"/>
<stop offset="1" stop-color="#E6A1D2"/>
</linearGradient>
<linearGradient id="paint26_linear_285_2703" x1="1113.88" y1="794.587" x2="1149.46" y2="695.864" gradientUnits="userSpaceOnUse">
<stop stop-color="#D9D9D9" stop-opacity="0.03"/>
<stop offset="0.643634" stop-color="#29E3E1"/>
<stop offset="1" stop-color="#29E3E1"/>
</linearGradient>
<linearGradient id="paint27_linear_285_2703" x1="1057.63" y1="1012.09" x2="1075.25" y2="963.216" gradientUnits="userSpaceOnUse">
<stop stop-color="#D9D9D9" stop-opacity="0.03"/>
<stop offset="0.643634" stop-color="#29E3E1"/>
<stop offset="1" stop-color="#29E3E1"/>
</linearGradient>

<linearGradient id="paint29_linear_285_2703" x1="934.875" y1="752.587" x2="970.46" y2="653.864" gradientUnits="userSpaceOnUse">
<stop stop-color="#D9D9D9" stop-opacity="0.03"/>
<stop offset="0.643634" stop-color="#29E3E1"/>
<stop offset="1" stop-color="#29E3E1"/>
</linearGradient>
<linearGradient id="paint30_linear_285_2703" x1="1362.88" y1="900.587" x2="1398.46" y2="801.864" gradientUnits="userSpaceOnUse">
<stop stop-color="#D9D9D9" stop-opacity="0.03"/>
<stop offset="0.643634" stop-color="#29E3E1"/>
<stop offset="1" stop-color="#29E3E1"/>
</linearGradient>
<linearGradient id="paint31_linear_285_2703" x1="1226.88" y1="890.587" x2="1262.46" y2="791.864" gradientUnits="userSpaceOnUse">
<stop stop-color="#D9D9D9" stop-opacity="0.03"/>
<stop offset="0.643634" stop-color="#29E3E1"/>
<stop offset="1" stop-color="#29E3E1"/>
</linearGradient>
<linearGradient id="paint32_linear_285_2703" x1="1345.84" y1="600.68" x2="1362.93" y2="553.258" gradientUnits="userSpaceOnUse">
<stop stop-color="#D9D9D9" stop-opacity="0.03"/>
<stop offset="0.643634" stop-color="#29E3E1"/>
<stop offset="1" stop-color="#29E3E1"/>
</linearGradient>
<linearGradient id="paint33_linear_285_2703" x1="1486.88" y1="806.587" x2="1522.46" y2="707.864" gradientUnits="userSpaceOnUse">
<stop stop-color="#D9D9D9" stop-opacity="0.03"/>
<stop offset="0.643634" stop-color="#29E3E1"/>
<stop offset="1" stop-color="#29E3E1"/>
</linearGradient>
<linearGradient id="paint34_linear_285_2703" x1="1554.65" y1="818.363" x2="1590.24" y2="719.64" gradientUnits="userSpaceOnUse">
<stop stop-color="#D9D9D9" stop-opacity="0.03"/>
<stop offset="0.643634" stop-color="#29E3E1"/>
<stop offset="1" stop-color="#29E3E1"/>
</linearGradient>
<linearGradient id="paint35_linear_285_2703" x1="1115.34" y1="961.378" x2="1143.58" y2="883.034" gradientUnits="userSpaceOnUse">
<stop stop-color="#D9D9D9" stop-opacity="0.03"/>
<stop offset="0.643634" stop-color="#29E3E1"/>
<stop offset="1" stop-color="#29E3E1"/>
</linearGradient>
<linearGradient id="paint36_linear_285_2703" x1="1289.88" y1="770.587" x2="1325.46" y2="671.864" gradientUnits="userSpaceOnUse">
<stop stop-color="#D9D9D9" stop-opacity="0.03"/>
<stop offset="0.643634" stop-color="#29E3E1"/>
<stop offset="1" stop-color="#29E3E1"/>
</linearGradient>
<linearGradient id="paint37_linear_285_2703" x1="992.875" y1="697.587" x2="1028.46" y2="598.864" gradientUnits="userSpaceOnUse">
<stop stop-color="#D9D9D9" stop-opacity="0.03"/>
<stop offset="0.643634" stop-color="#29E3E1"/>
<stop offset="1" stop-color="#29E3E1"/>
</linearGradient>
<linearGradient id="paint38_linear_285_2703" x1="949.875" y1="828.587" x2="985.46" y2="729.864" gradientUnits="userSpaceOnUse">
<stop stop-color="#D9D9D9" stop-opacity="0.03"/>
<stop offset="0.643634" stop-color="#29E3E1"/>
<stop offset="1" stop-color="#29E3E1"/>
</linearGradient>
<linearGradient id="paint39_linear_285_2703" x1="728.875" y1="843.587" x2="764.46" y2="744.864" gradientUnits="userSpaceOnUse">
<stop stop-color="#D9D9D9" stop-opacity="0.03"/>
<stop offset="0.643634" stop-color="#29E3E1"/>
<stop offset="1" stop-color="#29E3E1"/>
</linearGradient>
<linearGradient id="paint40_linear_285_2703" x1="1016.88" y1="921.587" x2="1052.46" y2="822.864" gradientUnits="userSpaceOnUse">
<stop stop-color="#D9D9D9" stop-opacity="0.03"/>
<stop offset="0.643634" stop-color="#29E3E1"/>
<stop offset="1" stop-color="#29E3E1"/>
</linearGradient>
<linearGradient id="paint41_linear_285_2703" x1="938.975" y1="1000.86" x2="971.78" y2="891.794" gradientUnits="userSpaceOnUse">
<stop offset="0.0192308" stop-color="#D9D9D9" stop-opacity="0"/>
<stop offset="0.639423" stop-color="#6A6FF8" stop-opacity="0.32"/>
<stop offset="1" stop-color="#6A6FF8"/>
</linearGradient>
<linearGradient id="paint42_linear_285_2703" x1="880.475" y1="962.366" x2="913.28" y2="853.295" gradientUnits="userSpaceOnUse">
<stop offset="0.0192308" stop-color="#D9D9D9" stop-opacity="0"/>
<stop offset="0.639423" stop-color="#6A6FF8" stop-opacity="0.32"/>
<stop offset="1" stop-color="#6A6FF8"/>
</linearGradient>
<linearGradient id="paint43_linear_285_2703" x1="880.475" y1="1064.37" x2="913.28" y2="955.295" gradientUnits="userSpaceOnUse">
<stop offset="0.0192308" stop-color="#D9D9D9" stop-opacity="0"/>
<stop offset="0.639423" stop-color="#6A6FF8" stop-opacity="0.32"/>
<stop offset="1" stop-color="#6A6FF8"/>
</linearGradient>


<linearGradient id="paint46_linear_285_2703" x1="1404.45" y1="872.584" x2="1449.96" y2="746.335" gradientUnits="userSpaceOnUse">
<stop stop-color="#D9D9D9" stop-opacity="0.03"/>
<stop offset="0.643634" stop-color="#E5A1D1"/>
<stop offset="1" stop-color="#E6A1D2"/>
</linearGradient>
<linearGradient id="paint47_linear_285_2703" x1="1268.45" y1="862.584" x2="1313.96" y2="736.335" gradientUnits="userSpaceOnUse">
<stop stop-color="#D9D9D9" stop-opacity="0.03"/>
<stop offset="0.643634" stop-color="#E5A1D1"/>
<stop offset="1" stop-color="#E6A1D2"/>
</linearGradient>




<linearGradient id="paint52_linear_285_2703" x1="897" y1="1071" x2="897" y2="1167" gradientUnits="userSpaceOnUse">
<stop stop-color="#5C3F85"/>
<stop offset="1" stop-color="#22265C"/>
</linearGradient>
<linearGradient id="paint53_linear_285_2703" x1="553.808" y1="1026.04" x2="674.253" y2="1024.15" gradientUnits="userSpaceOnUse">
<stop stop-color="#8B61AA"/>
<stop offset="1" stop-color="#613B7D"/>
</linearGradient>
<linearGradient id="paint54_linear_285_2703" x1="553.808" y1="1026.04" x2="674.253" y2="1024.15" gradientUnits="userSpaceOnUse">
<stop stop-color="#8B61AA"/>
<stop offset="1" stop-color="#613B7D"/>
</linearGradient>


<linearGradient id="paint57_linear_285_2703" x1="348" y1="889" x2="348" y2="977.761" gradientUnits="userSpaceOnUse">
<stop stop-color="#643D7C"/>
<stop offset="1" stop-color="#916294"/>
</linearGradient>
<linearGradient id="paint58_linear_285_2703" x1="286.209" y1="933.77" x2="410.147" y2="931.809" gradientUnits="userSpaceOnUse">
<stop offset="0.206731" stop-color="#8F5091"/>
<stop offset="1" stop-color="#602E88"/>
</linearGradient>
<linearGradient id="paint59_linear_285_2703" x1="286.209" y1="933.77" x2="410.147" y2="931.809" gradientUnits="userSpaceOnUse">
<stop offset="0.206731" stop-color="#8F5091"/>
<stop offset="1" stop-color="#602E88"/>
</linearGradient>







<linearGradient id="paint67_linear_285_2703" x1="1189.95" y1="993.056" x2="1204.23" y2="1063.35" gradientUnits="userSpaceOnUse">
<stop stop-color="#567B9E"/>
<stop offset="1" stop-color="#574371"/>
</linearGradient>
<linearGradient id="paint68_linear_285_2703" x1="1422" y1="927" x2="1539.44" y2="936.258" gradientUnits="userSpaceOnUse">
<stop stop-color="#624A7B"/>
<stop offset="1" stop-color="#4BADC2"/>
</linearGradient>
<linearGradient id="paint69_linear_285_2703" x1="1445.95" y1="893.056" x2="1460.23" y2="963.346" gradientUnits="userSpaceOnUse">
<stop stop-color="#567B9E"/>
<stop offset="1" stop-color="#574371"/>
</linearGradient>
<linearGradient id="paint70_linear_285_2703" x1="903" y1="1081" x2="903" y2="1127" gradientUnits="userSpaceOnUse">
<stop stop-color="#7073C3"/>
<stop offset="0.975962" stop-color="#5B3F85"/>
</linearGradient>
<linearGradient id="paint71_linear_285_2703" x1="869" y1="1095" x2="869" y2="1107" gradientUnits="userSpaceOnUse">
<stop stop-color="#543F84"/>
<stop offset="1" stop-color="#272A62"/>
</linearGradient>
<linearGradient id="paint72_linear_285_2703" x1="945" y1="1095" x2="945" y2="1107" gradientUnits="userSpaceOnUse">
<stop stop-color="#543F84"/>
<stop offset="1" stop-color="#272A62"/>
</linearGradient>
<linearGradient id="paint73_linear_285_2703" x1="1468.15" y1="901.642" x2="1482.96" y2="939.874" gradientUnits="userSpaceOnUse">
<stop stop-color="#4FA1BA"/>
<stop offset="0.764059" stop-color="#8969B0"/>
</linearGradient>
<linearGradient id="paint74_linear_285_2703" x1="1507.5" y1="907.5" x2="1440.67" y2="929.586" gradientUnits="userSpaceOnUse">
<stop offset="0.331731" stop-color="#583F7C"/>
<stop offset="0.831113" stop-color="#4DA9BF"/>
</linearGradient>
<linearGradient id="paint75_linear_285_2703" x1="1434.39" y1="907.215" x2="1441.61" y2="925.865" gradientUnits="userSpaceOnUse">
<stop stop-color="#624B7B"/>
<stop offset="1" stop-color="#A67FD7"/>
</linearGradient>
<linearGradient id="paint76_linear_285_2703" x1="1434.39" y1="907.215" x2="1441.61" y2="925.865" gradientUnits="userSpaceOnUse">
<stop stop-color="#4EA7BE"/>
<stop offset="1" stop-color="#59407D"/>
</linearGradient>






<clipPath id="clip0_285_2703">
<rect width="1843" height="1213" fill="white"/>
</clipPath>


</defs>
</svg>
