<svg width="49" height="49" viewBox="142 672 49 49" fill="none" xmlns="http://www.w3.org/2000/svg">
<defs>
<radialGradient id="paint77_radial_285_2703" cx="0" cy="0" r="1" gradientUnits="userSpaceOnUse" gradientTransform="translate(166.497 353.496) rotate(-0.490819) scale(13.1943)">
<stop offset="0.240385"/>
<stop offset="0.541667" stop-color="#0E0E0E"/>
<stop offset="0.567708" stop-color="#0A0A0A"/>
<stop offset="0.604167" stop-color="#111111"/>
<stop offset="0.630208" stop-color="#030303"/>
<stop offset="0.692708" stop-color="#0A0A0A"/>
<stop offset="0.739583" stop-color="#0C0C0C"/>
<stop offset="0.776042" stop-color="#090909"/>
<stop offset="0.802083" stop-color="#070707"/>
<stop offset="0.838484" stop-color="#050505"/>
<stop offset="0.894232" stop-color="#0D0D0D"/>
<stop offset="0.921875" stop-color="#0C0C0C"/>
<stop offset="0.96875" stop-color="#0C0C0C"/>
<stop offset="1" stop-color="#F8F8F8"/>
</radialGradient>
<radialGradient id="paint78_radial_285_2703" cx="0" cy="0" r="1" gradientUnits="userSpaceOnUse" gradientTransform="translate(166.497 353.496) rotate(-0.490819) scale(13.1943)">
<stop offset="0.240385"/>
<stop offset="0.541667" stop-color="#0E0E0E"/>
<stop offset="0.567708" stop-color="#0A0A0A"/>
<stop offset="0.604167" stop-color="#111111"/>
<stop offset="0.630208" stop-color="#030303"/>
<stop offset="0.692708" stop-color="#0A0A0A"/>
<stop offset="0.739583" stop-color="#0C0C0C"/>
<stop offset="0.776042" stop-color="#090909"/>
<stop offset="0.802083" stop-color="#070707"/>
<stop offset="0.838484" stop-color="#050505"/>
<stop offset="0.894232" stop-color="#0D0D0D"/>
<stop offset="0.921875" stop-color="#0C0C0C"/>
<stop offset="0.96875" stop-color="#0C0C0C"/>
<stop offset="1" stop-color="#F8F8F8"/>
</radialGradient>
<radialGradient id="paint79_radial_285_2703" cx="0" cy="0" r="1" gradientUnits="userSpaceOnUse" gradientTransform="translate(167.312 436.696) rotate(-0.490819) scale(12.2634)">
<stop stop-color="#232323"/>
<stop offset="0.541667" stop-color="#A3A1A1"/>
<stop offset="0.567708" stop-color="#0A0A0A"/>
<stop offset="0.604167" stop-color="#111111"/>
<stop offset="0.630208" stop-color="#030303"/>
<stop offset="0.692708" stop-color="#0A0A0A"/>
<stop offset="0.739583" stop-color="#0C0C0C"/>
<stop offset="0.776042" stop-color="#090909"/>
<stop offset="0.802083" stop-color="#070707"/>
<stop offset="0.838484" stop-color="#050505"/>
<stop offset="0.894232" stop-color="#0D0D0D"/>
<stop offset="0.921875" stop-color="#0C0C0C"/>
<stop offset="0.96875" stop-color="#0C0C0C"/>
<stop offset="1" stop-color="white"/>
</radialGradient>
<radialGradient id="paint80_radial_285_2703" cx="0" cy="0" r="1" gradientUnits="userSpaceOnUse" gradientTransform="translate(167.312 436.696) rotate(-0.490819) scale(12.2634)">
<stop stop-color="#232323"/>
<stop offset="0.541667" stop-color="#A3A1A1"/>
<stop offset="0.567708" stop-color="#0A0A0A"/>
<stop offset="0.604167" stop-color="#111111"/>
<stop offset="0.630208" stop-color="#030303"/>
<stop offset="0.692708" stop-color="#0A0A0A"/>
<stop offset="0.739583" stop-color="#0C0C0C"/>
<stop offset="0.776042" stop-color="#090909"/>
<stop offset="0.802083" stop-color="#070707"/>
<stop offset="0.838484" stop-color="#050505"/>
<stop offset="0.894232" stop-color="#0D0D0D"/>
<stop offset="0.921875" stop-color="#0C0C0C"/>
<stop offset="0.96875" stop-color="#0C0C0C"/>
<stop offset="1" stop-color="white"/>
</radialGradient>
<radialGradient id="paint81_radial_285_2703" cx="0" cy="0" r="1" gradientUnits="userSpaceOnUse" gradientTransform="translate(166.497 697.496) rotate(-0.490819) scale(13.1943)">
<stop offset="0.240385"/>
<stop offset="0.541667" stop-color="#0E0E0E"/>
<stop offset="0.567708" stop-color="#0A0A0A"/>
<stop offset="0.604167" stop-color="#111111"/>
<stop offset="0.630208" stop-color="#030303"/>
<stop offset="0.692708" stop-color="#0A0A0A"/>
<stop offset="0.739583" stop-color="#0C0C0C"/>
<stop offset="0.776042" stop-color="#090909"/>
<stop offset="0.802083" stop-color="#070707"/>
<stop offset="0.838484" stop-color="#050505"/>
<stop offset="0.894232" stop-color="#0D0D0D"/>
<stop offset="0.921875" stop-color="#0C0C0C"/>
<stop offset="0.96875" stop-color="#0C0C0C"/>
<stop offset="1" stop-color="#F8F8F8"/>
</radialGradient>
<radialGradient id="paint82_radial_285_2703" cx="0" cy="0" r="1" gradientUnits="userSpaceOnUse" gradientTransform="translate(166.497 697.496) rotate(-0.490819) scale(13.1943)">
<stop offset="0.240385"/>
<stop offset="0.541667" stop-color="#0E0E0E"/>
<stop offset="0.567708" stop-color="#0A0A0A"/>
<stop offset="0.604167" stop-color="#111111"/>
<stop offset="0.630208" stop-color="#030303"/>
<stop offset="0.692708" stop-color="#0A0A0A"/>
<stop offset="0.739583" stop-color="#0C0C0C"/>
<stop offset="0.776042" stop-color="#090909"/>
<stop offset="0.802083" stop-color="#070707"/>
<stop offset="0.838484" stop-color="#050505"/>
<stop offset="0.894232" stop-color="#0D0D0D"/>
<stop offset="0.921875" stop-color="#0C0C0C"/>
<stop offset="0.96875" stop-color="#0C0C0C"/>
<stop offset="1" stop-color="#F8F8F8"/>
</radialGradient>
</defs>
<circle cx="166.694" cy="696.801" r="23.279" transform="rotate(-12.2686 166.694 696.801)" fill="#E3A0D0"/>
<circle cx="166.456" cy="697.456" r="17.4556" fill="#272727"/>
<path d="M166.384 684.302C173.67 684.24 179.628 690.096 179.691 697.383C179.753 704.67 173.897 710.627 166.61 710.69C159.323 710.752 153.365 704.896 153.303 697.609C153.241 690.322 159.097 684.365 166.384 684.302ZM166.373 699.222C167.397 699.213 168.221 698.375 168.212 697.351C168.203 696.327 167.366 695.504 166.341 695.512C165.317 695.521 164.494 696.359 164.503 697.383C164.512 698.407 165.349 699.23 166.373 699.222Z" fill="white"/>
<path d="M166.384 684.302C173.67 684.24 179.628 690.096 179.691 697.383C179.753 704.67 173.897 710.627 166.61 710.69C159.323 710.752 153.365 704.896 153.303 697.609C153.241 690.322 159.097 684.365 166.384 684.302ZM166.373 699.222C167.397 699.213 168.221 698.375 168.212 697.351C168.203 696.327 167.366 695.504 166.341 695.512C165.317 695.521 164.494 696.359 164.503 697.383C164.512 698.407 165.349 699.23 166.373 699.222Z" fill="url(#paint81_radial_285_2703)" fill-opacity="0.7"/>
<path d="M166.384 684.302C173.67 684.24 179.628 690.096 179.691 697.383C179.753 704.67 173.897 710.627 166.61 710.69C159.323 710.752 153.365 704.896 153.303 697.609C153.241 690.322 159.097 684.365 166.384 684.302ZM166.373 699.222C167.397 699.213 168.221 698.375 168.212 697.351C168.203 696.327 167.366 695.504 166.341 695.512C165.317 695.521 164.494 696.359 164.503 697.383C164.512 698.407 165.349 699.23 166.373 699.222Z" fill="white"/>
<path d="M166.384 684.302C173.67 684.24 179.628 690.096 179.691 697.383C179.753 704.67 173.897 710.627 166.61 710.69C159.323 710.752 153.365 704.896 153.303 697.609C153.241 690.322 159.097 684.365 166.384 684.302ZM166.373 699.222C167.397 699.213 168.221 698.375 168.212 697.351C168.203 696.327 167.366 695.504 166.341 695.512C165.317 695.521 164.494 696.359 164.503 697.383C164.512 698.407 165.349 699.23 166.373 699.222Z" fill="url(#paint82_radial_285_2703)" fill-opacity="0.7"/>
<path d="M176.262 683.259C176.798 683.273 177.221 683.718 177.207 684.254L176.95 694.137C176.916 695.44 176.292 696.657 175.254 697.444L172.609 699.45C172.183 699.774 171.574 699.691 171.251 699.264C170.927 698.837 171.01 698.229 171.437 697.905L173.58 696.279C174.466 695.607 174.998 694.569 175.027 693.458L175.267 684.203C175.281 683.668 175.727 683.245 176.262 683.259Z" fill="#D7D7D7"/>
</svg>
