<svg width="49" height="49" viewBox="252.87 28.869 108 108" fill="none" xmlns="http://www.w3.org/2000/svg">
<circle cx="306.87" cy="82.869" r="54" transform="rotate(117.592 306.87 82.869)" fill="#BE8BFF" fill-opacity="0.83"/>
<circle cx="306.87" cy="82.869" r="53.5" transform="rotate(117.592 306.87 82.869)" stroke="#CECECE" stroke-opacity="0.62"/>
<circle cx="307" cy="82" r="31" fill="black"/>
<path d="M307.381 59.0827C319.731 58.9769 329.829 68.9029 329.935 81.253C330.04 93.6031 320.114 103.701 307.764 103.806C295.414 103.912 285.317 93.9863 285.211 81.6361C285.105 69.286 295.031 59.1885 307.381 59.0827ZM307.67 92.8044C313.944 92.7507 318.986 87.6211 318.933 81.3473C318.879 75.0734 313.749 70.031 307.475 70.0847C301.201 70.1385 296.159 75.268 296.213 81.5419C296.267 87.8158 301.396 92.8582 307.67 92.8044Z" fill="white"/>
<path d="M307.381 59.0827C319.731 58.9769 329.829 68.9029 329.935 81.253C330.04 93.6031 320.114 103.701 307.764 103.806C295.414 103.912 285.317 93.9863 285.211 81.6361C285.105 69.286 295.031 59.1885 307.381 59.0827ZM307.67 92.8044C313.944 92.7507 318.986 87.6211 318.933 81.3473C318.879 75.0734 313.749 70.031 307.475 70.0847C301.201 70.1385 296.159 75.268 296.213 81.5419C296.267 87.8158 301.396 92.8582 307.67 92.8044Z" fill="url(#paint9_radial_525_991)" fill-opacity="0.7"/>
<path d="M307.381 59.0827C319.731 58.9769 329.829 68.9029 329.935 81.253C330.04 93.6031 320.114 103.701 307.764 103.806C295.414 103.912 285.317 93.9863 285.211 81.6361C285.105 69.286 295.031 59.1885 307.381 59.0827ZM307.67 92.8044C313.944 92.7507 318.986 87.6211 318.933 81.3473C318.879 75.0734 313.749 70.031 307.475 70.0847C301.201 70.1385 296.159 75.268 296.213 81.5419C296.267 87.8158 301.396 92.8582 307.67 92.8044Z" fill="white"/>
<path d="M307.381 59.0827C319.731 58.9769 329.829 68.9029 329.935 81.253C330.04 93.6031 320.114 103.701 307.764 103.806C295.414 103.912 285.317 93.9863 285.211 81.6361C285.105 69.286 295.031 59.1885 307.381 59.0827ZM307.67 92.8044C313.944 92.7507 318.986 87.6211 318.933 81.3473C318.879 75.0734 313.749 70.031 307.475 70.0847C301.201 70.1385 296.159 75.268 296.213 81.5419C296.267 87.8158 301.396 92.8582 307.67 92.8044Z" fill="url(#paint10_radial_525_991)" fill-opacity="0.7"/>
<circle cx="307.562" cy="81.4368" r="4.50909" fill="#D9D9D9"/>
<defs>
<radialGradient id="paint9_radial_525_991" cx="0" cy="0" r="1" gradientUnits="userSpaceOnUse" gradientTransform="translate(307.573 81.4446) rotate(-0.490819) scale(22.3627)">
<stop stop-color="#232323"/>
<stop offset="0.541667" stop-color="#A3A1A1"/>
<stop offset="0.567708" stop-color="#0A0A0A"/>
<stop offset="0.604167" stop-color="#111111"/>
<stop offset="0.630208" stop-color="#030303"/>
<stop offset="0.692708" stop-color="#0A0A0A"/>
<stop offset="0.739583" stop-color="#0C0C0C"/>
<stop offset="0.776042" stop-color="#090909"/>
<stop offset="0.802083" stop-color="#070707"/>
<stop offset="0.838484" stop-color="#050505"/>
<stop offset="0.894232" stop-color="#0D0D0D"/>
<stop offset="0.921875" stop-color="#0C0C0C"/>
<stop offset="0.96875" stop-color="#0C0C0C"/>
<stop offset="1" stop-color="white"/>
</radialGradient>
<radialGradient id="paint10_radial_525_991" cx="0" cy="0" r="1" gradientUnits="userSpaceOnUse" gradientTransform="translate(307.573 81.4446) rotate(-0.490819) scale(22.3627)">
<stop stop-color="#232323"/>
<stop offset="0.541667" stop-color="#A3A1A1"/>
<stop offset="0.567708" stop-color="#0A0A0A"/>
<stop offset="0.604167" stop-color="#111111"/>
<stop offset="0.630208" stop-color="#030303"/>
<stop offset="0.692708" stop-color="#0A0A0A"/>
<stop offset="0.739583" stop-color="#0C0C0C"/>
<stop offset="0.776042" stop-color="#090909"/>
<stop offset="0.802083" stop-color="#070707"/>
<stop offset="0.838484" stop-color="#050505"/>
<stop offset="0.894232" stop-color="#0D0D0D"/>
<stop offset="0.921875" stop-color="#0C0C0C"/>
<stop offset="0.96875" stop-color="#0C0C0C"/>
<stop offset="1" stop-color="white"/>
</radialGradient>
</defs>
</svg>
