<svg width="49" height="49" viewBox="424.662 28.1627 109 109" fill="none" xmlns="http://www.w3.org/2000/svg">
<circle cx="478.162" cy="82.1627" r="53.5" transform="rotate(-31.1976 478.162 82.1627)" fill="#7E82EB" fill-opacity="0.55" stroke="#A7A7A7"/>
<path d="M509 82C509 99.1208 495.121 113 478 113C460.879 113 447 99.1208 447 82C447 64.8792 460.879 51 478 51C495.121 51 509 64.8792 509 82Z" fill="black"/>
<path d="M477.683 59.5133C490.033 59.4075 500.131 69.3335 500.236 81.6837C500.342 94.0338 490.416 104.131 478.066 104.237C465.716 104.343 455.618 94.4169 455.513 82.0668C455.407 69.7167 465.333 59.6191 477.683 59.5133Z" fill="white"/>
<path d="M477.683 59.5133C490.033 59.4075 500.131 69.3335 500.236 81.6837C500.342 94.0338 490.416 104.131 478.066 104.237C465.716 104.343 455.618 94.4169 455.513 82.0668C455.407 69.7167 465.333 59.6191 477.683 59.5133Z" fill="url(#paint7_radial_525_991)" fill-opacity="0.7"/>
<path d="M477.683 59.5133C490.033 59.4075 500.131 69.3335 500.236 81.6837C500.342 94.0338 490.416 104.131 478.066 104.237C465.716 104.343 455.618 94.4169 455.513 82.0668C455.407 69.7167 465.333 59.6191 477.683 59.5133Z" fill="white"/>
<path d="M477.683 59.5133C490.033 59.4075 500.131 69.3335 500.236 81.6837C500.342 94.0338 490.416 104.131 478.066 104.237C465.716 104.343 455.618 94.4169 455.513 82.0668C455.407 69.7167 465.333 59.6191 477.683 59.5133Z" fill="url(#paint8_radial_525_991)" fill-opacity="0.7"/>
<path d="M489.775 71.6351C492.64 71.6137 494.979 73.9192 494.999 76.7847L495.075 87.9266C495.095 90.792 492.788 93.1324 489.923 93.1539L466.849 93.3267C463.984 93.3481 461.645 91.0425 461.625 88.1771L461.548 77.0351C461.529 74.1696 463.836 71.8293 466.701 71.8078L489.775 71.6351ZM470.496 79.6334C468.991 79.6447 467.779 80.8131 467.789 82.243C467.799 83.6729 469.027 84.823 470.532 84.8117C472.036 84.8004 473.249 83.6321 473.239 82.2022C473.229 80.7723 472.001 79.6221 470.496 79.6334ZM486.843 79.5116C485.339 79.5229 484.127 80.6908 484.136 82.1206C484.146 83.5505 485.374 84.7006 486.879 84.6893C488.384 84.6781 489.596 83.5097 489.586 82.0798C489.576 80.65 488.348 79.5003 486.843 79.5116Z" fill="black"/>
<path d="M489.915 92.0009L489.923 93.1539L466.849 93.3267L466.841 92.1737L489.915 92.0009ZM493.922 87.9353L493.846 76.7933C493.831 74.6343 492.123 72.8838 489.99 72.7916L489.783 72.7881L466.709 72.9608C464.48 72.9775 462.686 74.7978 462.701 77.0265L462.778 88.1684C462.793 90.3971 464.612 92.1904 466.841 92.1737L466.849 93.3267C463.984 93.3481 461.645 91.0425 461.625 88.1771L461.548 77.0351C461.529 74.1696 463.836 71.8293 466.701 71.8078L489.775 71.6351C492.64 71.6137 494.979 73.9192 494.999 76.7847L495.075 87.9266C495.095 90.792 492.788 93.1324 489.923 93.1539L489.915 92.0009C492.074 91.9847 493.825 90.2759 493.919 88.143L493.922 87.9353ZM473.239 82.2022C473.229 80.7723 472.001 79.6221 470.496 79.6334C468.991 79.6447 467.779 80.8131 467.789 82.243C467.799 83.6729 469.027 84.823 470.532 84.8117C472.036 84.8004 473.249 83.6321 473.239 82.2022ZM489.586 82.0798C489.576 80.6946 488.424 79.5724 486.984 79.5139L486.843 79.5116C485.339 79.5229 484.127 80.6908 484.136 82.1206L484.141 82.254C484.223 83.6213 485.421 84.7002 486.879 84.6893C488.384 84.6781 489.596 83.5097 489.586 82.0798ZM474.392 82.1935C474.406 84.315 472.625 85.9491 470.54 85.9647C468.454 85.9803 466.651 84.3731 466.636 82.2516C466.622 80.1302 468.403 78.496 470.488 78.4804C472.573 78.4648 474.377 80.0721 474.392 82.1935ZM490.739 82.0711C490.753 84.1926 488.972 85.8267 486.887 85.8423C484.802 85.8579 482.998 84.2507 482.983 82.1292C482.969 80.0077 484.75 78.3742 486.835 78.3586C488.92 78.343 490.724 79.9496 490.739 82.0711Z" fill="#D7D7D7"/>
<path d="M468.542 71.9756H487.581C487.581 74.1511 485.818 75.9148 483.642 75.9148H472.481C470.306 75.9148 468.542 74.1511 468.542 71.9756Z" fill="black"/>
<path d="M487.581 71.9756C487.581 74.0832 485.926 75.8043 483.845 75.9097L483.642 75.9148V74.7618C484.769 74.7618 485.74 74.0917 486.178 73.1286H469.945C470.384 74.0917 471.354 74.7618 472.481 74.7618V75.9148L472.279 75.9097C470.197 75.8043 468.542 74.0831 468.542 71.9756H487.581ZM483.642 74.7618V75.9148H472.481V74.7618H483.642Z" fill="#D7D7D7"/>
<defs>
<radialGradient id="paint7_radial_525_991" cx="0" cy="0" r="1" gradientUnits="userSpaceOnUse" gradientTransform="translate(477.874 81.8752) rotate(-0.490819) scale(22.3627)">
<stop offset="0.0721154" stop-color="#232323"/>
<stop offset="0.0961538" stop-color="#A3A1A1"/>
<stop offset="0.158654" stop-color="#0A0A0A"/>
<stop offset="0.604167" stop-color="#111111"/>
<stop offset="0.630208" stop-color="#030303"/>
<stop offset="0.692708" stop-color="#0A0A0A"/>
<stop offset="0.739583" stop-color="#0C0C0C"/>
<stop offset="0.776042" stop-color="#090909"/>
<stop offset="0.802083" stop-color="#070707"/>
<stop offset="0.838484" stop-color="#050505"/>
<stop offset="0.894232" stop-color="#0D0D0D"/>
<stop offset="0.921875" stop-color="#0C0C0C"/>
<stop offset="0.96875" stop-color="#0C0C0C"/>
<stop offset="1" stop-color="white"/>
</radialGradient>
<radialGradient id="paint8_radial_525_991" cx="0" cy="0" r="1" gradientUnits="userSpaceOnUse" gradientTransform="translate(477.874 81.8752) rotate(-0.490819) scale(22.3627)">
<stop offset="0.0721154" stop-color="#232323"/>
<stop offset="0.0961538" stop-color="#A3A1A1"/>
<stop offset="0.158654" stop-color="#0A0A0A"/>
<stop offset="0.604167" stop-color="#111111"/>
<stop offset="0.630208" stop-color="#030303"/>
<stop offset="0.692708" stop-color="#0A0A0A"/>
<stop offset="0.739583" stop-color="#0C0C0C"/>
<stop offset="0.776042" stop-color="#090909"/>
<stop offset="0.802083" stop-color="#070707"/>
<stop offset="0.838484" stop-color="#050505"/>
<stop offset="0.894232" stop-color="#0D0D0D"/>
<stop offset="0.921875" stop-color="#0C0C0C"/>
<stop offset="0.96875" stop-color="#0C0C0C"/>
<stop offset="1" stop-color="white"/>
</radialGradient>
</defs>
</svg>
