<svg width="49" height="49" viewBox="142 504 49 49" fill="none" xmlns="http://www.w3.org/2000/svg">
<defs>
<radialGradient id="paint77_radial_285_2703" cx="0" cy="0" r="1" gradientUnits="userSpaceOnUse" gradientTransform="translate(166.497 353.496) rotate(-0.490819) scale(13.1943)">
<stop offset="0.240385"/>
<stop offset="0.541667" stop-color="#0E0E0E"/>
<stop offset="0.567708" stop-color="#0A0A0A"/>
<stop offset="0.604167" stop-color="#111111"/>
<stop offset="0.630208" stop-color="#030303"/>
<stop offset="0.692708" stop-color="#0A0A0A"/>
<stop offset="0.739583" stop-color="#0C0C0C"/>
<stop offset="0.776042" stop-color="#090909"/>
<stop offset="0.802083" stop-color="#070707"/>
<stop offset="0.838484" stop-color="#050505"/>
<stop offset="0.894232" stop-color="#0D0D0D"/>
<stop offset="0.921875" stop-color="#0C0C0C"/>
<stop offset="0.96875" stop-color="#0C0C0C"/>
<stop offset="1" stop-color="#F8F8F8"/>
</radialGradient>
<radialGradient id="paint78_radial_285_2703" cx="0" cy="0" r="1" gradientUnits="userSpaceOnUse" gradientTransform="translate(166.497 353.496) rotate(-0.490819) scale(13.1943)">
<stop offset="0.240385"/>
<stop offset="0.541667" stop-color="#0E0E0E"/>
<stop offset="0.567708" stop-color="#0A0A0A"/>
<stop offset="0.604167" stop-color="#111111"/>
<stop offset="0.630208" stop-color="#030303"/>
<stop offset="0.692708" stop-color="#0A0A0A"/>
<stop offset="0.739583" stop-color="#0C0C0C"/>
<stop offset="0.776042" stop-color="#090909"/>
<stop offset="0.802083" stop-color="#070707"/>
<stop offset="0.838484" stop-color="#050505"/>
<stop offset="0.894232" stop-color="#0D0D0D"/>
<stop offset="0.921875" stop-color="#0C0C0C"/>
<stop offset="0.96875" stop-color="#0C0C0C"/>
<stop offset="1" stop-color="#F8F8F8"/>
</radialGradient>
<radialGradient id="paint79_radial_285_2703" cx="0" cy="0" r="1" gradientUnits="userSpaceOnUse" gradientTransform="translate(167.312 436.696) rotate(-0.490819) scale(12.2634)">
<stop stop-color="#232323"/>
<stop offset="0.541667" stop-color="#A3A1A1"/>
<stop offset="0.567708" stop-color="#0A0A0A"/>
<stop offset="0.604167" stop-color="#111111"/>
<stop offset="0.630208" stop-color="#030303"/>
<stop offset="0.692708" stop-color="#0A0A0A"/>
<stop offset="0.739583" stop-color="#0C0C0C"/>
<stop offset="0.776042" stop-color="#090909"/>
<stop offset="0.802083" stop-color="#070707"/>
<stop offset="0.838484" stop-color="#050505"/>
<stop offset="0.894232" stop-color="#0D0D0D"/>
<stop offset="0.921875" stop-color="#0C0C0C"/>
<stop offset="0.96875" stop-color="#0C0C0C"/>
<stop offset="1" stop-color="white"/>
</radialGradient>
<radialGradient id="paint80_radial_285_2703" cx="0" cy="0" r="1" gradientUnits="userSpaceOnUse" gradientTransform="translate(167.312 436.696) rotate(-0.490819) scale(12.2634)">
<stop stop-color="#232323"/>
<stop offset="0.541667" stop-color="#A3A1A1"/>
<stop offset="0.567708" stop-color="#0A0A0A"/>
<stop offset="0.604167" stop-color="#111111"/>
<stop offset="0.630208" stop-color="#030303"/>
<stop offset="0.692708" stop-color="#0A0A0A"/>
<stop offset="0.739583" stop-color="#0C0C0C"/>
<stop offset="0.776042" stop-color="#090909"/>
<stop offset="0.802083" stop-color="#070707"/>
<stop offset="0.838484" stop-color="#050505"/>
<stop offset="0.894232" stop-color="#0D0D0D"/>
<stop offset="0.921875" stop-color="#0C0C0C"/>
<stop offset="0.96875" stop-color="#0C0C0C"/>
<stop offset="1" stop-color="white"/>
</radialGradient>
<radialGradient id="paint81_radial_285_2703" cx="0" cy="0" r="1" gradientUnits="userSpaceOnUse" gradientTransform="translate(166.497 697.496) rotate(-0.490819) scale(13.1943)">
<stop offset="0.240385"/>
<stop offset="0.541667" stop-color="#0E0E0E"/>
<stop offset="0.567708" stop-color="#0A0A0A"/>
<stop offset="0.604167" stop-color="#111111"/>
<stop offset="0.630208" stop-color="#030303"/>
<stop offset="0.692708" stop-color="#0A0A0A"/>
<stop offset="0.739583" stop-color="#0C0C0C"/>
<stop offset="0.776042" stop-color="#090909"/>
<stop offset="0.802083" stop-color="#070707"/>
<stop offset="0.838484" stop-color="#050505"/>
<stop offset="0.894232" stop-color="#0D0D0D"/>
<stop offset="0.921875" stop-color="#0C0C0C"/>
<stop offset="0.96875" stop-color="#0C0C0C"/>
<stop offset="1" stop-color="#F8F8F8"/>
</radialGradient>
<radialGradient id="paint82_radial_285_2703" cx="0" cy="0" r="1" gradientUnits="userSpaceOnUse" gradientTransform="translate(166.497 697.496) rotate(-0.490819) scale(13.1943)">
<stop offset="0.240385"/>
<stop offset="0.541667" stop-color="#0E0E0E"/>
<stop offset="0.567708" stop-color="#0A0A0A"/>
<stop offset="0.604167" stop-color="#111111"/>
<stop offset="0.630208" stop-color="#030303"/>
<stop offset="0.692708" stop-color="#0A0A0A"/>
<stop offset="0.739583" stop-color="#0C0C0C"/>
<stop offset="0.776042" stop-color="#090909"/>
<stop offset="0.802083" stop-color="#070707"/>
<stop offset="0.838484" stop-color="#050505"/>
<stop offset="0.894232" stop-color="#0D0D0D"/>
<stop offset="0.921875" stop-color="#0C0C0C"/>
<stop offset="0.96875" stop-color="#0C0C0C"/>
<stop offset="1" stop-color="#F8F8F8"/>
</radialGradient>
</defs>
<circle cx="166.694" cy="528.801" r="23.279" transform="rotate(-12.2686 166.694 528.801)" fill="#595CAC"/>
<path d="M181.75 520.015C182.922 520.007 183.88 520.95 183.888 522.123L183.995 537.736C184.003 538.909 183.059 539.867 181.886 539.876L155.26 540.075C154.087 540.084 153.13 539.14 153.122 537.967L153.015 522.354C153.007 521.181 153.951 520.223 155.123 520.215L181.75 520.015ZM161.292 527.417C159.903 527.428 158.784 528.506 158.793 529.826C158.802 531.145 159.936 532.207 161.324 532.196C162.713 532.186 163.832 531.108 163.823 529.788C163.814 528.468 162.68 527.407 161.292 527.417ZM176.379 527.304C174.99 527.315 173.872 528.393 173.881 529.713C173.89 531.032 175.023 532.094 176.412 532.083C177.801 532.073 178.919 530.995 178.91 529.675C178.901 528.355 177.768 527.294 176.379 527.304Z" fill="black"/>
<path d="M181.878 538.697L181.886 539.877L155.26 540.076L155.252 538.896L181.878 538.697ZM182.815 537.746L182.708 522.133C182.705 521.628 182.305 521.218 181.807 521.197L181.758 521.196L155.132 521.395C154.61 521.399 154.191 521.825 154.194 522.346L154.302 537.96C154.305 538.481 154.731 538.9 155.252 538.896L155.26 540.076C154.087 540.085 153.13 539.141 153.122 537.968L153.015 522.355C153.007 521.182 153.951 520.224 155.123 520.216L181.75 520.016C182.922 520.007 183.88 520.951 183.888 522.124L183.995 537.737C184.003 538.91 183.059 539.868 181.886 539.877L181.878 538.697C182.399 538.693 182.819 538.267 182.815 537.746ZM163.823 529.789C163.814 528.469 162.68 527.408 161.292 527.418C159.903 527.429 158.784 528.507 158.793 529.827C158.802 531.146 159.936 532.208 161.324 532.197C162.713 532.187 163.832 531.109 163.823 529.789ZM178.91 529.676C178.901 528.398 177.838 527.362 176.509 527.308L176.379 527.305C174.99 527.316 173.872 528.394 173.881 529.714C173.89 531.033 175.023 532.095 176.412 532.084C177.801 532.074 178.919 530.996 178.91 529.676ZM165.002 529.78C165.016 531.807 163.315 533.362 161.333 533.377C159.35 533.392 157.628 531.863 157.614 529.835C157.6 527.808 159.301 526.253 161.283 526.239C163.266 526.224 164.988 527.753 165.002 529.78ZM180.09 529.667C180.103 531.694 178.403 533.249 176.42 533.264C174.437 533.279 172.715 531.75 172.701 529.723C172.687 527.695 174.388 526.14 176.371 526.126C178.354 526.111 180.076 527.64 180.09 529.667Z" fill="#DADADA"/>
<path d="M159.541 520.771H176.848V521.526C176.848 523.332 175.468 524.796 173.766 524.796H162.623C160.921 524.796 159.541 523.332 159.541 521.526V520.771Z" fill="#DADADA"/>
</svg>
