<svg width="49" height="49" viewBox="81 29 110 110" fill="none" xmlns="http://www.w3.org/2000/svg">
<circle cx="135.162" cy="83.1617" r="53.5" transform="rotate(-31.1976 135.162 83.1617)" fill="#E39FD0" stroke="#B6B6B6"/>
<circle cx="136" cy="83.7461" r="31" fill="#272727"/>
<path d="M135.871 60.3858C148.812 60.2749 159.392 70.6756 159.503 83.6164C159.614 96.5572 149.213 107.138 136.272 107.248C123.331 107.359 112.751 96.9586 112.64 84.0179C112.529 71.0771 122.93 60.4966 135.871 60.3858ZM135.852 86.8817C137.671 86.8661 139.133 85.3789 139.117 83.56C139.102 81.741 137.614 80.2791 135.795 80.2947C133.976 80.3103 132.515 81.7975 132.53 83.6164C132.546 85.4354 134.033 86.8973 135.852 86.8817Z" fill="white"/>
<path d="M135.871 60.3858C148.812 60.2749 159.392 70.6756 159.503 83.6164C159.614 96.5572 149.213 107.138 136.272 107.248C123.331 107.359 112.751 96.9586 112.64 84.0179C112.529 71.0771 122.93 60.4966 135.871 60.3858ZM135.852 86.8817C137.671 86.8661 139.133 85.3789 139.117 83.56C139.102 81.741 137.614 80.2791 135.795 80.2947C133.976 80.3103 132.515 81.7975 132.53 83.6164C132.546 85.4354 134.033 86.8973 135.852 86.8817Z" fill="url(#paint3_radial_525_991)" fill-opacity="0.7"/>
<path d="M135.871 60.3858C148.812 60.2749 159.392 70.6756 159.503 83.6164C159.614 96.5572 149.213 107.138 136.272 107.248C123.331 107.359 112.751 96.9586 112.64 84.0179C112.529 71.0771 122.93 60.4966 135.871 60.3858ZM135.852 86.8817C137.671 86.8661 139.133 85.3789 139.117 83.56C139.102 81.741 137.614 80.2791 135.795 80.2947C133.976 80.3103 132.515 81.7975 132.53 83.6164C132.546 85.4354 134.033 86.8973 135.852 86.8817Z" fill="white"/>
<path d="M135.871 60.3858C148.812 60.2749 159.392 70.6756 159.503 83.6164C159.614 96.5572 149.213 107.138 136.272 107.248C123.331 107.359 112.751 96.9586 112.64 84.0179C112.529 71.0771 122.93 60.4966 135.871 60.3858ZM135.852 86.8817C137.671 86.8661 139.133 85.3789 139.117 83.56C139.102 81.741 137.614 80.2791 135.795 80.2947C133.976 80.3103 132.515 81.7975 132.53 83.6164C132.546 85.4354 134.033 86.8973 135.852 86.8817Z" fill="url(#paint4_radial_525_991)" fill-opacity="0.7"/>
<path d="M153.416 58.5331C154.367 58.5579 155.118 59.3489 155.093 60.3L154.629 78.1507C154.574 80.2759 153.556 82.2609 151.862 83.5458L146.929 87.2888C146.171 87.8637 145.09 87.7155 144.515 86.9577C143.94 86.1998 144.088 85.1191 144.846 84.544L148.653 81.656C150.225 80.4629 151.17 78.6198 151.222 76.6465L151.649 60.2105C151.673 59.2594 152.465 58.5084 153.416 58.5331Z" fill="#D7D7D7"/>
<defs>
<radialGradient id="paint3_radial_525_991" cx="0" cy="0" r="1" gradientUnits="userSpaceOnUse" gradientTransform="translate(136.071 83.8171) rotate(-0.490819) scale(23.4322)">
<stop offset="0.240385"/>
<stop offset="0.541667" stop-color="#0E0E0E"/>
<stop offset="0.567708" stop-color="#0A0A0A"/>
<stop offset="0.604167" stop-color="#111111"/>
<stop offset="0.630208" stop-color="#030303"/>
<stop offset="0.692708" stop-color="#0A0A0A"/>
<stop offset="0.739583" stop-color="#0C0C0C"/>
<stop offset="0.776042" stop-color="#090909"/>
<stop offset="0.802083" stop-color="#070707"/>
<stop offset="0.838484" stop-color="#050505"/>
<stop offset="0.894232" stop-color="#0D0D0D"/>
<stop offset="0.921875" stop-color="#0C0C0C"/>
<stop offset="0.96875" stop-color="#0C0C0C"/>
<stop offset="1" stop-color="#F8F8F8"/>
</radialGradient>
<radialGradient id="paint4_radial_525_991" cx="0" cy="0" r="1" gradientUnits="userSpaceOnUse" gradientTransform="translate(136.071 83.8171) rotate(-0.490819) scale(23.4322)">
<stop offset="0.240385"/>
<stop offset="0.541667" stop-color="#0E0E0E"/>
<stop offset="0.567708" stop-color="#0A0A0A"/>
<stop offset="0.604167" stop-color="#111111"/>
<stop offset="0.630208" stop-color="#030303"/>
<stop offset="0.692708" stop-color="#0A0A0A"/>
<stop offset="0.739583" stop-color="#0C0C0C"/>
<stop offset="0.776042" stop-color="#090909"/>
<stop offset="0.802083" stop-color="#070707"/>
<stop offset="0.838484" stop-color="#050505"/>
<stop offset="0.894232" stop-color="#0D0D0D"/>
<stop offset="0.921875" stop-color="#0C0C0C"/>
<stop offset="0.96875" stop-color="#0C0C0C"/>
<stop offset="1" stop-color="#F8F8F8"/>
</radialGradient>
</defs>
</svg>
