<svg width="112" height="112" viewBox="656 292 112 112" fill="none" xmlns="http://www.w3.org/2000/svg">
<circle cx="711.114" cy="347.115" r="53.5" transform="rotate(-102.091 711.114 347.115)" fill="#29E7E5" stroke="#CECECE"/>
<circle cx="711.511" cy="346.229" r="31" fill="black"/>
<path d="M711.872 324.421C724.223 324.315 734.32 334.241 734.426 346.591C734.532 358.941 724.606 369.039 712.256 369.144C699.905 369.25 689.808 359.324 689.702 346.974C689.596 334.624 699.522 324.526 711.872 324.421Z" fill="white"/>
<path d="M711.872 324.421C724.223 324.315 734.32 334.241 734.426 346.591C734.532 358.941 724.606 369.039 712.256 369.144C699.905 369.25 689.808 359.324 689.702 346.974C689.596 334.624 699.522 324.526 711.872 324.421Z" fill="url(#paint13_radial_517_5148)" fill-opacity="0.7"/>
<path d="M711.872 324.421C724.223 324.315 734.32 334.241 734.426 346.591C734.532 358.941 724.606 369.039 712.256 369.144C699.905 369.25 689.808 359.324 689.702 346.974C689.596 334.624 699.522 324.526 711.872 324.421Z" fill="white"/>
<path d="M711.872 324.421C724.223 324.315 734.32 334.241 734.426 346.591C734.532 358.941 724.606 369.039 712.256 369.144C699.905 369.25 689.808 359.324 689.702 346.974C689.596 334.624 699.522 324.526 711.872 324.421Z" fill="url(#paint14_radial_517_5148)" fill-opacity="0.7"/>
<path d="M719.963 333.966L705.751 338.163C705.463 338.254 705.21 338.434 705.031 338.678C704.852 338.922 704.756 339.216 704.756 339.519V351.13C704.29 351.017 703.813 350.959 703.334 350.956C700.98 350.956 699.07 352.229 699.07 353.799C699.07 355.369 700.98 356.642 703.334 356.642C705.688 356.642 707.598 355.369 707.598 353.799V343.419L718.969 340.088V348.288C718.504 348.174 718.027 348.116 717.548 348.113C715.194 348.113 713.284 349.386 713.284 350.956C713.284 352.526 715.194 353.799 717.548 353.799C719.902 353.799 721.812 352.526 721.812 350.956V335.32C721.811 335.097 721.759 334.877 721.658 334.678C721.557 334.479 721.41 334.307 721.23 334.175C721.05 334.043 720.842 333.956 720.622 333.919C720.401 333.883 720.176 333.899 719.963 333.966Z" fill="#D9D9D9"/>
<defs>
<radialGradient id="paint13_radial_517_5148" cx="0" cy="0" r="1" gradientUnits="userSpaceOnUse" gradientTransform="translate(712.064 346.782) rotate(-0.490819) scale(22.3627)">
<stop offset="0.604167" stop-color="#111111"/>
<stop offset="0.630208" stop-color="#030303"/>
<stop offset="0.692708" stop-color="#0A0A0A"/>
<stop offset="0.739583" stop-color="#0C0C0C"/>
<stop offset="0.776042" stop-color="#090909"/>
<stop offset="0.802083" stop-color="#070707"/>
<stop offset="0.838484" stop-color="#050505"/>
<stop offset="0.894232" stop-color="#0D0D0D"/>
<stop offset="0.921875" stop-color="#0C0C0C"/>
<stop offset="0.96875" stop-color="#0C0C0C"/>
<stop offset="1" stop-color="white"/>
</radialGradient>
<radialGradient id="paint14_radial_517_5148" cx="0" cy="0" r="1" gradientUnits="userSpaceOnUse" gradientTransform="translate(712.064 346.782) rotate(-0.490819) scale(22.3627)">
<stop offset="0.604167" stop-color="#111111"/>
<stop offset="0.630208" stop-color="#030303"/>
<stop offset="0.692708" stop-color="#0A0A0A"/>
<stop offset="0.739583" stop-color="#0C0C0C"/>
<stop offset="0.776042" stop-color="#090909"/>
<stop offset="0.802083" stop-color="#070707"/>
<stop offset="0.838484" stop-color="#050505"/>
<stop offset="0.894232" stop-color="#0D0D0D"/>
<stop offset="0.921875" stop-color="#0C0C0C"/>
<stop offset="0.96875" stop-color="#0C0C0C"/>
<stop offset="1" stop-color="white"/>
</radialGradient>
</defs>
</svg>
