<svg width="111" height="111" viewBox="143 292 111 111" fill="none" xmlns="http://www.w3.org/2000/svg">
<circle cx="198.162" cy="347.164" r="53.5" transform="rotate(-31.1976 198.162 347.164)" fill="#E39FD0" stroke="#B6B6B6"/>
<circle cx="199" cy="347.747" r="31" fill="#272727"/>
<path d="M198.871 324.387C211.812 324.276 222.392 334.677 222.503 347.617C222.614 360.558 212.213 371.139 199.272 371.249C186.331 371.36 175.751 360.96 175.64 348.019C175.529 335.078 185.93 324.498 198.871 324.387ZM198.852 350.883C200.671 350.867 202.133 349.38 202.117 347.561C202.102 345.742 200.614 344.28 198.795 344.296C196.977 344.311 195.515 345.798 195.53 347.617C195.546 349.436 197.033 350.898 198.852 350.883Z" fill="white"/>
<path d="M198.871 324.387C211.812 324.276 222.392 334.677 222.503 347.617C222.614 360.558 212.213 371.139 199.272 371.249C186.331 371.36 175.751 360.96 175.64 348.019C175.529 335.078 185.93 324.498 198.871 324.387ZM198.852 350.883C200.671 350.867 202.133 349.38 202.117 347.561C202.102 345.742 200.614 344.28 198.795 344.296C196.977 344.311 195.515 345.798 195.53 347.617C195.546 349.436 197.033 350.898 198.852 350.883Z" fill="url(#paint10_radial_517_5148)" fill-opacity="0.7"/>
<path d="M198.871 324.387C211.812 324.276 222.392 334.677 222.503 347.617C222.614 360.558 212.213 371.139 199.272 371.249C186.331 371.36 175.751 360.96 175.64 348.019C175.529 335.078 185.93 324.498 198.871 324.387ZM198.852 350.883C200.671 350.867 202.133 349.38 202.117 347.561C202.102 345.742 200.614 344.28 198.795 344.296C196.977 344.311 195.515 345.798 195.53 347.617C195.546 349.436 197.033 350.898 198.852 350.883Z" fill="white"/>
<path d="M198.871 324.387C211.812 324.276 222.392 334.677 222.503 347.617C222.614 360.558 212.213 371.139 199.272 371.249C186.331 371.36 175.751 360.96 175.64 348.019C175.529 335.078 185.93 324.498 198.871 324.387ZM198.852 350.883C200.671 350.867 202.133 349.38 202.117 347.561C202.102 345.742 200.614 344.28 198.795 344.296C196.977 344.311 195.515 345.798 195.53 347.617C195.546 349.436 197.033 350.898 198.852 350.883Z" fill="url(#paint11_radial_517_5148)" fill-opacity="0.7"/>
<path d="M216.416 322.534C217.367 322.559 218.118 323.35 218.093 324.301L217.629 342.152C217.574 344.277 216.556 346.262 214.863 347.547L209.929 351.29C209.171 351.865 208.09 351.716 207.515 350.959C206.94 350.201 207.088 349.12 207.846 348.545L211.653 345.657C213.225 344.464 214.17 342.621 214.222 340.648L214.649 324.212C214.673 323.26 215.465 322.509 216.416 322.534Z" fill="#D7D7D7"/>
<defs>
<radialGradient id="paint10_radial_517_5148" cx="0" cy="0" r="1" gradientUnits="userSpaceOnUse" gradientTransform="translate(199.071 347.818) rotate(-0.490819) scale(23.4322)">
<stop offset="0.240385"/>
<stop offset="0.541667" stop-color="#0E0E0E"/>
<stop offset="0.567708" stop-color="#0A0A0A"/>
<stop offset="0.604167" stop-color="#111111"/>
<stop offset="0.630208" stop-color="#030303"/>
<stop offset="0.692708" stop-color="#0A0A0A"/>
<stop offset="0.739583" stop-color="#0C0C0C"/>
<stop offset="0.776042" stop-color="#090909"/>
<stop offset="0.802083" stop-color="#070707"/>
<stop offset="0.838484" stop-color="#050505"/>
<stop offset="0.894232" stop-color="#0D0D0D"/>
<stop offset="0.921875" stop-color="#0C0C0C"/>
<stop offset="0.96875" stop-color="#0C0C0C"/>
<stop offset="1" stop-color="#F8F8F8"/>
</radialGradient>
<radialGradient id="paint11_radial_517_5148" cx="0" cy="0" r="1" gradientUnits="userSpaceOnUse" gradientTransform="translate(199.071 347.818) rotate(-0.490819) scale(23.4322)">
<stop offset="0.240385"/>
<stop offset="0.541667" stop-color="#0E0E0E"/>
<stop offset="0.567708" stop-color="#0A0A0A"/>
<stop offset="0.604167" stop-color="#111111"/>
<stop offset="0.630208" stop-color="#030303"/>
<stop offset="0.692708" stop-color="#0A0A0A"/>
<stop offset="0.739583" stop-color="#0C0C0C"/>
<stop offset="0.776042" stop-color="#090909"/>
<stop offset="0.802083" stop-color="#070707"/>
<stop offset="0.838484" stop-color="#050505"/>
<stop offset="0.894232" stop-color="#0D0D0D"/>
<stop offset="0.921875" stop-color="#0C0C0C"/>
<stop offset="0.96875" stop-color="#0C0C0C"/>
<stop offset="1" stop-color="#F8F8F8"/>
</radialGradient>
</defs>
</svg>
