<svg width="112" height="112" viewBox="486 292 112 112" fill="none" xmlns="http://www.w3.org/2000/svg">
<circle cx="541.162" cy="346.164" r="53.5" transform="rotate(-31.1976 541.162 346.164)" fill="#7E82EB" fill-opacity="0.55" stroke="#A7A7A7"/>
<path d="M572 346.001C572 363.122 558.121 377.001 541 377.001C523.879 377.001 510 363.122 510 346.001C510 328.88 523.879 315.001 541 315.001C558.121 315.001 572 328.88 572 346.001Z" fill="black"/>
<path d="M540.684 323.513C553.034 323.408 563.132 333.334 563.237 345.684C563.343 358.034 553.417 368.131 541.067 368.237C528.717 368.343 518.619 358.417 518.514 346.067C518.408 333.717 528.334 323.619 540.684 323.513Z" fill="white"/>
<path d="M540.684 323.513C553.034 323.408 563.132 333.334 563.237 345.684C563.343 358.034 553.417 368.131 541.067 368.237C528.717 368.343 518.619 358.417 518.514 346.067C518.408 333.717 528.334 323.619 540.684 323.513Z" fill="url(#paint17_radial_517_5148)" fill-opacity="0.7"/>
<path d="M540.684 323.513C553.034 323.408 563.132 333.334 563.237 345.684C563.343 358.034 553.417 368.131 541.067 368.237C528.717 368.343 518.619 358.417 518.514 346.067C518.408 333.717 528.334 323.619 540.684 323.513Z" fill="white"/>
<path d="M540.684 323.513C553.034 323.408 563.132 333.334 563.237 345.684C563.343 358.034 553.417 368.131 541.067 368.237C528.717 368.343 518.619 358.417 518.514 346.067C518.408 333.717 528.334 323.619 540.684 323.513Z" fill="url(#paint18_radial_517_5148)" fill-opacity="0.7"/>
<path d="M552.776 335.635C555.641 335.614 557.98 337.919 558 340.785L558.076 351.927C558.096 354.792 555.789 357.132 552.924 357.154L529.85 357.327C526.985 357.348 524.646 355.043 524.626 352.177L524.549 341.035C524.53 338.17 526.837 335.829 529.702 335.808L552.776 335.635ZM533.497 343.633C531.992 343.645 530.78 344.813 530.79 346.243C530.8 347.673 532.028 348.823 533.533 348.812C535.037 348.8 536.25 347.632 536.24 346.202C536.23 344.772 535.002 343.622 533.497 343.633ZM549.844 343.512C548.34 343.523 547.128 344.691 547.137 346.121C547.147 347.55 548.375 348.701 549.88 348.689C551.385 348.678 552.597 347.51 552.587 346.08C552.577 344.65 551.349 343.5 549.844 343.512Z" fill="black"/>
<path d="M552.916 356.001L552.924 357.154L529.85 357.327L529.842 356.174L552.916 356.001ZM556.924 351.935L556.847 340.793C556.832 338.634 555.124 336.884 552.992 336.792L552.784 336.788L529.71 336.961C527.481 336.978 525.687 338.798 525.702 341.026L525.779 352.168C525.794 354.397 527.614 356.19 529.842 356.174L529.85 357.327C526.985 357.348 524.646 355.043 524.626 352.177L524.549 341.035C524.53 338.17 526.837 335.829 529.702 335.808L552.776 335.635C555.641 335.614 557.98 337.919 558 340.785L558.076 351.927C558.096 354.792 555.789 357.132 552.924 357.154L552.916 356.001C555.075 355.985 556.826 354.276 556.92 352.143L556.924 351.935ZM536.24 346.202C536.23 344.772 535.002 343.622 533.497 343.633C531.992 343.645 530.78 344.813 530.79 346.243C530.8 347.673 532.028 348.823 533.533 348.812C535.037 348.8 536.25 347.632 536.24 346.202ZM552.587 346.08C552.577 344.695 551.425 343.572 549.985 343.514L549.844 343.512C548.34 343.523 547.128 344.691 547.137 346.121L547.142 346.254C547.224 347.621 548.422 348.7 549.88 348.689C551.385 348.678 552.597 347.51 552.587 346.08ZM537.393 346.194C537.407 348.315 535.626 349.949 533.541 349.965C531.455 349.98 529.652 348.373 529.637 346.252C529.623 344.13 531.404 342.496 533.489 342.48C535.574 342.465 537.378 344.072 537.393 346.194ZM553.74 346.071C553.755 348.193 551.973 349.827 549.888 349.842C547.803 349.858 545.999 348.251 545.984 346.129C545.97 344.008 547.751 342.374 549.836 342.359C551.921 342.343 553.725 343.95 553.74 346.071Z" fill="#D7D7D7"/>
<path d="M531.542 335.976H550.581C550.581 338.151 548.818 339.915 546.642 339.915H535.481C533.306 339.915 531.542 338.151 531.542 335.976Z" fill="black"/>
<path d="M550.581 335.976C550.581 338.083 548.926 339.804 546.845 339.91L546.642 339.915V338.762C547.77 338.762 548.74 338.092 549.178 337.129H532.945C533.384 338.092 534.354 338.762 535.481 338.762V339.915L535.279 339.91C533.197 339.804 531.542 338.083 531.542 335.976H550.581ZM546.642 338.762V339.915H535.481V338.762H546.642Z" fill="#D7D7D7"/>
<defs>
<radialGradient id="paint17_radial_517_5148" cx="0" cy="0" r="1" gradientUnits="userSpaceOnUse" gradientTransform="translate(540.875 345.875) rotate(-0.490819) scale(22.3627)">
<stop offset="0.0721154" stop-color="#232323"/>
<stop offset="0.0961538" stop-color="#A3A1A1"/>
<stop offset="0.158654" stop-color="#0A0A0A"/>
<stop offset="0.604167" stop-color="#111111"/>
<stop offset="0.630208" stop-color="#030303"/>
<stop offset="0.692708" stop-color="#0A0A0A"/>
<stop offset="0.739583" stop-color="#0C0C0C"/>
<stop offset="0.776042" stop-color="#090909"/>
<stop offset="0.802083" stop-color="#070707"/>
<stop offset="0.838484" stop-color="#050505"/>
<stop offset="0.894232" stop-color="#0D0D0D"/>
<stop offset="0.921875" stop-color="#0C0C0C"/>
<stop offset="0.96875" stop-color="#0C0C0C"/>
<stop offset="1" stop-color="white"/>
</radialGradient>
<radialGradient id="paint18_radial_517_5148" cx="0" cy="0" r="1" gradientUnits="userSpaceOnUse" gradientTransform="translate(540.875 345.875) rotate(-0.490819) scale(22.3627)">
<stop offset="0.0721154" stop-color="#232323"/>
<stop offset="0.0961538" stop-color="#A3A1A1"/>
<stop offset="0.158654" stop-color="#0A0A0A"/>
<stop offset="0.604167" stop-color="#111111"/>
<stop offset="0.630208" stop-color="#030303"/>
<stop offset="0.692708" stop-color="#0A0A0A"/>
<stop offset="0.739583" stop-color="#0C0C0C"/>
<stop offset="0.776042" stop-color="#090909"/>
<stop offset="0.802083" stop-color="#070707"/>
<stop offset="0.838484" stop-color="#050505"/>
<stop offset="0.894232" stop-color="#0D0D0D"/>
<stop offset="0.921875" stop-color="#0C0C0C"/>
<stop offset="0.96875" stop-color="#0C0C0C"/>
<stop offset="1" stop-color="white"/>
</radialGradient>
</defs>
</svg>
