<svg width="224" height="62" viewBox="0 0 224 62" fill="none" xmlns="http://www.w3.org/2000/svg">
<g clip-path="url(#clip0_574_483)">
<path d="M107.183 32.0787L107.761 35.5126L95.3184 37.1532C95.5495 39.2135 95.8192 41.0449 96.1274 42.571C97.0134 46.539 98.2076 49.5913 99.7099 51.6898C101.097 53.6738 102.445 54.704 103.678 54.7803C104.564 54.704 105.257 52.4147 105.719 47.8363L108.917 49.6677C108.377 52.7963 107.646 55.1237 106.798 56.6498C106.028 57.7944 105.065 58.4049 103.87 58.443C101.944 58.443 99.9411 57.2221 97.8994 54.7803C95.6651 52.1095 93.9701 48.5993 92.853 44.288C92.3907 42.4947 92.0055 40.2818 91.7358 37.6492L83.7232 38.7175L83.1453 35.2837L91.4276 34.1772C91.1965 30.9723 91.0424 27.3095 91.0039 23.2652H94.702C94.702 27.1569 94.8176 30.6289 95.0487 33.6812L107.183 32.0787ZM78.0989 38.2597C76.9433 39.6713 75.7105 41.0449 74.4008 42.3803L73.2451 38.603C77.2514 34.1772 80.1791 29.0264 82.0282 23.1507L85.4567 24.7532C84.4936 27.6147 83.2609 30.3237 81.7971 32.8418V58.6338H78.0989V38.2597ZM98.8239 23.4178C101.135 25.3255 103.061 27.195 104.679 29.1027L102.175 31.5446C100.827 29.7132 98.9395 27.7673 96.4741 25.6689L98.8239 23.4178ZM129.218 40.8541L132.531 41.579C131.298 46.9206 129.526 51.5372 127.215 55.4289L124.21 53.5212C126.521 49.5913 128.216 45.3563 129.218 40.8541ZM143.548 40.32C145.166 44.5932 146.592 49.1335 147.824 53.979L144.588 55.3907C143.279 50.1255 141.892 45.4326 140.351 41.3883L143.548 40.32ZM134.611 58.3667H130.797L130.027 54.9329C131.183 55.0855 132.3 55.2 133.378 55.2C134.303 55.2 134.765 54.6658 134.765 53.6357V37.9926H125.52V34.4824H147.516V37.9926H138.386V54.5513C138.386 57.0695 137.115 58.3667 134.611 58.3667ZM127.87 25.3255H145.513V28.7975H127.87V25.3255ZM113.424 24.6387H125.751V27.5003C124.595 30.7815 123.247 34.2153 121.706 37.84C123.902 41.312 125.096 44.3643 125.25 46.9969C125.25 48.752 124.865 50.0492 124.133 50.8123C123.054 51.7661 121.205 52.2621 118.547 52.3003L117.43 48.7901C118.201 48.9046 118.817 48.9809 119.318 48.9809C120.281 48.9046 120.897 48.752 121.205 48.4467C121.514 48.1797 121.706 47.6837 121.706 46.9969C121.706 44.4406 120.512 41.579 118.124 38.3741C119.857 34.5587 121.205 31.1249 122.207 28.0726H116.968V58.5957H113.424V24.6387ZM184.652 27.0806V56.8406H181.108V54.6658H174.366V56.8787H170.822V27.0806H184.652ZM174.366 51.2701H181.108V30.4763H174.366V51.2701ZM156.993 31.6209C156.107 33.5286 155.105 35.2837 154.026 36.8861L150.829 34.864C153.294 31.2775 155.066 27.424 156.107 23.3033L159.728 24.0664C159.342 25.5163 158.88 26.8517 158.418 28.1489H168.934V31.6209H163.695C163.618 33.9864 163.503 36.1993 163.272 38.2215H169.281V41.6935H162.771C162.617 42.5329 162.424 43.3723 162.27 44.1353C164.62 46.5009 167.008 49.1335 169.474 52.0332L167.24 55.3907C164.851 52.0332 162.848 49.4006 161.23 47.4929C159.612 51.499 156.877 54.8947 152.948 57.6418L150.559 54.7421C154.566 51.8043 157.185 48.2178 158.456 43.9446C158.611 43.2197 158.803 42.4566 158.957 41.6935H151.368V38.2215H159.497C159.728 36.1993 159.843 33.9864 159.92 31.6209H156.993ZM219.322 41.1593V58.5575H215.662V57.0313H198.251V58.5575H194.591V41.1593H219.322ZM198.251 53.9027H215.662V50.6978H198.251V53.9027ZM198.251 47.6073H215.662V44.3261H198.251V47.6073ZM191.586 26.7753H205.106C204.568 25.6307 204.029 24.5624 203.412 23.5704L207.341 22.96C207.881 24.1046 208.381 25.3637 208.882 26.7753H222.211V30.1329H216.278C215.778 31.9643 215.085 33.7193 214.237 35.3981H223.982V38.7557H189.776V35.3981H199.328C198.75 33.4904 198.135 31.7353 197.518 30.1329H191.586V26.7753ZM201.332 30.1329C201.871 31.7353 202.41 33.4904 202.911 35.3981H210.654C211.502 33.7193 212.195 31.9643 212.657 30.1329H201.332Z" fill="white"/>
<path d="M78.7676 12.058V0.682531H86.873V2.09635H80.4083V10.6442H87.1027V12.058H78.7676ZM80.2607 6.97156V5.59025H86.1674V6.97156H80.2607ZM93.2077 12.1555C92.3217 12.1555 91.5286 11.9659 90.8286 11.5868C90.1395 11.2076 89.598 10.6876 89.2043 10.0267C88.8105 9.36582 88.6136 8.60746 88.6136 7.7516C88.6136 6.89571 88.8105 6.13735 89.2043 5.4765C89.598 4.81562 90.1395 4.30102 90.8286 3.93268C91.5286 3.55349 92.3217 3.36391 93.2077 3.36391C93.9953 3.36391 94.6953 3.52099 95.3079 3.83518C95.9314 4.13852 96.4127 4.59354 96.7518 5.20024L95.554 5.96402C95.2696 5.5415 94.9197 5.23274 94.5039 5.03773C94.0993 4.83187 93.6616 4.72896 93.1913 4.72896C92.6226 4.72896 92.1139 4.85355 91.6654 5.10273C91.2169 5.3519 90.8614 5.70401 90.5989 6.15903C90.3364 6.6032 90.2051 7.13407 90.2051 7.7516C90.2051 8.36912 90.3364 8.9054 90.5989 9.36042C90.8614 9.81544 91.2169 10.1675 91.6654 10.4167C92.1139 10.6659 92.6226 10.7905 93.1913 10.7905C93.6616 10.7905 94.0993 10.693 94.5039 10.498C94.9197 10.2921 95.2696 9.97794 95.554 9.55543L96.7518 10.303C96.4127 10.8988 95.9314 11.3593 95.3079 11.6843C94.6953 11.9984 93.9953 12.1555 93.2077 12.1555ZM98.679 12.058V0H100.254V5.76901L99.9424 5.15148C100.227 4.58811 100.664 4.14934 101.255 3.83518C101.846 3.52099 102.535 3.36391 103.322 3.36391C104.033 3.36391 104.657 3.49932 105.193 3.77017C105.74 4.04101 106.166 4.4527 106.473 5.00523C106.779 5.55775 106.932 6.25653 106.932 7.10157V12.058H105.357V7.28033C105.357 6.44612 105.149 5.81776 104.733 5.39524C104.329 4.97273 103.754 4.76147 103.011 4.76147C102.453 4.76147 101.966 4.8698 101.55 5.08648C101.135 5.30314 100.812 5.62275 100.582 6.04527C100.363 6.46779 100.254 6.99322 100.254 7.62159V12.058H98.679ZM113.572 12.1555C112.696 12.1555 111.92 11.9659 111.242 11.5868C110.563 11.2076 110.028 10.6876 109.634 10.0267C109.24 9.35499 109.043 8.59663 109.043 7.7516C109.043 6.89571 109.24 6.13735 109.634 5.4765C110.028 4.81562 110.563 4.30102 111.242 3.93268C111.92 3.55349 112.696 3.36391 113.572 3.36391C114.436 3.36391 115.207 3.55349 115.885 3.93268C116.574 4.30102 117.11 4.81562 117.493 5.4765C117.887 6.12653 118.084 6.88489 118.084 7.7516C118.084 8.60746 117.887 9.36582 117.493 10.0267C117.11 10.6876 116.574 11.2076 115.885 11.5868C115.207 11.9659 114.436 12.1555 113.572 12.1555ZM113.572 10.7905C114.129 10.7905 114.627 10.6659 115.065 10.4167C115.513 10.1675 115.863 9.81544 116.115 9.36042C116.366 8.89455 116.492 8.35828 116.492 7.7516C116.492 7.13407 116.366 6.6032 116.115 6.15903C115.863 5.70401 115.513 5.3519 115.065 5.10273C114.627 4.85355 114.129 4.72896 113.572 4.72896C113.014 4.72896 112.516 4.85355 112.078 5.10273C111.641 5.3519 111.291 5.70401 111.028 6.15903C110.766 6.6032 110.635 7.13407 110.635 7.7516C110.635 8.35828 110.766 8.89455 111.028 9.36042C111.291 9.81544 111.641 10.1675 112.078 10.4167C112.516 10.6659 113.014 10.7905 113.572 10.7905ZM123.159 12.058L128.36 0.682531H129.984L135.202 12.058H133.479L128.836 1.59257H129.492L124.849 12.058H123.159ZM125.374 9.21416L125.817 7.9141H132.281L132.757 9.21416H125.374ZM140.396 12.1555C139.51 12.1555 138.717 11.9659 138.017 11.5868C137.328 11.2076 136.786 10.6876 136.392 10.0267C135.999 9.36582 135.802 8.60746 135.802 7.7516C135.802 6.89571 135.999 6.13735 136.392 5.4765C136.786 4.81562 137.328 4.30102 138.017 3.93268C138.717 3.55349 139.51 3.36391 140.396 3.36391C141.183 3.36391 141.883 3.52099 142.496 3.83518C143.119 4.13852 143.601 4.59354 143.94 5.20024L142.742 5.96402C142.458 5.5415 142.108 5.23274 141.692 5.03773C141.287 4.83187 140.85 4.72896 140.379 4.72896C139.81 4.72896 139.302 4.85355 138.853 5.10273C138.405 5.3519 138.049 5.70401 137.787 6.15903C137.524 6.6032 137.393 7.13407 137.393 7.7516C137.393 8.36912 137.524 8.9054 137.787 9.36042C138.049 9.81544 138.405 10.1675 138.853 10.4167C139.302 10.6659 139.81 10.7905 140.379 10.7905C140.85 10.7905 141.287 10.693 141.692 10.498C142.108 10.2921 142.458 9.97794 142.742 9.55543L143.94 10.303C143.601 10.8988 143.119 11.3593 142.496 11.6843C141.883 11.9984 141.183 12.1555 140.396 12.1555ZM145.979 12.058V3.44516H147.488V5.78526L147.341 5.20024C147.582 4.60436 147.986 4.14934 148.555 3.83518C149.124 3.52099 149.824 3.36391 150.655 3.36391V4.87522C150.59 4.86438 150.524 4.85897 150.458 4.85897C150.404 4.85897 150.349 4.85897 150.294 4.85897C149.452 4.85897 148.785 5.10814 148.292 5.6065C147.8 6.10485 147.554 6.82531 147.554 7.76785V12.058H145.979ZM156.241 12.1555C155.366 12.1555 154.589 11.9659 153.911 11.5868C153.233 11.2076 152.697 10.6876 152.303 10.0267C151.909 9.35499 151.713 8.59663 151.713 7.7516C151.713 6.89571 151.909 6.13735 152.303 5.4765C152.697 4.81562 153.233 4.30102 153.911 3.93268C154.589 3.55349 155.366 3.36391 156.241 3.36391C157.105 3.36391 157.876 3.55349 158.555 3.93268C159.244 4.30102 159.78 4.81562 160.163 5.4765C160.556 6.12653 160.753 6.88489 160.753 7.7516C160.753 8.60746 160.556 9.36582 160.163 10.0267C159.78 10.6876 159.244 11.2076 158.555 11.5868C157.876 11.9659 157.105 12.1555 156.241 12.1555ZM156.241 10.7905C156.799 10.7905 157.297 10.6659 157.734 10.4167C158.183 10.1675 158.533 9.81544 158.784 9.36042C159.036 8.89455 159.162 8.35828 159.162 7.7516C159.162 7.13407 159.036 6.6032 158.784 6.15903C158.533 5.70401 158.183 5.3519 157.734 5.10273C157.297 4.85355 156.799 4.72896 156.241 4.72896C155.683 4.72896 155.185 4.85355 154.748 5.10273C154.31 5.3519 153.96 5.70401 153.698 6.15903C153.435 6.6032 153.304 7.13407 153.304 7.7516C153.304 8.35828 153.435 8.89455 153.698 9.36042C153.96 9.81544 154.31 10.1675 154.748 10.4167C155.185 10.6659 155.683 10.7905 156.241 10.7905ZM165.425 12.1555C164.704 12.1555 164.014 12.058 163.358 11.863C162.713 11.668 162.204 11.4297 161.832 11.148L162.488 9.91294C162.86 10.1621 163.32 10.3734 163.867 10.5467C164.414 10.7201 164.972 10.8067 165.54 10.8067C166.273 10.8067 166.798 10.7038 167.115 10.498C167.444 10.2921 167.608 10.005 167.608 9.63668C167.608 9.36582 167.509 9.15456 167.312 9.0029C167.115 8.85122 166.853 8.73747 166.525 8.66164C166.207 8.58579 165.852 8.52079 165.458 8.46663C165.064 8.40163 164.671 8.32578 164.277 8.23912C163.883 8.14161 163.522 8.01161 163.194 7.8491C162.866 7.67575 162.603 7.44283 162.406 7.15032C162.21 6.84696 162.111 6.44612 162.111 5.94777C162.111 5.42775 162.259 4.97273 162.554 4.58271C162.849 4.19269 163.265 3.89476 163.801 3.68892C164.348 3.47224 164.993 3.36391 165.737 3.36391C166.306 3.36391 166.88 3.43431 167.46 3.57516C168.051 3.70517 168.532 3.89476 168.904 4.14394L168.231 5.37899C167.837 5.11898 167.427 4.94022 167.001 4.84272C166.574 4.74522 166.147 4.69646 165.721 4.69646C165.032 4.69646 164.517 4.81022 164.178 5.03773C163.839 5.25439 163.67 5.53608 163.67 5.88277C163.67 6.17528 163.768 6.40279 163.965 6.5653C164.173 6.71696 164.435 6.83613 164.753 6.92281C165.081 7.00947 165.442 7.08532 165.836 7.15032C166.229 7.20448 166.623 7.28033 167.017 7.37783C167.411 7.46449 167.766 7.58909 168.083 7.7516C168.412 7.9141 168.674 8.14161 168.871 8.43413C169.079 8.72664 169.183 9.11666 169.183 9.60418C169.183 10.1242 169.03 10.5738 168.723 10.953C168.417 11.3322 167.985 11.6301 167.427 11.8468C166.869 12.0526 166.202 12.1555 165.425 12.1555ZM173.645 12.1555C172.923 12.1555 172.234 12.058 171.578 11.863C170.933 11.668 170.424 11.4297 170.052 11.148L170.708 9.91294C171.08 10.1621 171.54 10.3734 172.087 10.5467C172.634 10.7201 173.191 10.8067 173.76 10.8067C174.493 10.8067 175.018 10.7038 175.335 10.498C175.663 10.2921 175.828 10.005 175.828 9.63668C175.828 9.36582 175.729 9.15456 175.532 9.0029C175.335 8.85122 175.073 8.73747 174.745 8.66164C174.427 8.58579 174.072 8.52079 173.678 8.46663C173.284 8.40163 172.891 8.32578 172.497 8.23912C172.103 8.14161 171.742 8.01161 171.414 7.8491C171.086 7.67575 170.823 7.44283 170.626 7.15032C170.429 6.84696 170.331 6.44612 170.331 5.94777C170.331 5.42775 170.479 4.97273 170.774 4.58271C171.069 4.19269 171.485 3.89476 172.021 3.68892C172.568 3.47224 173.213 3.36391 173.957 3.36391C174.526 3.36391 175.1 3.43431 175.68 3.57516C176.271 3.70517 176.752 3.89476 177.124 4.14394L176.451 5.37899C176.057 5.11898 175.647 4.94022 175.22 4.84272C174.794 4.74522 174.367 4.69646 173.941 4.69646C173.252 4.69646 172.737 4.81022 172.398 5.03773C172.059 5.25439 171.89 5.53608 171.89 5.88277C171.89 6.17528 171.988 6.40279 172.185 6.5653C172.393 6.71696 172.655 6.83613 172.973 6.92281C173.301 7.00947 173.662 7.08532 174.055 7.15032C174.449 7.20448 174.843 7.28033 175.237 7.37783C175.631 7.46449 175.986 7.58909 176.303 7.7516C176.631 7.9141 176.894 8.14161 177.091 8.43413C177.299 8.72664 177.403 9.11666 177.403 9.60418C177.403 10.1242 177.249 10.5738 176.943 10.953C176.637 11.3322 176.205 11.6301 175.647 11.8468C175.089 12.0526 174.422 12.1555 173.645 12.1555ZM182.268 12.058L187.47 0.682531H189.093L194.311 12.058H192.588L187.944 1.59257H188.601L183.958 12.058H182.268ZM184.483 9.21416L184.927 7.9141H191.39L191.866 9.21416H184.483ZM199.521 15.3082C198.723 15.3082 197.946 15.1944 197.192 14.9669C196.448 14.7502 195.84 14.436 195.371 14.0244L196.125 12.8218C196.53 13.1685 197.027 13.4393 197.618 13.6344C198.208 13.8402 198.827 13.9431 199.473 13.9431C200.5 13.9431 201.254 13.7048 201.736 13.2281C202.217 12.7514 202.458 12.0255 202.458 11.0505V9.23041L202.622 7.52409L202.54 5.80151V3.44516H204.033V10.888C204.033 12.4047 203.651 13.5206 202.884 14.2356C202.119 14.9507 200.997 15.3082 199.521 15.3082ZM199.325 11.7005C198.483 11.7005 197.727 11.5272 197.06 11.1805C196.403 10.823 195.879 10.33 195.485 9.70168C195.101 9.07331 194.911 8.34745 194.911 7.52409C194.911 6.68988 195.101 5.96402 195.485 5.34649C195.879 4.71812 196.403 4.2306 197.06 3.88393C197.727 3.53724 198.483 3.36391 199.325 3.36391C200.068 3.36391 200.746 3.51557 201.359 3.81892C201.971 4.11144 202.458 4.56646 202.82 5.18398C203.191 5.80151 203.376 6.58155 203.376 7.52409C203.376 8.45578 203.191 9.23041 202.82 9.84794C202.458 10.4655 201.971 10.9313 201.359 11.2455C200.746 11.5488 200.068 11.7005 199.325 11.7005ZM199.505 10.3355C200.084 10.3355 200.598 10.2163 201.047 9.97794C201.495 9.73959 201.846 9.40917 202.098 8.98665C202.36 8.56413 202.492 8.07661 202.492 7.52409C202.492 6.97156 202.36 6.48404 202.098 6.06152C201.846 5.639 201.495 5.31399 201.047 5.08648C200.598 4.84812 200.084 4.72896 199.505 4.72896C198.925 4.72896 198.406 4.84812 197.946 5.08648C197.498 5.31399 197.142 5.639 196.879 6.06152C196.628 6.48404 196.503 6.97156 196.503 7.52409C196.503 8.07661 196.628 8.56413 196.879 8.98665C197.142 9.40917 197.498 9.73959 197.946 9.97794C198.406 10.2163 198.925 10.3355 199.505 10.3355ZM210.915 12.1555C209.986 12.1555 209.166 11.9659 208.454 11.5868C207.755 11.2076 207.207 10.6876 206.813 10.0267C206.43 9.36582 206.239 8.60746 206.239 7.7516C206.239 6.89571 206.424 6.13735 206.797 5.4765C207.181 4.81562 207.7 4.30102 208.356 3.93268C209.023 3.55349 209.772 3.36391 210.603 3.36391C211.447 3.36391 212.19 3.54807 212.834 3.91643C213.48 4.28477 213.983 4.8048 214.345 5.4765C214.716 6.13735 214.903 6.91197 214.903 7.80035C214.903 7.86535 214.898 7.94118 214.885 8.02786C214.885 8.11452 214.88 8.19577 214.869 8.27162H207.469V7.15032H214.049L213.408 7.54034C213.421 6.98781 213.305 6.49487 213.064 6.06152C212.823 5.62816 212.49 5.29232 212.064 5.05398C211.648 4.8048 211.161 4.68021 210.603 4.68021C210.057 4.68021 209.57 4.8048 209.142 5.05398C208.716 5.29232 208.383 5.63358 208.142 6.07777C207.901 6.51112 207.782 7.00947 207.782 7.57284V7.83285C207.782 8.40703 207.912 8.92165 208.176 9.37667C208.449 9.82084 208.827 10.1675 209.306 10.4167C209.788 10.6659 210.341 10.7905 210.965 10.7905C211.479 10.7905 211.944 10.7038 212.36 10.5305C212.786 10.3571 213.157 10.0971 213.474 9.75043L214.345 10.758C213.951 11.213 213.458 11.5597 212.868 11.798C212.288 12.0364 211.637 12.1555 210.915 12.1555ZM219.583 12.1555C218.862 12.1555 218.172 12.058 217.516 11.863C216.87 11.668 216.362 11.4297 215.991 11.148L216.647 9.91294C217.018 10.1621 217.478 10.3734 218.024 10.5467C218.571 10.7201 219.13 10.8067 219.699 10.8067C220.432 10.8067 220.956 10.7038 221.273 10.498C221.601 10.2921 221.766 10.005 221.766 9.63668C221.766 9.36582 221.667 9.15456 221.469 9.0029C221.273 8.85122 221.011 8.73747 220.683 8.66164C220.366 8.58579 220.011 8.52079 219.616 8.46663C219.222 8.40163 218.828 8.32578 218.434 8.23912C218.042 8.14161 217.68 8.01161 217.352 7.8491C217.023 7.67575 216.761 7.44283 216.565 7.15032C216.367 6.84696 216.269 6.44612 216.269 5.94777C216.269 5.42775 216.417 4.97273 216.711 4.58271C217.007 4.19269 217.423 3.89476 217.96 3.68892C218.505 3.47224 219.151 3.36391 219.895 3.36391C220.464 3.36391 221.038 3.43431 221.618 3.57516C222.208 3.70517 222.689 3.89476 223.062 4.14394L222.39 5.37899C221.996 5.11898 221.585 4.94022 221.159 4.84272C220.731 4.74522 220.305 4.69646 219.879 4.69646C219.19 4.69646 218.675 4.81022 218.336 5.03773C217.997 5.25439 217.828 5.53608 217.828 5.88277C217.828 6.17528 217.926 6.40279 218.124 6.5653C218.331 6.71696 218.593 6.83613 218.91 6.92281C219.238 7.00947 219.6 7.08532 219.993 7.15032C220.387 7.20448 220.781 7.28033 221.175 7.37783C221.569 7.46449 221.924 7.58909 222.242 7.7516C222.57 7.9141 222.832 8.14161 223.028 8.43413C223.237 8.72664 223.34 9.11666 223.34 9.60418C223.34 10.1242 223.187 10.5738 222.882 10.953C222.575 11.3322 222.144 11.6301 221.585 11.8468C221.027 12.0526 220.36 12.1555 219.583 12.1555Z" fill="white"/>
<path d="M19.4994 5.20801L32.0801 40.6654L26.4036 43.2651L13.6445 7.24231L19.4994 5.20801Z" fill="#29E7E5"/>
<path d="M38.0763 61.8701C47.0887 61.8701 54.3948 54.7525 54.3948 45.9726C54.3948 37.1927 47.0887 30.0752 38.0763 30.0752C29.0638 30.0752 21.7578 37.1927 21.7578 45.9726C21.7578 54.7525 29.0638 61.8701 38.0763 61.8701Z" fill="#FCAFE4"/>
<path d="M16.051 56.9241C24.9157 56.9241 32.1019 49.9252 32.1019 41.2917C32.1019 32.6581 24.9157 25.6592 16.051 25.6592C7.18626 25.6592 0 32.6581 0 41.2917C0 49.9252 7.18626 56.9241 16.051 56.9241Z" fill="#29E7E5"/>
<path d="M29.3503 32.5371C31.0872 35.0349 32.1018 38.048 32.1018 41.292C32.1018 46.9476 29.0178 51.9016 24.3986 54.6464C22.7285 52.1521 21.7578 49.1731 21.7578 45.9729C21.7578 40.3196 24.787 35.3557 29.3503 32.5371Z" fill="#9770BF"/>
<path d="M11.0576 0.400391H40.3963L45.8347 12.2352H15.4143L11.0576 0.400391Z" fill="#29E7E5"/>
<path d="M41.09 6.83887L53.5163 42.0328L47.6614 44.0669L34.9023 8.04414L41.09 6.83887Z" fill="#FCAFE4"/>
<path d="M33.5283 4.81543C33.5283 4.81543 39.6486 4.81947 42.9162 5.0954C48.0448 5.52846 50.9611 7.23421 56.2568 7.6129C59.5503 7.84843 63.5548 7.6129 63.5548 7.6129L68.0379 18.7843C68.0379 18.7843 60.9041 20.834 53.7862 18.7843C46.6685 16.7346 38.3046 16.9309 38.3046 16.9309L33.5283 4.81543Z" fill="#FCAFE4"/>
<path d="M33.5283 4.81543C33.5283 4.81543 39.2014 4.81937 42.5399 5.06588L45.8341 12.2342H36.453L33.5283 4.81543Z" fill="#9770BF"/>
</g>
<defs>
<clipPath id="clip0_574_483">
<rect width="224" height="62" fill="white"/>
</clipPath>
</defs>
</svg>
