<svg width="50" height="50" viewBox="772 33 62 62" fill="none" xmlns="http://www.w3.org/2000/svg">
<circle cx="803" cy="64" r="31" fill="black"/>
<path d="M802.362 41.192C814.712 41.0862 824.809 51.0122 824.915 63.3624C825.021 75.7125 815.095 85.8101 802.745 85.9159C790.395 86.0217 780.297 76.0957 780.191 63.7455C780.085 51.3954 790.011 41.2978 802.362 41.192Z" fill="white"/>
<path d="M802.362 41.192C814.712 41.0862 824.809 51.0122 824.915 63.3624C825.021 75.7125 815.095 85.8101 802.745 85.9159C790.395 86.0217 780.297 76.0957 780.191 63.7455C780.085 51.3954 790.011 41.2978 802.362 41.192Z" fill="url(#paint0_radial_525_1184)" fill-opacity="0.7"/>
<path d="M802.362 41.192C814.712 41.0862 824.809 51.0122 824.915 63.3624C825.021 75.7125 815.095 85.8101 802.745 85.9159C790.395 86.0217 780.297 76.0957 780.191 63.7455C780.085 51.3954 790.011 41.2978 802.362 41.192Z" fill="white"/>
<path d="M802.362 41.192C814.712 41.0862 824.809 51.0122 824.915 63.3624C825.021 75.7125 815.095 85.8101 802.745 85.9159C790.395 86.0217 780.297 76.0957 780.191 63.7455C780.085 51.3954 790.011 41.2978 802.362 41.192Z" fill="url(#paint1_radial_525_1184)" fill-opacity="0.7"/>
<path d="M803.963 52.6505C804.292 51.761 805.55 51.761 805.879 52.6505L809.035 61.1789C809.138 61.4585 809.359 61.679 809.638 61.7824L818.167 64.9382C819.056 65.2674 819.056 66.5254 818.167 66.8545L809.638 70.0103C809.359 70.1138 809.138 70.3342 809.035 70.6139L805.879 79.1422C805.55 80.0317 804.292 80.0317 803.963 79.1422L800.807 70.6139C800.703 70.3342 800.483 70.1138 800.203 70.0103L791.675 66.8545C790.785 66.5254 790.785 65.2674 791.675 64.9382L800.203 61.7824C800.483 61.679 800.703 61.4585 800.807 61.1789L803.963 52.6505Z" fill="black"/>
<path d="M803.963 52.6505C804.292 51.761 805.55 51.761 805.879 52.6505L809.035 61.1788C809.138 61.4585 809.359 61.679 809.638 61.7825L818.167 64.9382C819.056 65.2674 819.056 66.5254 818.167 66.8545L809.638 70.0103L809.587 70.031C809.332 70.1415 809.132 70.3517 809.035 70.6139L805.879 79.1423L805.863 79.1833C805.511 80.0315 804.287 80.0178 803.963 79.1423L800.807 70.6139C800.71 70.3517 800.51 70.1415 800.255 70.031L800.203 70.0103L791.675 66.8545C790.785 66.5253 790.785 65.2674 791.675 64.9382L800.203 61.7825C800.465 61.6855 800.676 61.4856 800.786 61.2305L800.807 61.1788L803.963 52.6505ZM805.283 52.8709C805.159 52.5348 804.683 52.5347 804.559 52.8709L801.403 61.3993C801.235 61.8529 800.877 62.2106 800.424 62.3784L791.895 65.5341C791.559 65.6586 791.559 66.1341 791.895 66.2586L800.424 69.4143C800.877 69.5822 801.235 69.9398 801.403 70.3934L804.559 78.9218C804.683 79.258 805.159 79.258 805.283 78.9218L808.439 70.3934C808.607 69.9398 808.964 69.5822 809.418 69.4143L817.946 66.2586C818.282 66.1342 818.282 65.6586 817.946 65.5341L809.418 62.3784C808.964 62.2106 808.607 61.8529 808.439 61.3993L805.283 52.8709Z" fill="#D8D8D8"/>
<path d="M793.838 49.284C793.959 48.9574 794.421 48.9574 794.542 49.284L795.701 52.4152C795.739 52.5178 795.82 52.5988 795.922 52.6368L799.053 53.7954C799.38 53.9163 799.38 54.3781 799.053 54.499L795.922 55.6576C795.82 55.6956 795.739 55.7765 795.701 55.8792L794.542 59.0104C794.421 59.337 793.959 59.337 793.838 59.0104L792.68 55.8792C792.642 55.7765 792.561 55.6956 792.458 55.6576L789.327 54.499C789 54.3781 789 53.9163 789.327 53.7954L792.458 52.6368C792.561 52.5988 792.642 52.5178 792.68 52.4152L793.838 49.284Z" fill="black"/>
<path d="M793.838 49.284C793.959 48.9574 794.421 48.9574 794.542 49.284L795.701 52.4151C795.739 52.5178 795.82 52.5988 795.922 52.6367L799.053 53.7954C799.38 53.9162 799.38 54.3782 799.053 54.499L795.922 55.6576L795.885 55.6737C795.8 55.7161 795.734 55.7894 795.701 55.8792L794.542 59.0104L794.515 59.0679C794.375 59.3178 794.005 59.3178 793.865 59.0679L793.838 59.0104L792.68 55.8792C792.647 55.7894 792.58 55.7161 792.496 55.6737L792.458 55.6576L789.327 54.499C789.021 54.3857 789.002 53.9725 789.27 53.8217L789.327 53.7954L792.458 52.6367C792.548 52.6035 792.621 52.5373 792.664 52.4525L792.68 52.4151L793.838 49.284ZM793.031 52.5452C792.955 52.7505 792.794 52.9124 792.588 52.9884L789.457 54.147L792.588 55.3056C792.793 55.3816 792.955 55.5436 793.031 55.7488L794.19 58.8804L795.349 55.7488C795.425 55.5436 795.587 55.3816 795.792 55.3056L798.923 54.147L795.792 52.9884C795.587 52.9124 795.425 52.7505 795.349 52.5452L794.19 49.414L793.031 52.5452Z" fill="#D8D8D8"/>
<defs>
<radialGradient id="paint0_radial_525_1184" cx="0" cy="0" r="1" gradientUnits="userSpaceOnUse" gradientTransform="translate(802.553 63.5539) rotate(-0.490819) scale(22.3627 22.3627)">
<stop offset="0.604167" stop-color="#111111"/>
<stop offset="0.630208" stop-color="#030303"/>
<stop offset="0.692708" stop-color="#0A0A0A"/>
<stop offset="0.739583" stop-color="#0C0C0C"/>
<stop offset="0.776042" stop-color="#090909"/>
<stop offset="0.802083" stop-color="#070707"/>
<stop offset="0.838484" stop-color="#050505"/>
<stop offset="0.894232" stop-color="#0D0D0D"/>
<stop offset="0.921875" stop-color="#0C0C0C"/>
<stop offset="0.96875" stop-color="#0C0C0C"/>
<stop offset="1" stop-color="white"/>
</radialGradient>
<radialGradient id="paint1_radial_525_1184" cx="0" cy="0" r="1" gradientUnits="userSpaceOnUse" gradientTransform="translate(802.553 63.5539) rotate(-0.490819) scale(22.3627 22.3627)">
<stop offset="0.604167" stop-color="#111111"/>
<stop offset="0.630208" stop-color="#030303"/>
<stop offset="0.692708" stop-color="#0A0A0A"/>
<stop offset="0.739583" stop-color="#0C0C0C"/>
<stop offset="0.776042" stop-color="#090909"/>
<stop offset="0.802083" stop-color="#070707"/>
<stop offset="0.838484" stop-color="#050505"/>
<stop offset="0.894232" stop-color="#0D0D0D"/>
<stop offset="0.921875" stop-color="#0C0C0C"/>
<stop offset="0.96875" stop-color="#0C0C0C"/>
<stop offset="1" stop-color="white"/>
</radialGradient>
</defs>
</svg>
