<svg width="50" height="50" viewBox="436 34 62 62" fill="none" xmlns="http://www.w3.org/2000/svg">
<path d="M498 65C498 82.1208 484.121 96 467 96C449.879 96 436 82.1208 436 65C436 47.8792 449.879 34 467 34C484.121 34 498 47.8792 498 65Z" fill="black"/>
<path d="M466.684 42.5133C479.034 42.4075 489.132 52.3335 489.237 64.6837C489.343 77.0338 479.417 87.1313 467.067 87.2371C454.717 87.3429 444.619 77.4169 444.514 65.0668C444.408 52.7167 454.334 42.6191 466.684 42.5133Z" fill="white"/>
<path d="M466.684 42.5133C479.034 42.4075 489.132 52.3335 489.237 64.6837C489.343 77.0338 479.417 87.1313 467.067 87.2371C454.717 87.3429 444.619 77.4169 444.514 65.0668C444.408 52.7167 454.334 42.6191 466.684 42.5133Z" fill="url(#paint6_radial_525_1184)" fill-opacity="0.7"/>
<path d="M466.684 42.5133C479.034 42.4075 489.132 52.3335 489.237 64.6837C489.343 77.0338 479.417 87.1313 467.067 87.2371C454.717 87.3429 444.619 77.4169 444.514 65.0668C444.408 52.7167 454.334 42.6191 466.684 42.5133Z" fill="white"/>
<path d="M466.684 42.5133C479.034 42.4075 489.132 52.3335 489.237 64.6837C489.343 77.0338 479.417 87.1313 467.067 87.2371C454.717 87.3429 444.619 77.4169 444.514 65.0668C444.408 52.7167 454.334 42.6191 466.684 42.5133Z" fill="url(#paint7_radial_525_1184)" fill-opacity="0.7"/>
<path d="M478.776 54.6361C481.641 54.6147 483.98 56.9202 484 59.7856L484.076 70.9276C484.096 73.793 481.789 76.1334 478.924 76.1549L455.85 76.3276C452.985 76.3491 450.646 74.0435 450.626 71.178L450.549 60.0361C450.53 57.1706 452.837 54.8303 455.702 54.8088L478.776 54.6361ZM459.497 62.6344C457.992 62.6457 456.78 63.8141 456.79 65.2439C456.8 66.6739 458.028 67.8239 459.533 67.8127C461.037 67.8014 462.25 66.6331 462.24 65.2031C462.23 63.7733 461.002 62.6231 459.497 62.6344ZM475.844 62.5126C474.34 62.5238 473.128 63.6917 473.137 65.1215C473.147 66.5515 474.375 67.7016 475.88 67.6903C477.385 67.679 478.597 66.5107 478.587 65.0807C478.577 63.6509 477.349 62.5013 475.844 62.5126Z" fill="black"/>
<path d="M478.916 75.0019L478.924 76.1549L455.85 76.3276L455.842 75.1746L478.916 75.0019ZM482.923 70.9362L482.847 59.7943C482.832 57.6353 481.124 55.8848 478.991 55.7926L478.784 55.789L455.71 55.9618C453.481 55.9785 451.687 57.7987 451.702 60.0275L451.779 71.1694C451.794 73.3981 453.613 75.1913 455.842 75.1746L455.85 76.3276C452.985 76.3491 450.646 74.0435 450.626 71.178L450.549 60.0361C450.53 57.1706 452.837 54.8303 455.702 54.8088L478.776 54.6361C481.641 54.6147 483.98 56.9202 484 59.7856L484.076 70.9276C484.096 73.793 481.789 76.1334 478.924 76.1549L478.916 75.0019C481.075 74.9857 482.826 73.2769 482.92 71.144L482.923 70.9362ZM462.24 65.2031C462.23 63.7733 461.002 62.6231 459.497 62.6344C457.992 62.6457 456.78 63.8141 456.79 65.2439C456.8 66.6739 458.028 67.8239 459.533 67.8127C461.037 67.8014 462.25 66.6331 462.24 65.2031ZM478.587 65.0807C478.577 63.6956 477.424 62.5734 475.984 62.5149L475.844 62.5126C474.34 62.5238 473.128 63.6917 473.137 65.1215L473.142 65.2549C473.224 66.6223 474.422 67.7012 475.88 67.6903C477.385 67.679 478.597 66.5107 478.587 65.0807ZM463.393 65.1945C463.407 67.316 461.626 68.9501 459.541 68.9657C457.455 68.9813 455.652 67.3741 455.637 65.2526C455.623 63.1312 457.404 61.497 459.489 61.4814C461.574 61.4658 463.378 63.0731 463.393 65.1945ZM479.74 65.0721C479.754 67.1936 477.973 68.8277 475.888 68.8433C473.803 68.8589 471.999 67.2517 471.984 65.1302C471.97 63.0087 473.751 61.3752 475.836 61.3596C477.921 61.344 479.725 62.9506 479.74 65.0721Z" fill="#D7D7D7"/>
<path d="M457.543 54.9756H476.582C476.582 57.1511 474.819 58.9148 472.643 58.9148H461.482C459.307 58.9148 457.543 57.1511 457.543 54.9756Z" fill="black"/>
<path d="M476.582 54.9756C476.582 57.0832 474.927 58.8043 472.846 58.9097L472.643 58.9148V57.7618C473.77 57.7618 474.741 57.0917 475.179 56.1286H458.946C459.385 57.0917 460.355 57.7618 461.482 57.7618V58.9148L461.28 58.9097C459.198 58.8043 457.543 57.0831 457.543 54.9756H476.582ZM472.643 57.7618V58.9148H461.482V57.7618H472.643Z" fill="#D7D7D7"/>
<defs>
<radialGradient id="paint6_radial_525_1184" cx="0" cy="0" r="1" gradientUnits="userSpaceOnUse" gradientTransform="translate(466.875 64.8752) rotate(-0.490819) scale(22.3627)">
<stop offset="0.0721154" stop-color="#232323"/>
<stop offset="0.0961538" stop-color="#A3A1A1"/>
<stop offset="0.158654" stop-color="#0A0A0A"/>
<stop offset="0.604167" stop-color="#111111"/>
<stop offset="0.630208" stop-color="#030303"/>
<stop offset="0.692708" stop-color="#0A0A0A"/>
<stop offset="0.739583" stop-color="#0C0C0C"/>
<stop offset="0.776042" stop-color="#090909"/>
<stop offset="0.802083" stop-color="#070707"/>
<stop offset="0.838484" stop-color="#050505"/>
<stop offset="0.894232" stop-color="#0D0D0D"/>
<stop offset="0.921875" stop-color="#0C0C0C"/>
<stop offset="0.96875" stop-color="#0C0C0C"/>
<stop offset="1" stop-color="white"/>
</radialGradient>
<radialGradient id="paint7_radial_525_1184" cx="0" cy="0" r="1" gradientUnits="userSpaceOnUse" gradientTransform="translate(466.875 64.8752) rotate(-0.490819) scale(22.3627)">
<stop offset="0.0721154" stop-color="#232323"/>
<stop offset="0.0961538" stop-color="#A3A1A1"/>
<stop offset="0.158654" stop-color="#0A0A0A"/>
<stop offset="0.604167" stop-color="#111111"/>
<stop offset="0.630208" stop-color="#030303"/>
<stop offset="0.692708" stop-color="#0A0A0A"/>
<stop offset="0.739583" stop-color="#0C0C0C"/>
<stop offset="0.776042" stop-color="#090909"/>
<stop offset="0.802083" stop-color="#070707"/>
<stop offset="0.838484" stop-color="#050505"/>
<stop offset="0.894232" stop-color="#0D0D0D"/>
<stop offset="0.921875" stop-color="#0C0C0C"/>
<stop offset="0.96875" stop-color="#0C0C0C"/>
<stop offset="1" stop-color="white"/>
</radialGradient>
</defs>
</svg>
