<svg width="54" height="54" viewBox="35 632 54 54" fill="none" xmlns="http://www.w3.org/2000/svg">
<path d="M62 635C74.8934 635 85 645.941 85 659C85 672.059 74.8934 683 62 683C49.1066 683 39 672.059 39 659C39 645.941 49.1066 635 62 635Z" fill="#555555" stroke="black" stroke-width="8"/>
<path d="M72.3238 652.012C73.1936 652.005 73.9036 652.705 73.9096 653.575L73.9892 665.155C73.9952 666.025 73.2948 666.736 72.425 666.742L52.6764 666.89C51.8066 666.897 51.0964 666.197 51.0904 665.327L51.0108 653.746C51.0048 652.877 51.7052 652.166 52.575 652.16L72.3238 652.012ZM57.1499 657.502C56.1198 657.51 55.2902 658.309 55.2969 659.288C55.3036 660.267 56.1442 661.054 57.1742 661.047C58.2043 661.039 59.0339 660.239 59.0272 659.26C59.0205 658.281 58.1799 657.494 57.1499 657.502ZM68.3402 657.418C67.3102 657.426 66.4806 658.226 66.4873 659.204C66.494 660.183 67.3346 660.97 68.3646 660.963C69.3946 660.955 70.2241 660.155 70.2174 659.176C70.2107 658.198 69.3703 657.41 68.3402 657.418Z" fill="black"/>
<path d="M72.419 665.868L72.425 666.743L52.6764 666.891L52.6704 666.016L72.419 665.868ZM73.1142 665.163L73.0346 653.582C73.032 653.208 72.7358 652.904 72.3658 652.888L72.3298 652.887L52.581 653.035C52.1944 653.038 51.8832 653.354 51.8858 653.74L51.9654 665.321C51.9681 665.707 52.2837 666.019 52.6704 666.016L52.6764 666.891C51.8066 666.897 51.0964 666.197 51.0904 665.327L51.0108 653.747C51.0048 652.877 51.7052 652.167 52.575 652.16L72.3238 652.012C73.1936 652.006 73.9036 652.706 73.9096 653.575L73.9892 665.156C73.9952 666.026 73.2948 666.736 72.425 666.743L72.419 665.868C72.8056 665.865 73.1168 665.549 73.1142 665.163ZM59.0272 659.261C59.0205 658.282 58.1799 657.495 57.1499 657.502C56.1198 657.51 55.2902 658.31 55.2969 659.289C55.3036 660.267 56.1442 661.055 57.1742 661.047C58.2043 661.039 59.0339 660.24 59.0272 659.261ZM70.2174 659.177C70.2109 658.229 69.422 657.46 68.4363 657.42L68.3402 657.419C67.3102 657.426 66.4806 658.226 66.4873 659.205C66.494 660.184 67.3346 660.971 68.3646 660.963C69.3946 660.956 70.2241 660.156 70.2174 659.177ZM59.9022 659.254C59.9125 660.758 58.6509 661.911 57.1803 661.922C55.7096 661.933 54.4323 660.799 54.4219 659.295C54.4116 657.792 55.6732 656.638 57.1439 656.627C58.6145 656.616 59.8918 657.751 59.9022 659.254ZM71.0924 659.17C71.1027 660.674 69.8413 661.827 68.3706 661.838C66.8999 661.849 65.6227 660.715 65.6123 659.211C65.602 657.708 66.8635 656.555 68.3342 656.544C69.8049 656.533 71.0821 657.667 71.0924 659.17Z" fill="#DADADA"/>
<path d="M55.8521 652.573H68.6885V653.132C68.6885 654.472 67.6651 655.558 66.4026 655.558H58.138C56.8755 655.558 55.8521 654.472 55.8521 653.132V652.573Z" fill="#DADADA"/>
</svg>
