<svg width="50" height="52" viewBox="38 712 50 52" fill="none" xmlns="http://www.w3.org/2000/svg">
<path d="M63 715.5C75.05 715.5 84.5 725.754 84.5 738C84.5 750.246 75.05 760.5 63 760.5C50.95 760.5 41.5 750.246 41.5 738C41.5 725.754 50.95 715.5 63 715.5Z" fill="#555555" stroke="black" stroke-width="7"/>
<path d="M68.6181 729.052L57.9941 732.374C57.7784 732.446 57.59 732.589 57.4562 732.781C57.3224 732.974 57.2501 733.207 57.25 733.447V742.638C56.9021 742.548 56.5455 742.502 56.1875 742.5C54.4277 742.5 53 743.507 53 744.75C53 745.992 54.4277 747 56.1875 747C57.9473 747 59.375 745.992 59.375 744.75V736.534L67.875 733.897V740.388C67.5271 740.298 67.1705 740.252 66.8125 740.25C65.0527 740.25 63.625 741.257 63.625 742.5C63.625 743.742 65.0527 744.75 66.8125 744.75C68.5723 744.75 70 743.743 70 742.5V730.124C69.9998 729.947 69.9604 729.773 69.8849 729.616C69.8094 729.458 69.7 729.322 69.5654 729.217C69.4308 729.113 69.275 729.044 69.1104 729.015C68.9458 728.986 68.7772 728.999 68.6181 729.052Z" fill="#D9D9D9"/>
</svg>
