<svg width="50" height="50" viewBox="38 475 50 50" fill="none" xmlns="http://www.w3.org/2000/svg">
<defs>
<radialGradient id="paint32_radial_40_6336" cx="0" cy="0" r="1" gradientUnits="userSpaceOnUse" gradientTransform="translate(63.0576 500.058) rotate(-0.490819) scale(18.897)">
<stop offset="0.240385"/>
<stop offset="0.541667" stop-color="#0E0E0E"/>
<stop offset="0.567708" stop-color="#0A0A0A"/>
<stop offset="0.604167" stop-color="#111111"/>
<stop offset="0.630208" stop-color="#030303"/>
<stop offset="0.692708" stop-color="#0A0A0A"/>
<stop offset="0.739583" stop-color="#0C0C0C"/>
<stop offset="0.776042" stop-color="#090909"/>
<stop offset="0.802083" stop-color="#070707"/>
<stop offset="0.838484" stop-color="#050505"/>
<stop offset="0.894232" stop-color="#0D0D0D"/>
<stop offset="0.921875" stop-color="#0C0C0C"/>
<stop offset="0.96875" stop-color="#0C0C0C"/>
<stop offset="1" stop-color="#F8F8F8"/>
</radialGradient>
<radialGradient id="paint33_radial_40_6336" cx="0" cy="0" r="1" gradientUnits="userSpaceOnUse" gradientTransform="translate(63.0576 500.058) rotate(-0.490819) scale(18.897)">
<stop offset="0.240385"/>
<stop offset="0.541667" stop-color="#0E0E0E"/>
<stop offset="0.567708" stop-color="#0A0A0A"/>
<stop offset="0.604167" stop-color="#111111"/>
<stop offset="0.630208" stop-color="#030303"/>
<stop offset="0.692708" stop-color="#0A0A0A"/>
<stop offset="0.739583" stop-color="#0C0C0C"/>
<stop offset="0.776042" stop-color="#090909"/>
<stop offset="0.802083" stop-color="#070707"/>
<stop offset="0.838484" stop-color="#050505"/>
<stop offset="0.894232" stop-color="#0D0D0D"/>
<stop offset="0.921875" stop-color="#0C0C0C"/>
<stop offset="0.96875" stop-color="#0C0C0C"/>
<stop offset="1" stop-color="#F8F8F8"/>
</radialGradient>
</defs>
<circle cx="63" cy="500" r="25" fill="#272727"/>
<path d="M62.8957 481.162C73.3319 481.072 81.8645 489.46 81.9539 499.896C82.0433 510.332 73.6556 518.865 63.2195 518.954C52.7834 519.043 44.2508 510.656 44.1614 500.22C44.072 489.784 52.4596 481.251 62.8957 481.162ZM62.8805 502.529C64.3474 502.517 65.5264 501.317 65.5138 499.85C65.5013 498.384 64.3019 497.205 62.835 497.217C61.3681 497.23 60.1892 498.429 60.2017 499.896C60.2143 501.363 61.4136 502.542 62.8805 502.529Z" fill="white"/>
<path d="M62.8957 481.162C73.3319 481.072 81.8645 489.46 81.9539 499.896C82.0433 510.332 73.6556 518.865 63.2195 518.954C52.7834 519.043 44.2508 510.656 44.1614 500.22C44.072 489.784 52.4596 481.251 62.8957 481.162ZM62.8805 502.529C64.3474 502.517 65.5264 501.317 65.5138 499.85C65.5013 498.384 64.3019 497.205 62.835 497.217C61.3681 497.23 60.1892 498.429 60.2017 499.896C60.2143 501.363 61.4136 502.542 62.8805 502.529Z" fill="url(#paint32_radial_40_6336)" fill-opacity="0.7"/>
<path d="M62.8957 481.162C73.3319 481.072 81.8645 489.46 81.9539 499.896C82.0433 510.332 73.6556 518.865 63.2195 518.954C52.7834 519.043 44.2508 510.656 44.1614 500.22C44.072 489.784 52.4596 481.251 62.8957 481.162ZM62.8805 502.529C64.3474 502.517 65.5264 501.317 65.5138 499.85C65.5013 498.384 64.3019 497.205 62.835 497.217C61.3681 497.23 60.1892 498.429 60.2017 499.896C60.2143 501.363 61.4136 502.542 62.8805 502.529Z" fill="white"/>
<path d="M62.8957 481.162C73.3319 481.072 81.8645 489.46 81.9539 499.896C82.0433 510.332 73.6556 518.865 63.2195 518.954C52.7834 519.043 44.2508 510.656 44.1614 500.22C44.072 489.784 52.4596 481.251 62.8957 481.162ZM62.8805 502.529C64.3474 502.517 65.5264 501.317 65.5138 499.85C65.5013 498.384 64.3019 497.205 62.835 497.217C61.3681 497.23 60.1892 498.429 60.2017 499.896C60.2143 501.363 61.4136 502.542 62.8805 502.529Z" fill="url(#paint33_radial_40_6336)" fill-opacity="0.7"/>
<path d="M77.0446 479.667C77.8116 479.687 78.4172 480.325 78.3973 481.092L78.0297 495.248C77.9813 497.113 77.0876 498.856 75.6009 499.984L71.8131 502.857C71.2019 503.321 70.3305 503.201 69.8668 502.59C69.4029 501.979 69.5224 501.107 70.1337 500.644L73.2034 498.315C74.4716 497.352 75.2339 495.866 75.2752 494.275L75.6196 481.02C75.6396 480.253 76.2776 479.647 77.0446 479.667Z" fill="#D7D7D7"/>
</svg>
