<svg width="50" height="50" viewBox="94 35.7471 62 62" fill="none" xmlns="http://www.w3.org/2000/svg">
<circle cx="125" cy="66.7471" r="31" fill="#272727"/>
<path d="M124.871 43.3867C137.812 43.2759 148.392 53.6766 148.503 66.6174C148.614 79.5582 138.213 90.1386 125.272 90.2495C112.331 90.3603 101.751 79.9596 101.64 67.0188C101.529 54.078 111.93 43.4976 124.871 43.3867ZM124.852 69.8827C126.671 69.8671 128.133 68.3799 128.117 66.561C128.102 64.742 126.614 63.2801 124.795 63.2957C122.976 63.3112 121.515 64.7984 121.53 66.6174C121.546 68.4363 123.033 69.8983 124.852 69.8827Z" fill="white"/>
<path d="M124.871 43.3867C137.812 43.2759 148.392 53.6766 148.503 66.6174C148.614 79.5582 138.213 90.1386 125.272 90.2495C112.331 90.3603 101.751 79.9596 101.64 67.0188C101.529 54.078 111.93 43.4976 124.871 43.3867ZM124.852 69.8827C126.671 69.8671 128.133 68.3799 128.117 66.561C128.102 64.742 126.614 63.2801 124.795 63.2957C122.976 63.3112 121.515 64.7984 121.53 66.6174C121.546 68.4363 123.033 69.8983 124.852 69.8827Z" fill="url(#paint2_radial_525_1184)" fill-opacity="0.7"/>
<path d="M124.871 43.3867C137.812 43.2759 148.392 53.6766 148.503 66.6174C148.614 79.5582 138.213 90.1386 125.272 90.2495C112.331 90.3603 101.751 79.9596 101.64 67.0188C101.529 54.078 111.93 43.4976 124.871 43.3867ZM124.852 69.8827C126.671 69.8671 128.133 68.3799 128.117 66.561C128.102 64.742 126.614 63.2801 124.795 63.2957C122.976 63.3112 121.515 64.7984 121.53 66.6174C121.546 68.4363 123.033 69.8983 124.852 69.8827Z" fill="white"/>
<path d="M124.871 43.3867C137.812 43.2759 148.392 53.6766 148.503 66.6174C148.614 79.5582 138.213 90.1386 125.272 90.2495C112.331 90.3603 101.751 79.9596 101.64 67.0188C101.529 54.078 111.93 43.4976 124.871 43.3867ZM124.852 69.8827C126.671 69.8671 128.133 68.3799 128.117 66.561C128.102 64.742 126.614 63.2801 124.795 63.2957C122.976 63.3112 121.515 64.7984 121.53 66.6174C121.546 68.4363 123.033 69.8983 124.852 69.8827Z" fill="url(#paint3_radial_525_1184)" fill-opacity="0.7"/>
<path d="M142.416 41.5341C143.367 41.5589 144.118 42.3499 144.093 43.301L143.629 61.1516C143.574 63.2769 142.556 65.2619 140.862 66.5468L135.929 70.2897C135.171 70.8647 134.09 70.7165 133.515 69.9587C132.94 69.2008 133.088 68.12 133.846 67.5449L137.653 64.657C139.225 63.4639 140.17 61.6208 140.222 59.6475L140.649 43.2115C140.673 42.2604 141.465 41.5093 142.416 41.5341Z" fill="#D7D7D7"/>
<defs>
<radialGradient id="paint2_radial_525_1184" cx="0" cy="0" r="1" gradientUnits="userSpaceOnUse" gradientTransform="translate(125.071 66.8181) rotate(-0.490819) scale(23.4322)">
<stop offset="0.240385"/>
<stop offset="0.541667" stop-color="#0E0E0E"/>
<stop offset="0.567708" stop-color="#0A0A0A"/>
<stop offset="0.604167" stop-color="#111111"/>
<stop offset="0.630208" stop-color="#030303"/>
<stop offset="0.692708" stop-color="#0A0A0A"/>
<stop offset="0.739583" stop-color="#0C0C0C"/>
<stop offset="0.776042" stop-color="#090909"/>
<stop offset="0.802083" stop-color="#070707"/>
<stop offset="0.838484" stop-color="#050505"/>
<stop offset="0.894232" stop-color="#0D0D0D"/>
<stop offset="0.921875" stop-color="#0C0C0C"/>
<stop offset="0.96875" stop-color="#0C0C0C"/>
<stop offset="1" stop-color="#F8F8F8"/>
</radialGradient>
<radialGradient id="paint3_radial_525_1184" cx="0" cy="0" r="1" gradientUnits="userSpaceOnUse" gradientTransform="translate(125.071 66.8181) rotate(-0.490819) scale(23.4322)">
<stop offset="0.240385"/>
<stop offset="0.541667" stop-color="#0E0E0E"/>
<stop offset="0.567708" stop-color="#0A0A0A"/>
<stop offset="0.604167" stop-color="#111111"/>
<stop offset="0.630208" stop-color="#030303"/>
<stop offset="0.692708" stop-color="#0A0A0A"/>
<stop offset="0.739583" stop-color="#0C0C0C"/>
<stop offset="0.776042" stop-color="#090909"/>
<stop offset="0.802083" stop-color="#070707"/>
<stop offset="0.838484" stop-color="#050505"/>
<stop offset="0.894232" stop-color="#0D0D0D"/>
<stop offset="0.921875" stop-color="#0C0C0C"/>
<stop offset="0.96875" stop-color="#0C0C0C"/>
<stop offset="1" stop-color="#F8F8F8"/>
</radialGradient>
</defs>
</svg>
