<svg width="51" height="51" viewBox="36 552 51 51" fill="none" xmlns="http://www.w3.org/2000/svg">
<defs>
<radialGradient id="paint34_radial_40_6336" cx="0" cy="0" r="1" gradientUnits="userSpaceOnUse" gradientTransform="translate(61.97 577.043) rotate(-0.490819) scale(18.3951)">
<stop stop-color="#232323"/>
<stop offset="0.541667" stop-color="#A3A1A1"/>
<stop offset="0.567708" stop-color="#0A0A0A"/>
<stop offset="0.604167" stop-color="#111111"/>
<stop offset="0.630208" stop-color="#030303"/>
<stop offset="0.692708" stop-color="#0A0A0A"/>
<stop offset="0.739583" stop-color="#0C0C0C"/>
<stop offset="0.776042" stop-color="#090909"/>
<stop offset="0.802083" stop-color="#070707"/>
<stop offset="0.838484" stop-color="#050505"/>
<stop offset="0.894232" stop-color="#0D0D0D"/>
<stop offset="0.921875" stop-color="#0C0C0C"/>
<stop offset="0.96875" stop-color="#0C0C0C"/>
<stop offset="1" stop-color="white"/>
</radialGradient>
<radialGradient id="paint35_radial_40_6336" cx="0" cy="0" r="1" gradientUnits="userSpaceOnUse" gradientTransform="translate(61.97 577.043) rotate(-0.490819) scale(18.3951)">
<stop stop-color="#232323"/>
<stop offset="0.541667" stop-color="#A3A1A1"/>
<stop offset="0.567708" stop-color="#0A0A0A"/>
<stop offset="0.604167" stop-color="#111111"/>
<stop offset="0.630208" stop-color="#030303"/>
<stop offset="0.692708" stop-color="#0A0A0A"/>
<stop offset="0.739583" stop-color="#0C0C0C"/>
<stop offset="0.776042" stop-color="#090909"/>
<stop offset="0.802083" stop-color="#070707"/>
<stop offset="0.838484" stop-color="#050505"/>
<stop offset="0.894232" stop-color="#0D0D0D"/>
<stop offset="0.921875" stop-color="#0C0C0C"/>
<stop offset="0.96875" stop-color="#0C0C0C"/>
<stop offset="1" stop-color="white"/>
</radialGradient>
</defs>
<circle cx="61.5" cy="577.5" r="25.5" fill="black"/>
<path d="M61.8125 558.649C71.9715 558.562 80.2775 566.727 80.3645 576.886C80.4515 587.045 72.2866 595.351 62.1276 595.438C51.9686 595.525 43.6626 587.36 43.5756 577.201C43.4885 567.042 51.6535 558.736 61.8125 558.649ZM62.0501 586.388C67.2109 586.343 71.3586 582.124 71.3144 576.963C71.2702 571.802 67.0508 567.655 61.89 567.699C56.7292 567.743 52.5814 571.962 52.6257 577.123C52.6699 582.284 56.8893 586.432 62.0501 586.388Z" fill="white"/>
<path d="M61.8125 558.649C71.9715 558.562 80.2775 566.727 80.3645 576.886C80.4515 587.045 72.2866 595.351 62.1276 595.438C51.9686 595.525 43.6626 587.36 43.5756 577.201C43.4885 567.042 51.6535 558.736 61.8125 558.649ZM62.0501 586.388C67.2109 586.343 71.3586 582.124 71.3144 576.963C71.2702 571.802 67.0508 567.655 61.89 567.699C56.7292 567.743 52.5814 571.962 52.6257 577.123C52.6699 582.284 56.8893 586.432 62.0501 586.388Z" fill="url(#paint34_radial_40_6336)" fill-opacity="0.7"/>
<path d="M61.8125 558.649C71.9715 558.562 80.2775 566.727 80.3645 576.886C80.4515 587.045 72.2866 595.351 62.1276 595.438C51.9686 595.525 43.6626 587.36 43.5756 577.201C43.4885 567.042 51.6535 558.736 61.8125 558.649ZM62.0501 586.388C67.2109 586.343 71.3586 582.124 71.3144 576.963C71.2702 571.802 67.0508 567.655 61.89 567.699C56.7292 567.743 52.5814 571.962 52.6257 577.123C52.6699 582.284 56.8893 586.432 62.0501 586.388Z" fill="white"/>
<path d="M61.8125 558.649C71.9715 558.562 80.2775 566.727 80.3645 576.886C80.4515 587.045 72.2866 595.351 62.1276 595.438C51.9686 595.525 43.6626 587.36 43.5756 577.201C43.4885 567.042 51.6535 558.736 61.8125 558.649ZM62.0501 586.388C67.2109 586.343 71.3586 582.124 71.3144 576.963C71.2702 571.802 67.0508 567.655 61.89 567.699C56.7292 567.743 52.5814 571.962 52.6257 577.123C52.6699 582.284 56.8893 586.432 62.0501 586.388Z" fill="url(#paint35_radial_40_6336)" fill-opacity="0.7"/>
<circle cx="61.9625" cy="577.037" r="3.70909" fill="#D9D9D9"/>
</svg>
