<svg width="50" height="50" viewBox="606.511 34.2285 62 62" fill="none" xmlns="http://www.w3.org/2000/svg">
<circle cx="637.511" cy="65.2285" r="31" fill="black"/>
<path d="M637.872 43.4206C650.222 43.3148 660.32 53.2408 660.426 65.5909C660.532 77.941 650.606 88.0386 638.255 88.1444C625.905 88.2502 615.808 78.3242 615.702 65.974C615.596 53.6239 625.522 43.5264 637.872 43.4206Z" fill="white"/>
<path d="M637.872 43.4206C650.222 43.3148 660.32 53.2408 660.426 65.5909C660.532 77.941 650.606 88.0386 638.255 88.1444C625.905 88.2502 615.808 78.3242 615.702 65.974C615.596 53.6239 625.522 43.5264 637.872 43.4206Z" fill="url(#paint4_radial_525_1184)" fill-opacity="0.7"/>
<path d="M637.872 43.4206C650.222 43.3148 660.32 53.2408 660.426 65.5909C660.532 77.941 650.606 88.0386 638.255 88.1444C625.905 88.2502 615.808 78.3242 615.702 65.974C615.596 53.6239 625.522 43.5264 637.872 43.4206Z" fill="white"/>
<path d="M637.872 43.4206C650.222 43.3148 660.32 53.2408 660.426 65.5909C660.532 77.941 650.606 88.0386 638.255 88.1444C625.905 88.2502 615.808 78.3242 615.702 65.974C615.596 53.6239 625.522 43.5264 637.872 43.4206Z" fill="url(#paint5_radial_525_1184)" fill-opacity="0.7"/>
<path d="M645.963 52.9661L631.751 57.1633C631.463 57.2539 631.21 57.4342 631.031 57.6779C630.852 57.9217 630.756 58.2161 630.756 58.5185V70.1302C630.29 70.0172 629.813 69.9588 629.334 69.956C626.98 69.956 625.07 71.2291 625.07 72.7989C625.07 74.3686 626.98 75.6417 629.334 75.6417C631.688 75.6417 633.598 74.3686 633.598 72.7989V62.419L644.969 59.0876V67.2878C644.504 67.1744 644.027 67.1158 643.548 67.1132C641.194 67.1132 639.284 68.3863 639.284 69.956C639.284 71.5258 641.194 72.7989 643.548 72.7989C645.902 72.7989 647.812 71.5263 647.812 69.956V54.3205C647.811 54.0973 647.759 53.8774 647.658 53.6784C647.557 53.4794 647.41 53.307 647.23 53.1752C647.05 53.0433 646.842 52.9556 646.622 52.9193C646.401 52.883 646.176 52.8991 645.963 52.9661Z" fill="#D9D9D9"/>
<defs>
<radialGradient id="paint4_radial_525_1184" cx="0" cy="0" r="1" gradientUnits="userSpaceOnUse" gradientTransform="translate(638.064 65.7825) rotate(-0.490819) scale(22.3627)">
<stop offset="0.604167" stop-color="#111111"/>
<stop offset="0.630208" stop-color="#030303"/>
<stop offset="0.692708" stop-color="#0A0A0A"/>
<stop offset="0.739583" stop-color="#0C0C0C"/>
<stop offset="0.776042" stop-color="#090909"/>
<stop offset="0.802083" stop-color="#070707"/>
<stop offset="0.838484" stop-color="#050505"/>
<stop offset="0.894232" stop-color="#0D0D0D"/>
<stop offset="0.921875" stop-color="#0C0C0C"/>
<stop offset="0.96875" stop-color="#0C0C0C"/>
<stop offset="1" stop-color="white"/>
</radialGradient>
<radialGradient id="paint5_radial_525_1184" cx="0" cy="0" r="1" gradientUnits="userSpaceOnUse" gradientTransform="translate(638.064 65.7825) rotate(-0.490819) scale(22.3627)">
<stop offset="0.604167" stop-color="#111111"/>
<stop offset="0.630208" stop-color="#030303"/>
<stop offset="0.692708" stop-color="#0A0A0A"/>
<stop offset="0.739583" stop-color="#0C0C0C"/>
<stop offset="0.776042" stop-color="#090909"/>
<stop offset="0.802083" stop-color="#070707"/>
<stop offset="0.838484" stop-color="#050505"/>
<stop offset="0.894232" stop-color="#0D0D0D"/>
<stop offset="0.921875" stop-color="#0C0C0C"/>
<stop offset="0.96875" stop-color="#0C0C0C"/>
<stop offset="1" stop-color="white"/>
</radialGradient>
</defs>
</svg>
