<svg width="50" height="50" viewBox="265 34 62 62" fill="none" xmlns="http://www.w3.org/2000/svg">
<circle cx="296.001" cy="65.001" r="31" fill="black"/>
<path d="M296.382 42.0836C308.732 41.9778 318.83 51.9038 318.936 64.254C319.041 76.6041 309.115 86.7017 296.765 86.8075C284.415 86.9133 274.318 76.9873 274.212 64.6371C274.106 52.287 284.032 42.1894 296.382 42.0836ZM296.671 75.8054C302.945 75.7517 307.987 70.6221 307.934 64.3482C307.88 58.0744 302.75 53.032 296.476 53.0857C290.202 53.1394 285.16 58.269 285.214 64.5429C285.268 70.8167 290.397 75.8591 296.671 75.8054Z" fill="white"/>
<path d="M296.382 42.0836C308.732 41.9778 318.83 51.9038 318.936 64.254C319.041 76.6041 309.115 86.7017 296.765 86.8075C284.415 86.9133 274.318 76.9873 274.212 64.6371C274.106 52.287 284.032 42.1894 296.382 42.0836ZM296.671 75.8054C302.945 75.7517 307.987 70.6221 307.934 64.3482C307.88 58.0744 302.75 53.032 296.476 53.0857C290.202 53.1394 285.16 58.269 285.214 64.5429C285.268 70.8167 290.397 75.8591 296.671 75.8054Z" fill="url(#paint8_radial_525_1184)" fill-opacity="0.7"/>
<path d="M296.382 42.0836C308.732 41.9778 318.83 51.9038 318.936 64.254C319.041 76.6041 309.115 86.7017 296.765 86.8075C284.415 86.9133 274.318 76.9873 274.212 64.6371C274.106 52.287 284.032 42.1894 296.382 42.0836ZM296.671 75.8054C302.945 75.7517 307.987 70.6221 307.934 64.3482C307.88 58.0744 302.75 53.032 296.476 53.0857C290.202 53.1394 285.16 58.269 285.214 64.5429C285.268 70.8167 290.397 75.8591 296.671 75.8054Z" fill="white"/>
<path d="M296.382 42.0836C308.732 41.9778 318.83 51.9038 318.936 64.254C319.041 76.6041 309.115 86.7017 296.765 86.8075C284.415 86.9133 274.318 76.9873 274.212 64.6371C274.106 52.287 284.032 42.1894 296.382 42.0836ZM296.671 75.8054C302.945 75.7517 307.987 70.6221 307.934 64.3482C307.88 58.0744 302.75 53.032 296.476 53.0857C290.202 53.1394 285.16 58.269 285.214 64.5429C285.268 70.8167 290.397 75.8591 296.671 75.8054Z" fill="url(#paint9_radial_525_1184)" fill-opacity="0.7"/>
<circle cx="296.563" cy="64.4378" r="4.50909" fill="#D9D9D9"/>
<defs>
<radialGradient id="paint8_radial_525_1184" cx="0" cy="0" r="1" gradientUnits="userSpaceOnUse" gradientTransform="translate(296.574 64.4455) rotate(-0.490819) scale(22.3627)">
<stop stop-color="#232323"/>
<stop offset="0.541667" stop-color="#A3A1A1"/>
<stop offset="0.567708" stop-color="#0A0A0A"/>
<stop offset="0.604167" stop-color="#111111"/>
<stop offset="0.630208" stop-color="#030303"/>
<stop offset="0.692708" stop-color="#0A0A0A"/>
<stop offset="0.739583" stop-color="#0C0C0C"/>
<stop offset="0.776042" stop-color="#090909"/>
<stop offset="0.802083" stop-color="#070707"/>
<stop offset="0.838484" stop-color="#050505"/>
<stop offset="0.894232" stop-color="#0D0D0D"/>
<stop offset="0.921875" stop-color="#0C0C0C"/>
<stop offset="0.96875" stop-color="#0C0C0C"/>
<stop offset="1" stop-color="white"/>
</radialGradient>
<radialGradient id="paint9_radial_525_1184" cx="0" cy="0" r="1" gradientUnits="userSpaceOnUse" gradientTransform="translate(296.574 64.4455) rotate(-0.490819) scale(22.3627)">
<stop stop-color="#232323"/>
<stop offset="0.541667" stop-color="#A3A1A1"/>
<stop offset="0.567708" stop-color="#0A0A0A"/>
<stop offset="0.604167" stop-color="#111111"/>
<stop offset="0.630208" stop-color="#030303"/>
<stop offset="0.692708" stop-color="#0A0A0A"/>
<stop offset="0.739583" stop-color="#0C0C0C"/>
<stop offset="0.776042" stop-color="#090909"/>
<stop offset="0.802083" stop-color="#070707"/>
<stop offset="0.838484" stop-color="#050505"/>
<stop offset="0.894232" stop-color="#0D0D0D"/>
<stop offset="0.921875" stop-color="#0C0C0C"/>
<stop offset="0.96875" stop-color="#0C0C0C"/>
<stop offset="1" stop-color="white"/>
</radialGradient>
</defs>
</svg>
