<svg width="49" height="49" viewBox="142 413 49 49" fill="none" xmlns="http://www.w3.org/2000/svg">
<defs>
<radialGradient id="paint77_radial_285_2703" cx="0" cy="0" r="1" gradientUnits="userSpaceOnUse" gradientTransform="translate(166.497 353.496) rotate(-0.490819) scale(13.1943)">
<stop offset="0.240385"/>
<stop offset="0.541667" stop-color="#0E0E0E"/>
<stop offset="0.567708" stop-color="#0A0A0A"/>
<stop offset="0.604167" stop-color="#111111"/>
<stop offset="0.630208" stop-color="#030303"/>
<stop offset="0.692708" stop-color="#0A0A0A"/>
<stop offset="0.739583" stop-color="#0C0C0C"/>
<stop offset="0.776042" stop-color="#090909"/>
<stop offset="0.802083" stop-color="#070707"/>
<stop offset="0.838484" stop-color="#050505"/>
<stop offset="0.894232" stop-color="#0D0D0D"/>
<stop offset="0.921875" stop-color="#0C0C0C"/>
<stop offset="0.96875" stop-color="#0C0C0C"/>
<stop offset="1" stop-color="#F8F8F8"/>
</radialGradient>
<radialGradient id="paint78_radial_285_2703" cx="0" cy="0" r="1" gradientUnits="userSpaceOnUse" gradientTransform="translate(166.497 353.496) rotate(-0.490819) scale(13.1943)">
<stop offset="0.240385"/>
<stop offset="0.541667" stop-color="#0E0E0E"/>
<stop offset="0.567708" stop-color="#0A0A0A"/>
<stop offset="0.604167" stop-color="#111111"/>
<stop offset="0.630208" stop-color="#030303"/>
<stop offset="0.692708" stop-color="#0A0A0A"/>
<stop offset="0.739583" stop-color="#0C0C0C"/>
<stop offset="0.776042" stop-color="#090909"/>
<stop offset="0.802083" stop-color="#070707"/>
<stop offset="0.838484" stop-color="#050505"/>
<stop offset="0.894232" stop-color="#0D0D0D"/>
<stop offset="0.921875" stop-color="#0C0C0C"/>
<stop offset="0.96875" stop-color="#0C0C0C"/>
<stop offset="1" stop-color="#F8F8F8"/>
</radialGradient>
<radialGradient id="paint79_radial_285_2703" cx="0" cy="0" r="1" gradientUnits="userSpaceOnUse" gradientTransform="translate(167.312 436.696) rotate(-0.490819) scale(12.2634)">
<stop stop-color="#232323"/>
<stop offset="0.541667" stop-color="#A3A1A1"/>
<stop offset="0.567708" stop-color="#0A0A0A"/>
<stop offset="0.604167" stop-color="#111111"/>
<stop offset="0.630208" stop-color="#030303"/>
<stop offset="0.692708" stop-color="#0A0A0A"/>
<stop offset="0.739583" stop-color="#0C0C0C"/>
<stop offset="0.776042" stop-color="#090909"/>
<stop offset="0.802083" stop-color="#070707"/>
<stop offset="0.838484" stop-color="#050505"/>
<stop offset="0.894232" stop-color="#0D0D0D"/>
<stop offset="0.921875" stop-color="#0C0C0C"/>
<stop offset="0.96875" stop-color="#0C0C0C"/>
<stop offset="1" stop-color="white"/>
</radialGradient>
<radialGradient id="paint80_radial_285_2703" cx="0" cy="0" r="1" gradientUnits="userSpaceOnUse" gradientTransform="translate(167.312 436.696) rotate(-0.490819) scale(12.2634)">
<stop stop-color="#232323"/>
<stop offset="0.541667" stop-color="#A3A1A1"/>
<stop offset="0.567708" stop-color="#0A0A0A"/>
<stop offset="0.604167" stop-color="#111111"/>
<stop offset="0.630208" stop-color="#030303"/>
<stop offset="0.692708" stop-color="#0A0A0A"/>
<stop offset="0.739583" stop-color="#0C0C0C"/>
<stop offset="0.776042" stop-color="#090909"/>
<stop offset="0.802083" stop-color="#070707"/>
<stop offset="0.838484" stop-color="#050505"/>
<stop offset="0.894232" stop-color="#0D0D0D"/>
<stop offset="0.921875" stop-color="#0C0C0C"/>
<stop offset="0.96875" stop-color="#0C0C0C"/>
<stop offset="1" stop-color="white"/>
</radialGradient>
<radialGradient id="paint81_radial_285_2703" cx="0" cy="0" r="1" gradientUnits="userSpaceOnUse" gradientTransform="translate(166.497 697.496) rotate(-0.490819) scale(13.1943)">
<stop offset="0.240385"/>
<stop offset="0.541667" stop-color="#0E0E0E"/>
<stop offset="0.567708" stop-color="#0A0A0A"/>
<stop offset="0.604167" stop-color="#111111"/>
<stop offset="0.630208" stop-color="#030303"/>
<stop offset="0.692708" stop-color="#0A0A0A"/>
<stop offset="0.739583" stop-color="#0C0C0C"/>
<stop offset="0.776042" stop-color="#090909"/>
<stop offset="0.802083" stop-color="#070707"/>
<stop offset="0.838484" stop-color="#050505"/>
<stop offset="0.894232" stop-color="#0D0D0D"/>
<stop offset="0.921875" stop-color="#0C0C0C"/>
<stop offset="0.96875" stop-color="#0C0C0C"/>
<stop offset="1" stop-color="#F8F8F8"/>
</radialGradient>
<radialGradient id="paint82_radial_285_2703" cx="0" cy="0" r="1" gradientUnits="userSpaceOnUse" gradientTransform="translate(166.497 697.496) rotate(-0.490819) scale(13.1943)">
<stop offset="0.240385"/>
<stop offset="0.541667" stop-color="#0E0E0E"/>
<stop offset="0.567708" stop-color="#0A0A0A"/>
<stop offset="0.604167" stop-color="#111111"/>
<stop offset="0.630208" stop-color="#030303"/>
<stop offset="0.692708" stop-color="#0A0A0A"/>
<stop offset="0.739583" stop-color="#0C0C0C"/>
<stop offset="0.776042" stop-color="#090909"/>
<stop offset="0.802083" stop-color="#070707"/>
<stop offset="0.838484" stop-color="#050505"/>
<stop offset="0.894232" stop-color="#0D0D0D"/>
<stop offset="0.921875" stop-color="#0C0C0C"/>
<stop offset="0.96875" stop-color="#0C0C0C"/>
<stop offset="1" stop-color="#F8F8F8"/>
</radialGradient>
</defs>
<circle cx="166.694" cy="437.801" r="23.279" transform="rotate(-12.2686 166.694 437.801)" fill="#9872CE"/>
<circle cx="167" cy="437" r="17" fill="black"/>
<path d="M167.207 424.433C173.98 424.375 179.517 429.819 179.575 436.591C179.633 443.364 174.19 448.901 167.417 448.959C160.645 449.017 155.107 443.574 155.049 436.801C154.991 430.029 160.435 424.491 167.207 424.433ZM167.366 442.926C170.806 442.897 173.571 440.084 173.542 436.643C173.512 433.203 170.699 430.437 167.259 430.467C163.818 430.496 161.053 433.309 161.083 436.75C161.112 440.19 163.925 442.955 167.366 442.926Z" fill="white"/>
<path d="M167.207 424.433C173.98 424.375 179.517 429.819 179.575 436.591C179.633 443.364 174.19 448.901 167.417 448.959C160.645 449.017 155.107 443.574 155.049 436.801C154.991 430.029 160.435 424.491 167.207 424.433ZM167.366 442.926C170.806 442.897 173.571 440.084 173.542 436.643C173.512 433.203 170.699 430.437 167.259 430.467C163.818 430.496 161.053 433.309 161.083 436.75C161.112 440.19 163.925 442.955 167.366 442.926Z" fill="url(#paint79_radial_285_2703)" fill-opacity="0.7"/>
<path d="M167.207 424.433C173.98 424.375 179.517 429.819 179.575 436.591C179.633 443.364 174.19 448.901 167.417 448.959C160.645 449.017 155.107 443.574 155.049 436.801C154.991 430.029 160.435 424.491 167.207 424.433ZM167.366 442.926C170.806 442.897 173.571 440.084 173.542 436.643C173.512 433.203 170.699 430.437 167.259 430.467C163.818 430.496 161.053 433.309 161.083 436.75C161.112 440.19 163.925 442.955 167.366 442.926Z" fill="white"/>
<path d="M167.207 424.433C173.98 424.375 179.517 429.819 179.575 436.591C179.633 443.364 174.19 448.901 167.417 448.959C160.645 449.017 155.107 443.574 155.049 436.801C154.991 430.029 160.435 424.491 167.207 424.433ZM167.366 442.926C170.806 442.897 173.571 440.084 173.542 436.643C173.512 433.203 170.699 430.437 167.259 430.467C163.818 430.496 161.053 433.309 161.083 436.75C161.112 440.19 163.925 442.955 167.366 442.926Z" fill="url(#paint80_radial_285_2703)" fill-opacity="0.7"/>
<circle cx="167.309" cy="436.693" r="2.47273" fill="#D9D9D9"/>
</svg>
