<svg width="49" height="49" viewBox="142 329 49 49" fill="none" xmlns="http://www.w3.org/2000/svg">
<defs>
<radialGradient id="paint77_radial_285_2703" cx="0" cy="0" r="1" gradientUnits="userSpaceOnUse" gradientTransform="translate(166.497 353.496) rotate(-0.490819) scale(13.1943)">
<stop offset="0.240385"/>
<stop offset="0.541667" stop-color="#0E0E0E"/>
<stop offset="0.567708" stop-color="#0A0A0A"/>
<stop offset="0.604167" stop-color="#111111"/>
<stop offset="0.630208" stop-color="#030303"/>
<stop offset="0.692708" stop-color="#0A0A0A"/>
<stop offset="0.739583" stop-color="#0C0C0C"/>
<stop offset="0.776042" stop-color="#090909"/>
<stop offset="0.802083" stop-color="#070707"/>
<stop offset="0.838484" stop-color="#050505"/>
<stop offset="0.894232" stop-color="#0D0D0D"/>
<stop offset="0.921875" stop-color="#0C0C0C"/>
<stop offset="0.96875" stop-color="#0C0C0C"/>
<stop offset="1" stop-color="#F8F8F8"/>
</radialGradient>
<radialGradient id="paint78_radial_285_2703" cx="0" cy="0" r="1" gradientUnits="userSpaceOnUse" gradientTransform="translate(166.497 353.496) rotate(-0.490819) scale(13.1943)">
<stop offset="0.240385"/>
<stop offset="0.541667" stop-color="#0E0E0E"/>
<stop offset="0.567708" stop-color="#0A0A0A"/>
<stop offset="0.604167" stop-color="#111111"/>
<stop offset="0.630208" stop-color="#030303"/>
<stop offset="0.692708" stop-color="#0A0A0A"/>
<stop offset="0.739583" stop-color="#0C0C0C"/>
<stop offset="0.776042" stop-color="#090909"/>
<stop offset="0.802083" stop-color="#070707"/>
<stop offset="0.838484" stop-color="#050505"/>
<stop offset="0.894232" stop-color="#0D0D0D"/>
<stop offset="0.921875" stop-color="#0C0C0C"/>
<stop offset="0.96875" stop-color="#0C0C0C"/>
<stop offset="1" stop-color="#F8F8F8"/>
</radialGradient>
<radialGradient id="paint79_radial_285_2703" cx="0" cy="0" r="1" gradientUnits="userSpaceOnUse" gradientTransform="translate(167.312 436.696) rotate(-0.490819) scale(12.2634)">
<stop stop-color="#232323"/>
<stop offset="0.541667" stop-color="#A3A1A1"/>
<stop offset="0.567708" stop-color="#0A0A0A"/>
<stop offset="0.604167" stop-color="#111111"/>
<stop offset="0.630208" stop-color="#030303"/>
<stop offset="0.692708" stop-color="#0A0A0A"/>
<stop offset="0.739583" stop-color="#0C0C0C"/>
<stop offset="0.776042" stop-color="#090909"/>
<stop offset="0.802083" stop-color="#070707"/>
<stop offset="0.838484" stop-color="#050505"/>
<stop offset="0.894232" stop-color="#0D0D0D"/>
<stop offset="0.921875" stop-color="#0C0C0C"/>
<stop offset="0.96875" stop-color="#0C0C0C"/>
<stop offset="1" stop-color="white"/>
</radialGradient>
<radialGradient id="paint80_radial_285_2703" cx="0" cy="0" r="1" gradientUnits="userSpaceOnUse" gradientTransform="translate(167.312 436.696) rotate(-0.490819) scale(12.2634)">
<stop stop-color="#232323"/>
<stop offset="0.541667" stop-color="#A3A1A1"/>
<stop offset="0.567708" stop-color="#0A0A0A"/>
<stop offset="0.604167" stop-color="#111111"/>
<stop offset="0.630208" stop-color="#030303"/>
<stop offset="0.692708" stop-color="#0A0A0A"/>
<stop offset="0.739583" stop-color="#0C0C0C"/>
<stop offset="0.776042" stop-color="#090909"/>
<stop offset="0.802083" stop-color="#070707"/>
<stop offset="0.838484" stop-color="#050505"/>
<stop offset="0.894232" stop-color="#0D0D0D"/>
<stop offset="0.921875" stop-color="#0C0C0C"/>
<stop offset="0.96875" stop-color="#0C0C0C"/>
<stop offset="1" stop-color="white"/>
</radialGradient>
<radialGradient id="paint81_radial_285_2703" cx="0" cy="0" r="1" gradientUnits="userSpaceOnUse" gradientTransform="translate(166.497 697.496) rotate(-0.490819) scale(13.1943)">
<stop offset="0.240385"/>
<stop offset="0.541667" stop-color="#0E0E0E"/>
<stop offset="0.567708" stop-color="#0A0A0A"/>
<stop offset="0.604167" stop-color="#111111"/>
<stop offset="0.630208" stop-color="#030303"/>
<stop offset="0.692708" stop-color="#0A0A0A"/>
<stop offset="0.739583" stop-color="#0C0C0C"/>
<stop offset="0.776042" stop-color="#090909"/>
<stop offset="0.802083" stop-color="#070707"/>
<stop offset="0.838484" stop-color="#050505"/>
<stop offset="0.894232" stop-color="#0D0D0D"/>
<stop offset="0.921875" stop-color="#0C0C0C"/>
<stop offset="0.96875" stop-color="#0C0C0C"/>
<stop offset="1" stop-color="#F8F8F8"/>
</radialGradient>
<radialGradient id="paint82_radial_285_2703" cx="0" cy="0" r="1" gradientUnits="userSpaceOnUse" gradientTransform="translate(166.497 697.496) rotate(-0.490819) scale(13.1943)">
<stop offset="0.240385"/>
<stop offset="0.541667" stop-color="#0E0E0E"/>
<stop offset="0.567708" stop-color="#0A0A0A"/>
<stop offset="0.604167" stop-color="#111111"/>
<stop offset="0.630208" stop-color="#030303"/>
<stop offset="0.692708" stop-color="#0A0A0A"/>
<stop offset="0.739583" stop-color="#0C0C0C"/>
<stop offset="0.776042" stop-color="#090909"/>
<stop offset="0.802083" stop-color="#070707"/>
<stop offset="0.838484" stop-color="#050505"/>
<stop offset="0.894232" stop-color="#0D0D0D"/>
<stop offset="0.921875" stop-color="#0C0C0C"/>
<stop offset="0.96875" stop-color="#0C0C0C"/>
<stop offset="1" stop-color="#F8F8F8"/>
</radialGradient>
</defs>
<circle cx="166.694" cy="353.694" r="23.279" transform="rotate(-12.2686 166.694 353.694)" fill="#E39FD0"/>
<circle cx="166.456" cy="353.456" r="17.4556" fill="#272727"/>
<path d="M166.384 340.302C173.67 340.24 179.628 346.096 179.691 353.383C179.753 360.67 173.897 366.627 166.61 366.69C159.323 366.752 153.365 360.896 153.303 353.609C153.241 346.322 159.097 340.365 166.384 340.302ZM166.373 355.222C167.397 355.213 168.221 354.375 168.212 353.351C168.203 352.327 167.366 351.504 166.341 351.512C165.317 351.521 164.494 352.359 164.503 353.383C164.512 354.407 165.349 355.23 166.373 355.222Z" fill="white"/>
<path d="M166.384 340.302C173.67 340.24 179.628 346.096 179.691 353.383C179.753 360.67 173.897 366.627 166.61 366.69C159.323 366.752 153.365 360.896 153.303 353.609C153.241 346.322 159.097 340.365 166.384 340.302ZM166.373 355.222C167.397 355.213 168.221 354.375 168.212 353.351C168.203 352.327 167.366 351.504 166.341 351.512C165.317 351.521 164.494 352.359 164.503 353.383C164.512 354.407 165.349 355.23 166.373 355.222Z" fill="url(#paint77_radial_285_2703)" fill-opacity="0.7"/>
<path d="M166.384 340.302C173.67 340.24 179.628 346.096 179.691 353.383C179.753 360.67 173.897 366.627 166.61 366.69C159.323 366.752 153.365 360.896 153.303 353.609C153.241 346.322 159.097 340.365 166.384 340.302ZM166.373 355.222C167.397 355.213 168.221 354.375 168.212 353.351C168.203 352.327 167.366 351.504 166.341 351.512C165.317 351.521 164.494 352.359 164.503 353.383C164.512 354.407 165.349 355.23 166.373 355.222Z" fill="white"/>
<path d="M166.384 340.302C173.67 340.24 179.628 346.096 179.691 353.383C179.753 360.67 173.897 366.627 166.61 366.69C159.323 366.752 153.365 360.896 153.303 353.609C153.241 346.322 159.097 340.365 166.384 340.302ZM166.373 355.222C167.397 355.213 168.221 354.375 168.212 353.351C168.203 352.327 167.366 351.504 166.341 351.512C165.317 351.521 164.494 352.359 164.503 353.383C164.512 354.407 165.349 355.23 166.373 355.222Z" fill="url(#paint78_radial_285_2703)" fill-opacity="0.7"/>
<path d="M176.262 339.259C176.798 339.273 177.221 339.718 177.207 340.254L176.95 350.137C176.916 351.44 176.292 352.657 175.254 353.444L172.609 355.45C172.183 355.774 171.574 355.691 171.251 355.264C170.927 354.837 171.01 354.229 171.437 353.905L173.58 352.279C174.466 351.607 174.998 350.569 175.027 349.458L175.267 340.203C175.281 339.668 175.727 339.245 176.262 339.259Z" fill="#D7D7D7"/>
</svg>
