<svg width="495" height="622" viewBox="1350 164 495 622" fill="none" xmlns="http://www.w3.org/2000/svg">
<path d="M1419 351.5C1419 330.789 1435.79 314 1456.5 314H1731.5C1752.21 314 1769 330.789 1769 351.5C1769 372.211 1752.21 389 1731.5 389H1456.5C1435.79 389 1419 372.211 1419 351.5Z" fill="#D9D9D9" fill-opacity="0.22"/>
<path d="M1419 436.5C1419 415.789 1435.79 399 1456.5 399H1731.5C1752.21 399 1769 415.789 1769 436.5C1769 457.211 1752.21 474 1731.5 474H1456.5C1435.79 474 1419 457.211 1419 436.5Z" fill="#D9D9D9" fill-opacity="0.22"/>
<path d="M1419 525.5C1419 504.789 1435.79 488 1456.5 488H1731.5C1752.21 488 1769 504.789 1769 525.5C1769 546.211 1752.21 563 1731.5 563H1456.5C1435.79 563 1419 546.211 1419 525.5Z" fill="#D9D9D9" fill-opacity="0.22"/>
<path d="M1419 610.5C1419 589.789 1435.79 573 1456.5 573H1731.5C1752.21 573 1769 589.789 1769 610.5C1769 631.211 1752.21 648 1731.5 648H1456.5C1435.79 648 1419 631.211 1419 610.5Z" fill="#D9D9D9" fill-opacity="0.22"/>
<path d="M1419 695.5C1419 674.789 1435.79 658 1456.5 658H1731.5C1752.21 658 1769 674.789 1769 695.5C1769 716.211 1752.21 733 1731.5 733H1456.5C1435.79 733 1419 716.211 1419 695.5Z" fill="#D9D9D9" fill-opacity="0.22"/>
</svg>
