<svg width="903" height="330" viewBox="11 181 903 330" fill="none" xmlns="http://www.w3.org/2000/svg">
<foreignObject x="11" y="181" width="903" height="330"><div xmlns="http://www.w3.org/1999/xhtml" style="backdrop-filter:blur(2.15px);clip-path:url(#bgblur_9_517_5148_clip_path);height:100%;width:100%"></div></foreignObject><g filter="url(#filter8_d_517_5148)" data-figma-bg-blur-radius="4.3">
<path d="M58 273C58 258.641 69.6406 247 84 247H841C855.359 247 867 258.641 867 273V365V456C867 470.912 854.912 483 840 483H85.0001C70.0884 483 58 470.912 58 456V273Z" fill="#262525" fill-opacity="0.64"/>
<path d="M84 247.5H841C855.083 247.5 866.5 258.917 866.5 273V456C866.5 470.636 854.636 482.5 840 482.5H85C70.3645 482.5 58.5 470.636 58.5 456V273C58.5 258.917 69.9168 247.5 84 247.5Z" stroke="url(#paint9_linear_517_5148)"/>
</g>
<defs>
<filter id="filter8_d_517_5148" x="11" y="181" width="903" height="330" filterUnits="userSpaceOnUse" color-interpolation-filters="sRGB">
<feFlood flood-opacity="0" result="BackgroundImageFix"/>
<feColorMatrix in="SourceAlpha" type="matrix" values="0 0 0 0 0 0 0 0 0 0 0 0 0 0 0 0 0 0 127 0" result="hardAlpha"/>
<feOffset dy="-19"/>
<feGaussianBlur stdDeviation="23.5"/>
<feColorMatrix type="matrix" values="0 0 0 0 0 0 0 0 0 0 0 0 0 0 0 0 0 0 0.06 0"/>
<feBlend mode="normal" in2="BackgroundImageFix" result="effect1_dropShadow_517_5148"/>
<feBlend mode="normal" in="SourceGraphic" in2="effect1_dropShadow_517_5148" result="shape"/>
</filter>
<clipPath id="bgblur_9_517_5148_clip_path" transform="translate(-11 -181)"><path d="M58 273C58 258.641 69.6406 247 84 247H841C855.359 247 867 258.641 867 273V365V456C867 470.912 854.912 483 840 483H85.0001C70.0884 483 58 470.912 58 456V273Z"/>
</clipPath>
<linearGradient id="paint9_linear_517_5148" x1="233.629" y1="125.356" x2="821.501" y2="422.552" gradientUnits="userSpaceOnUse">
<stop stop-color="white" stop-opacity="0.5"/>
<stop offset="0.34611" stop-color="white" stop-opacity="0.65389"/>
<stop offset="0.636075" stop-color="white" stop-opacity="0.363925"/>
<stop offset="1" stop-color="white" stop-opacity="0.5"/>
</linearGradient>
</defs>
</svg>
