<svg width="247.431" height="190.695" viewBox="423.011 530.929 247.431 190.695" fill="none" xmlns="http://www.w3.org/2000/svg">
<foreignObject x="423.011" y="530.929" width="247.431" height="190.695"><div xmlns="http://www.w3.org/1999/xhtml" style="backdrop-filter:blur(2.15px);clip-path:url(#bgblur_5_517_5148_clip_path);height:100%;width:100%"></div></foreignObject><g filter="url(#filter4_d_517_5148)" data-figma-bg-blur-radius="4.3">
<path d="M470.011 622.929C470.011 608.569 481.651 596.929 496.011 596.929L597.442 596.929C611.801 596.929 623.442 608.569 623.442 622.929L623.442 645.277L623.442 666.624C623.442 681.536 611.354 693.624 596.442 693.624L497.011 693.624C482.099 693.624 470.011 681.536 470.011 666.624L470.011 622.929Z" fill="#262525" fill-opacity="0.67"/>
<path d="M496.011 597.429L597.441 597.429C611.525 597.429 622.941 608.845 622.941 622.929L622.941 666.624C622.941 681.26 611.077 693.124 596.441 693.124L497.011 693.124C482.375 693.124 470.511 681.26 470.511 666.624L470.511 622.929C470.511 608.845 481.928 597.429 496.011 597.429Z" stroke="url(#paint5_linear_517_5148)"/>
</g>
<defs>
<filter id="filter4_d_517_5148" x="423.011" y="530.929" width="247.431" height="190.695" filterUnits="userSpaceOnUse" color-interpolation-filters="sRGB">
<feFlood flood-opacity="0" result="BackgroundImageFix"/>
<feColorMatrix in="SourceAlpha" type="matrix" values="0 0 0 0 0 0 0 0 0 0 0 0 0 0 0 0 0 0 127 0" result="hardAlpha"/>
<feOffset dy="-19"/>
<feGaussianBlur stdDeviation="23.5"/>
<feColorMatrix type="matrix" values="0 0 0 0 0 0 0 0 0 0 0 0 0 0 0 0 0 0 0.06 0"/>
<feBlend mode="normal" in2="BackgroundImageFix" result="effect1_dropShadow_517_5148"/>
<feBlend mode="normal" in="SourceGraphic" in2="effect1_dropShadow_517_5148" result="shape"/>
</filter>
<clipPath id="bgblur_5_517_5148_clip_path" transform="translate(-423.011 -530.929)"><path d="M470.011 622.929C470.011 608.569 481.651 596.929 496.011 596.929L597.442 596.929C611.801 596.929 623.442 608.569 623.442 622.929L623.442 645.277L623.442 666.624C623.442 681.536 611.354 693.624 596.442 693.624L497.011 693.624C482.099 693.624 470.011 681.536 470.011 666.624L470.011 622.929Z"/>
</clipPath>
<linearGradient id="paint5_linear_517_5148" x1="503.32" y1="547.088" x2="636.04" y2="578.145" gradientUnits="userSpaceOnUse">
<stop stop-color="#2ACBCB"/>
<stop offset="0.34611" stop-color="white" stop-opacity="0.65389"/>
<stop offset="0.636075" stop-color="white" stop-opacity="0.363925"/>
<stop offset="1" stop-color="#2ACBCB"/>
</linearGradient>
</defs>
</svg>
