<svg width="50" height="43" viewBox="100 98 50 43" fill="none" xmlns="http://www.w3.org/2000/svg">
<path d="M113.081 103.506L122.166 129.359L118.067 131.255L108.853 104.989L113.081 103.506Z" fill="#29E7E5"/>
<ellipse cx="126.496" cy="133.228" rx="11.7845" ry="11.5913" fill="#FCAFE4"/>
<ellipse cx="110.591" cy="129.816" rx="11.5913" ry="11.3981" fill="#29E7E5"/>
<path d="M120.196 123.434C121.45 125.255 122.183 127.452 122.183 129.816C122.182 133.939 119.956 137.549 116.621 139.551C115.415 137.732 114.712 135.561 114.712 133.228C114.712 129.106 116.901 125.489 120.196 123.434Z" fill="#9770BF"/>
<path d="M106.985 100H128.173L132.1 108.629H110.132L106.985 100Z" fill="#29E7E5"/>
<path d="M128.674 104.696L137.648 130.357L133.42 131.84L124.206 105.574L128.674 104.696Z" fill="#FCAFE4"/>
<path d="M123.212 103.22C123.212 103.22 127.632 103.223 129.992 103.424C133.696 103.74 135.802 104.983 139.626 105.259C142.004 105.431 144.896 105.259 144.896 105.259L148.134 113.405C148.134 113.405 142.982 114.899 137.842 113.405C132.702 111.91 126.662 112.054 126.662 112.054L123.212 103.22Z" fill="#FCAFE4"/>
<path d="M123.212 103.22C123.212 103.22 127.312 103.225 129.722 103.405L132.1 108.629H125.325L123.212 103.22Z" fill="#9770BF"/>
</svg>
