<svg width="20" height="20" viewBox="33 419 20 20" fill="none" xmlns="http://www.w3.org/2000/svg">
<path d="M39.5864 425.793C40.8161 425.038 41.8893 425.342 42.5341 425.827C42.7984 426.025 42.9306 426.124 43.0084 426.124C43.0861 426.124 43.2183 426.025 43.4827 425.827C44.1274 425.342 45.2006 425.038 46.4303 425.793C48.0441 426.783 48.4093 430.048 44.6869 432.804C43.9779 433.328 43.6234 433.591 43.0084 433.591C42.3934 433.591 42.0389 433.328 41.3298 432.804C37.6074 430.048 37.9726 426.783 39.5864 425.793Z" stroke="#8B9CA9" stroke-width="0.917101" stroke-linecap="round"/>
<path d="M52.1794 429.005C52.1794 423.94 48.0734 419.834 43.0084 419.834C37.9434 419.834 33.8374 423.94 33.8374 429.005C33.8374 434.07 37.9434 438.176 43.0084 438.176C48.0734 438.176 52.1794 434.07 52.1794 429.005Z" stroke="#8B9CA9" stroke-width="0.917101"/>
</svg>
