<svg width="19" height="18" viewBox="114 420 19 18" fill="none" xmlns="http://www.w3.org/2000/svg">
<path d="M130.643 421.668L131.467 422.563C131.834 422.963 132.018 423.163 131.954 423.333C131.889 423.503 131.629 423.503 131.109 423.503C129.945 423.503 128.552 423.315 127.483 423.937C126.822 424.321 126.361 424.993 125.583 426.254M115.458 434.508H116.908C118.676 434.508 119.56 434.508 120.306 434.074C120.968 433.689 121.428 433.017 122.207 431.757" stroke="#8B9CA9" stroke-width="1.37565" stroke-linecap="round" stroke-linejoin="round"/>
<path d="M130.643 436.342L131.467 435.447C131.834 435.047 132.018 434.848 131.954 434.678C131.889 434.508 131.629 434.508 131.109 434.508C129.945 434.508 128.552 434.696 127.483 434.074C126.737 433.64 126.246 432.84 125.266 431.241L122.524 426.77C121.543 425.17 121.053 424.371 120.306 423.937C119.56 423.503 118.676 423.503 116.908 423.503H115.458" stroke="#8B9CA9" stroke-width="1.37565" stroke-linecap="round" stroke-linejoin="round"/>
</svg>
