<svg width="738" height="608" viewBox="0 0 738 608" fill="none" xmlns="http://www.w3.org/2000/svg">
<path d="M178.245 338.652C159.107 249.317 216.013 161.383 305.348 142.246C394.682 123.108 482.616 180.014 501.753 269.348C520.891 358.682 463.986 446.616 374.652 465.754C285.317 484.892 197.383 427.986 178.245 338.652Z" fill="url(#paint0_linear_523_584)" stroke="#CECECE"/>
<ellipse cx="337.769" cy="301.765" rx="103.842" ry="103.842" fill="black"/>
<path d="M338.975 228.729C380.345 228.375 414.169 261.624 414.524 302.994C414.878 344.364 381.628 378.188 340.258 378.543C298.888 378.897 265.064 345.648 264.71 304.278C264.355 262.908 297.605 229.084 338.975 228.729Z" fill="white"/>
<path d="M338.975 228.729C380.345 228.375 414.169 261.624 414.524 302.994C414.878 344.364 381.628 378.188 340.258 378.543C298.888 378.897 265.064 345.648 264.71 304.278C264.355 262.908 297.605 229.084 338.975 228.729Z" fill="url(#paint1_radial_523_584)" fill-opacity="0.7"/>
<path d="M338.975 228.729C380.345 228.375 414.169 261.624 414.524 302.994C414.878 344.364 381.628 378.188 340.258 378.543C298.888 378.897 265.064 345.648 264.71 304.278C264.355 262.908 297.605 229.084 338.975 228.729Z" fill="white"/>
<path d="M338.975 228.729C380.345 228.375 414.169 261.624 414.524 302.994C414.878 344.364 381.628 378.188 340.258 378.543C298.888 378.897 265.064 345.648 264.71 304.278C264.355 262.908 297.605 229.084 338.975 228.729Z" fill="url(#paint2_radial_523_584)" fill-opacity="0.7"/>
<path d="M341.393 265.354C342.383 262.679 346.167 262.679 347.156 265.354L356.648 291.004C356.959 291.845 357.622 292.508 358.463 292.82L384.114 302.311C386.789 303.301 386.789 307.085 384.114 308.074L358.463 317.566C357.622 317.877 356.959 318.54 356.648 319.381L347.157 345.031C346.167 347.707 342.383 347.707 341.393 345.032L331.902 319.381C331.59 318.54 330.927 317.877 330.086 317.566L304.436 308.074C301.761 307.085 301.761 303.301 304.436 302.311L330.086 292.82C330.927 292.508 331.59 291.845 331.902 291.004L341.393 265.354Z" fill="black"/>
<path d="M341.393 265.354C342.383 262.679 346.167 262.679 347.156 265.354L356.648 291.004C356.959 291.845 357.622 292.509 358.463 292.82L384.114 302.311C386.789 303.301 386.789 307.085 384.114 308.074L358.463 317.566L358.308 317.628C357.541 317.961 356.94 318.593 356.648 319.381L347.156 345.032L347.108 345.155C346.049 347.706 342.367 347.665 341.393 345.032L331.902 319.381C331.61 318.593 331.009 317.961 330.242 317.628L330.086 317.566L304.436 308.074C301.761 307.084 301.761 303.301 304.436 302.311L330.086 292.82C330.875 292.528 331.507 291.927 331.839 291.16L331.902 291.004L341.393 265.354ZM345.364 266.017C344.99 265.006 343.56 265.006 343.185 266.017L333.694 291.667C333.189 293.031 332.113 294.107 330.749 294.612L305.099 304.103C304.088 304.478 304.088 305.908 305.099 306.282L330.749 315.773C332.113 316.278 333.189 317.354 333.694 318.718L343.185 344.368C343.56 345.38 344.99 345.38 345.364 344.368L354.855 318.718C355.36 317.354 356.436 316.278 357.8 315.773L383.45 306.282C384.462 305.908 384.462 304.478 383.45 304.103L357.8 294.612C356.436 294.107 355.36 293.031 354.855 291.667L345.364 266.017Z" fill="#D8D8D8"/>
<path d="M310.942 255.228C311.306 254.246 312.695 254.246 313.058 255.228L316.543 264.645C316.657 264.954 316.901 265.198 317.209 265.312L326.627 268.797C327.609 269.16 327.609 270.549 326.627 270.913L317.209 274.397C316.901 274.512 316.657 274.755 316.543 275.064L313.058 284.481C312.695 285.464 311.306 285.464 310.942 284.481L307.457 275.064C307.343 274.755 307.1 274.512 306.791 274.397L297.373 270.913C296.391 270.549 296.391 269.16 297.373 268.797L306.791 265.312C307.1 265.198 307.343 264.954 307.457 264.645L310.942 255.228Z" fill="black"/>
<path d="M310.942 255.228C311.306 254.246 312.695 254.246 313.058 255.228L316.543 264.645C316.657 264.954 316.901 265.197 317.21 265.312L326.627 268.796C327.609 269.16 327.609 270.549 326.627 270.913L317.21 274.397L317.097 274.446C316.842 274.573 316.643 274.794 316.543 275.064L313.058 284.481L312.978 284.654C312.555 285.406 311.445 285.406 311.021 284.654L310.942 284.481L307.457 275.064C307.357 274.794 307.158 274.573 306.903 274.446L306.791 274.397L297.374 270.913C296.453 270.572 296.395 269.329 297.201 268.876L297.374 268.796L306.791 265.312C307.061 265.212 307.282 265.013 307.409 264.758L307.457 264.645L310.942 255.228ZM308.515 265.036C308.287 265.654 307.8 266.141 307.182 266.369L297.765 269.854L307.182 273.339C307.799 273.567 308.286 274.054 308.515 274.672L312 284.09L315.484 274.672C315.713 274.054 316.2 273.567 316.817 273.339L326.236 269.854L316.817 266.369C316.2 266.141 315.713 265.654 315.484 265.036L312 255.619L308.515 265.036Z" fill="#D8D8D8"/>
<defs>
<linearGradient id="paint0_linear_523_584" x1="196.771" y1="203.791" x2="453.34" y2="383.542" gradientUnits="userSpaceOnUse">
<stop stop-color="#29E3E1"/>
<stop offset="0.504808" stop-color="#B674F9"/>
<stop offset="0.995192" stop-color="#FCAFE4"/>
</linearGradient>
<radialGradient id="paint1_radial_523_584" cx="0" cy="0" r="1" gradientUnits="userSpaceOnUse" gradientTransform="translate(339.617 303.636) rotate(-0.490819) scale(74.9096)">
<stop offset="0.604167" stop-color="#111111"/>
<stop offset="0.630208" stop-color="#030303"/>
<stop offset="0.692708" stop-color="#0A0A0A"/>
<stop offset="0.739583" stop-color="#0C0C0C"/>
<stop offset="0.776042" stop-color="#090909"/>
<stop offset="0.802083" stop-color="#070707"/>
<stop offset="0.838484" stop-color="#050505"/>
<stop offset="0.894232" stop-color="#0D0D0D"/>
<stop offset="0.921875" stop-color="#0C0C0C"/>
<stop offset="0.96875" stop-color="#0C0C0C"/>
<stop offset="1" stop-color="white"/>
</radialGradient>
<radialGradient id="paint2_radial_523_584" cx="0" cy="0" r="1" gradientUnits="userSpaceOnUse" gradientTransform="translate(339.617 303.636) rotate(-0.490819) scale(74.9096)">
<stop offset="0.604167" stop-color="#111111"/>
<stop offset="0.630208" stop-color="#030303"/>
<stop offset="0.692708" stop-color="#0A0A0A"/>
<stop offset="0.739583" stop-color="#0C0C0C"/>
<stop offset="0.776042" stop-color="#090909"/>
<stop offset="0.802083" stop-color="#070707"/>
<stop offset="0.838484" stop-color="#050505"/>
<stop offset="0.894232" stop-color="#0D0D0D"/>
<stop offset="0.921875" stop-color="#0C0C0C"/>
<stop offset="0.96875" stop-color="#0C0C0C"/>
<stop offset="1" stop-color="white"/>
</radialGradient>
</defs>
</svg>
