<svg width="495" height="622" viewBox="1350 164 495 622" fill="none" xmlns="http://www.w3.org/2000/svg">
<ellipse cx="1482.55" cy="355.112" rx="22.3824" ry="22.0155" transform="rotate(-10.7309 1482.55 355.112)" fill="#FCAFE4"/>
<ellipse cx="1451.66" cy="354.369" rx="22.0155" ry="21.6486" transform="rotate(-10.7309 1451.66 354.369)" fill="#29E7E5"/>
<path d="M1467.32 339.06C1470.31 342.015 1472.45 345.856 1473.29 350.269C1474.75 357.964 1471.87 365.492 1466.35 370.406C1463.46 367.439 1461.38 363.634 1460.56 359.28C1459.1 351.588 1461.9 344.061 1467.32 339.06Z" fill="#9770BF"/>
<ellipse cx="1482.55" cy="438.112" rx="22.3824" ry="22.0155" transform="rotate(-10.7309 1482.55 438.112)" fill="#FCAFE4"/>
<ellipse cx="1451.66" cy="437.369" rx="22.0155" ry="21.6486" transform="rotate(-10.7309 1451.66 437.369)" fill="#29E7E5"/>
<path d="M1467.32 422.06C1470.31 425.015 1472.45 428.856 1473.29 433.269C1474.75 440.964 1471.87 448.492 1466.35 453.406C1463.46 450.439 1461.38 446.634 1460.56 442.28C1459.1 434.588 1461.9 427.061 1467.32 422.06Z" fill="#9770BF"/>
<ellipse cx="1482.55" cy="523.112" rx="22.3824" ry="22.0155" transform="rotate(-10.7309 1482.55 523.112)" fill="#FCAFE4"/>
<ellipse cx="1482.55" cy="523.112" rx="22.3824" ry="22.0155" transform="rotate(-10.7309 1482.55 523.112)" fill="#FCAFE4"/>
<ellipse cx="1451.66" cy="522.369" rx="22.0155" ry="21.6486" transform="rotate(-10.7309 1451.66 522.369)" fill="#29E7E5"/>
<path d="M1467.32 507.06C1470.31 510.015 1472.45 513.856 1473.29 518.269C1474.75 525.964 1471.87 533.492 1466.35 538.406C1463.46 535.439 1461.38 531.634 1460.56 527.28C1459.1 519.588 1461.9 512.061 1467.32 507.06Z" fill="#9770BF"/>
<ellipse cx="1451.66" cy="522.369" rx="22.0155" ry="21.6486" transform="rotate(-10.7309 1451.66 522.369)" fill="#29E7E5"/>
<path d="M1467.32 507.06C1470.31 510.015 1472.45 513.856 1473.29 518.269C1474.75 525.964 1471.87 533.492 1466.35 538.406C1463.46 535.439 1461.38 531.634 1460.56 527.28C1459.1 519.588 1461.9 512.061 1467.32 507.06Z" fill="#9770BF"/>
<ellipse cx="1481.55" cy="609.112" rx="22.3824" ry="22.0155" transform="rotate(-10.7309 1481.55 609.112)" fill="#FCAFE4"/>
<ellipse cx="1481.55" cy="609.112" rx="22.3824" ry="22.0155" transform="rotate(-10.7309 1481.55 609.112)" fill="#FCAFE4"/>
<ellipse cx="1450.66" cy="608.369" rx="22.0155" ry="21.6486" transform="rotate(-10.7309 1450.66 608.369)" fill="#29E7E5"/>
<path d="M1466.32 593.06C1469.31 596.015 1471.45 599.856 1472.29 604.269C1473.75 611.964 1470.87 619.492 1465.35 624.406C1462.46 621.439 1460.38 617.634 1459.56 613.28C1458.1 605.588 1460.9 598.061 1466.32 593.06Z" fill="#9770BF"/>
<ellipse cx="1482.55" cy="694.112" rx="22.3824" ry="22.0155" transform="rotate(-10.7309 1482.55 694.112)" fill="#FCAFE4"/>
<ellipse cx="1482.55" cy="694.112" rx="22.3824" ry="22.0155" transform="rotate(-10.7309 1482.55 694.112)" fill="#FCAFE4"/>
<ellipse cx="1451.66" cy="693.369" rx="22.0155" ry="21.6486" transform="rotate(-10.7309 1451.66 693.369)" fill="#29E7E5"/>
<path d="M1467.32 678.06C1470.31 681.015 1472.45 684.856 1473.29 689.269C1474.75 696.964 1471.87 704.492 1466.35 709.406C1463.46 706.439 1461.38 702.634 1460.56 698.28C1459.1 690.588 1461.9 683.061 1467.32 678.06Z" fill="#9770BF"/>
</svg>
